%TF.GenerationSoftware,KiCad,Pcbnew,9.0.8+dfsg-1*%
%TF.CreationDate,2026-06-21T02:49:11+02:00*%
%TF.ProjectId,codemyriad-protogon,636f6465-6d79-4726-9961-642d70726f74,rev?*%
%TF.SameCoordinates,Original*%
%TF.FileFunction,Legend,Bot*%
%TF.FilePolarity,Positive*%
%FSLAX46Y46*%
G04 Gerber Fmt 4.6, Leading zero omitted, Abs format (unit mm)*
G04 Created by KiCad (PCBNEW 9.0.8+dfsg-1) date 2026-06-21 02:49:11*
%MOMM*%
%LPD*%
G01*
G04 APERTURE LIST*
G04 Aperture macros list*
%AMRoundRect*
0 Rectangle with rounded corners*
0 $1 Rounding radius*
0 $2 $3 $4 $5 $6 $7 $8 $9 X,Y pos of 4 corners*
0 Add a 4 corners polygon primitive as box body*
4,1,4,$2,$3,$4,$5,$6,$7,$8,$9,$2,$3,0*
0 Add four circle primitives for the rounded corners*
1,1,$1+$1,$2,$3*
1,1,$1+$1,$4,$5*
1,1,$1+$1,$6,$7*
1,1,$1+$1,$8,$9*
0 Add four rect primitives between the rounded corners*
20,1,$1+$1,$2,$3,$4,$5,0*
20,1,$1+$1,$4,$5,$6,$7,0*
20,1,$1+$1,$6,$7,$8,$9,0*
20,1,$1+$1,$8,$9,$2,$3,0*%
G04 Aperture macros list end*
%ADD10C,0.350000*%
%ADD11C,0.180000*%
%ADD12C,0.220000*%
%ADD13C,0.250000*%
%ADD14C,0.200000*%
%ADD15RoundRect,0.150000X-1.600000X-0.150000X1.600000X-0.150000X1.600000X0.150000X-1.600000X0.150000X0*%
%ADD16RoundRect,0.150000X-1.200000X-0.150000X1.200000X-0.150000X1.200000X0.150000X-1.200000X0.150000X0*%
%ADD17C,0.700000*%
%ADD18C,4.400000*%
%ADD19R,1.700000X1.700000*%
%ADD20O,1.700000X1.700000*%
G04 APERTURE END LIST*
D10*
X105000000Y-100000000D02*
X109000000Y-100000000D01*
X112500000Y-94400000D02*
X112500000Y-97000000D01*
X114750000Y-100000000D02*
G75*
G02*
X110250000Y-100000000I-2250000J0D01*
G01*
X110250000Y-100000000D02*
G75*
G02*
X114750000Y-100000000I2250000J0D01*
G01*
X112500000Y-103000000D02*
X112500000Y-105600000D01*
X116000000Y-100000000D02*
X120000000Y-100000000D01*
D11*
X115864285Y-92556997D02*
X115864285Y-91656997D01*
X115864285Y-91656997D02*
X115521428Y-91656997D01*
X115521428Y-91656997D02*
X115435713Y-91699854D01*
X115435713Y-91699854D02*
X115392856Y-91742711D01*
X115392856Y-91742711D02*
X115349999Y-91828425D01*
X115349999Y-91828425D02*
X115349999Y-91956997D01*
X115349999Y-91956997D02*
X115392856Y-92042711D01*
X115392856Y-92042711D02*
X115435713Y-92085568D01*
X115435713Y-92085568D02*
X115521428Y-92128425D01*
X115521428Y-92128425D02*
X115864285Y-92128425D01*
X114449999Y-92556997D02*
X114749999Y-92128425D01*
X114964285Y-92556997D02*
X114964285Y-91656997D01*
X114964285Y-91656997D02*
X114621428Y-91656997D01*
X114621428Y-91656997D02*
X114535713Y-91699854D01*
X114535713Y-91699854D02*
X114492856Y-91742711D01*
X114492856Y-91742711D02*
X114449999Y-91828425D01*
X114449999Y-91828425D02*
X114449999Y-91956997D01*
X114449999Y-91956997D02*
X114492856Y-92042711D01*
X114492856Y-92042711D02*
X114535713Y-92085568D01*
X114535713Y-92085568D02*
X114621428Y-92128425D01*
X114621428Y-92128425D02*
X114964285Y-92128425D01*
X113892856Y-91656997D02*
X113721428Y-91656997D01*
X113721428Y-91656997D02*
X113635713Y-91699854D01*
X113635713Y-91699854D02*
X113549999Y-91785568D01*
X113549999Y-91785568D02*
X113507142Y-91956997D01*
X113507142Y-91956997D02*
X113507142Y-92256997D01*
X113507142Y-92256997D02*
X113549999Y-92428425D01*
X113549999Y-92428425D02*
X113635713Y-92514140D01*
X113635713Y-92514140D02*
X113721428Y-92556997D01*
X113721428Y-92556997D02*
X113892856Y-92556997D01*
X113892856Y-92556997D02*
X113978571Y-92514140D01*
X113978571Y-92514140D02*
X114064285Y-92428425D01*
X114064285Y-92428425D02*
X114107142Y-92256997D01*
X114107142Y-92256997D02*
X114107142Y-91956997D01*
X114107142Y-91956997D02*
X114064285Y-91785568D01*
X114064285Y-91785568D02*
X113978571Y-91699854D01*
X113978571Y-91699854D02*
X113892856Y-91656997D01*
X113249999Y-91656997D02*
X112735714Y-91656997D01*
X112992856Y-92556997D02*
X112992856Y-91656997D01*
X112264285Y-91656997D02*
X112092857Y-91656997D01*
X112092857Y-91656997D02*
X112007142Y-91699854D01*
X112007142Y-91699854D02*
X111921428Y-91785568D01*
X111921428Y-91785568D02*
X111878571Y-91956997D01*
X111878571Y-91956997D02*
X111878571Y-92256997D01*
X111878571Y-92256997D02*
X111921428Y-92428425D01*
X111921428Y-92428425D02*
X112007142Y-92514140D01*
X112007142Y-92514140D02*
X112092857Y-92556997D01*
X112092857Y-92556997D02*
X112264285Y-92556997D01*
X112264285Y-92556997D02*
X112350000Y-92514140D01*
X112350000Y-92514140D02*
X112435714Y-92428425D01*
X112435714Y-92428425D02*
X112478571Y-92256997D01*
X112478571Y-92256997D02*
X112478571Y-91956997D01*
X112478571Y-91956997D02*
X112435714Y-91785568D01*
X112435714Y-91785568D02*
X112350000Y-91699854D01*
X112350000Y-91699854D02*
X112264285Y-91656997D01*
X111021428Y-91699854D02*
X111107143Y-91656997D01*
X111107143Y-91656997D02*
X111235714Y-91656997D01*
X111235714Y-91656997D02*
X111364285Y-91699854D01*
X111364285Y-91699854D02*
X111450000Y-91785568D01*
X111450000Y-91785568D02*
X111492857Y-91871282D01*
X111492857Y-91871282D02*
X111535714Y-92042711D01*
X111535714Y-92042711D02*
X111535714Y-92171282D01*
X111535714Y-92171282D02*
X111492857Y-92342711D01*
X111492857Y-92342711D02*
X111450000Y-92428425D01*
X111450000Y-92428425D02*
X111364285Y-92514140D01*
X111364285Y-92514140D02*
X111235714Y-92556997D01*
X111235714Y-92556997D02*
X111150000Y-92556997D01*
X111150000Y-92556997D02*
X111021428Y-92514140D01*
X111021428Y-92514140D02*
X110978571Y-92471282D01*
X110978571Y-92471282D02*
X110978571Y-92171282D01*
X110978571Y-92171282D02*
X111150000Y-92171282D01*
X110421428Y-91656997D02*
X110250000Y-91656997D01*
X110250000Y-91656997D02*
X110164285Y-91699854D01*
X110164285Y-91699854D02*
X110078571Y-91785568D01*
X110078571Y-91785568D02*
X110035714Y-91956997D01*
X110035714Y-91956997D02*
X110035714Y-92256997D01*
X110035714Y-92256997D02*
X110078571Y-92428425D01*
X110078571Y-92428425D02*
X110164285Y-92514140D01*
X110164285Y-92514140D02*
X110250000Y-92556997D01*
X110250000Y-92556997D02*
X110421428Y-92556997D01*
X110421428Y-92556997D02*
X110507143Y-92514140D01*
X110507143Y-92514140D02*
X110592857Y-92428425D01*
X110592857Y-92428425D02*
X110635714Y-92256997D01*
X110635714Y-92256997D02*
X110635714Y-91956997D01*
X110635714Y-91956997D02*
X110592857Y-91785568D01*
X110592857Y-91785568D02*
X110507143Y-91699854D01*
X110507143Y-91699854D02*
X110421428Y-91656997D01*
X109650000Y-92556997D02*
X109650000Y-91656997D01*
X109650000Y-91656997D02*
X109135714Y-92556997D01*
X109135714Y-92556997D02*
X109135714Y-91656997D01*
D12*
X117476190Y-108245060D02*
X117580952Y-108297440D01*
X117580952Y-108297440D02*
X117790476Y-108297440D01*
X117790476Y-108297440D02*
X117895238Y-108245060D01*
X117895238Y-108245060D02*
X117947619Y-108192679D01*
X117947619Y-108192679D02*
X118000000Y-108087917D01*
X118000000Y-108087917D02*
X118000000Y-107773631D01*
X118000000Y-107773631D02*
X117947619Y-107668869D01*
X117947619Y-107668869D02*
X117895238Y-107616488D01*
X117895238Y-107616488D02*
X117790476Y-107564107D01*
X117790476Y-107564107D02*
X117580952Y-107564107D01*
X117580952Y-107564107D02*
X117476190Y-107616488D01*
X116847619Y-108297440D02*
X116952381Y-108245060D01*
X116952381Y-108245060D02*
X117004762Y-108192679D01*
X117004762Y-108192679D02*
X117057143Y-108087917D01*
X117057143Y-108087917D02*
X117057143Y-107773631D01*
X117057143Y-107773631D02*
X117004762Y-107668869D01*
X117004762Y-107668869D02*
X116952381Y-107616488D01*
X116952381Y-107616488D02*
X116847619Y-107564107D01*
X116847619Y-107564107D02*
X116690476Y-107564107D01*
X116690476Y-107564107D02*
X116585714Y-107616488D01*
X116585714Y-107616488D02*
X116533333Y-107668869D01*
X116533333Y-107668869D02*
X116480952Y-107773631D01*
X116480952Y-107773631D02*
X116480952Y-108087917D01*
X116480952Y-108087917D02*
X116533333Y-108192679D01*
X116533333Y-108192679D02*
X116585714Y-108245060D01*
X116585714Y-108245060D02*
X116690476Y-108297440D01*
X116690476Y-108297440D02*
X116847619Y-108297440D01*
X115538095Y-108297440D02*
X115538095Y-107197440D01*
X115538095Y-108245060D02*
X115642857Y-108297440D01*
X115642857Y-108297440D02*
X115852381Y-108297440D01*
X115852381Y-108297440D02*
X115957143Y-108245060D01*
X115957143Y-108245060D02*
X116009524Y-108192679D01*
X116009524Y-108192679D02*
X116061905Y-108087917D01*
X116061905Y-108087917D02*
X116061905Y-107773631D01*
X116061905Y-107773631D02*
X116009524Y-107668869D01*
X116009524Y-107668869D02*
X115957143Y-107616488D01*
X115957143Y-107616488D02*
X115852381Y-107564107D01*
X115852381Y-107564107D02*
X115642857Y-107564107D01*
X115642857Y-107564107D02*
X115538095Y-107616488D01*
X114595238Y-108245060D02*
X114700000Y-108297440D01*
X114700000Y-108297440D02*
X114909524Y-108297440D01*
X114909524Y-108297440D02*
X115014286Y-108245060D01*
X115014286Y-108245060D02*
X115066667Y-108140298D01*
X115066667Y-108140298D02*
X115066667Y-107721250D01*
X115066667Y-107721250D02*
X115014286Y-107616488D01*
X115014286Y-107616488D02*
X114909524Y-107564107D01*
X114909524Y-107564107D02*
X114700000Y-107564107D01*
X114700000Y-107564107D02*
X114595238Y-107616488D01*
X114595238Y-107616488D02*
X114542857Y-107721250D01*
X114542857Y-107721250D02*
X114542857Y-107826012D01*
X114542857Y-107826012D02*
X115066667Y-107930774D01*
X114071429Y-108297440D02*
X114071429Y-107564107D01*
X114071429Y-107668869D02*
X114019048Y-107616488D01*
X114019048Y-107616488D02*
X113914286Y-107564107D01*
X113914286Y-107564107D02*
X113757143Y-107564107D01*
X113757143Y-107564107D02*
X113652381Y-107616488D01*
X113652381Y-107616488D02*
X113600000Y-107721250D01*
X113600000Y-107721250D02*
X113600000Y-108297440D01*
X113600000Y-107721250D02*
X113547619Y-107616488D01*
X113547619Y-107616488D02*
X113442857Y-107564107D01*
X113442857Y-107564107D02*
X113285714Y-107564107D01*
X113285714Y-107564107D02*
X113180953Y-107616488D01*
X113180953Y-107616488D02*
X113128572Y-107721250D01*
X113128572Y-107721250D02*
X113128572Y-108297440D01*
X112709524Y-107564107D02*
X112447619Y-108297440D01*
X112185714Y-107564107D02*
X112447619Y-108297440D01*
X112447619Y-108297440D02*
X112552381Y-108559345D01*
X112552381Y-108559345D02*
X112604762Y-108611726D01*
X112604762Y-108611726D02*
X112709524Y-108664107D01*
X111766667Y-108297440D02*
X111766667Y-107564107D01*
X111766667Y-107773631D02*
X111714286Y-107668869D01*
X111714286Y-107668869D02*
X111661905Y-107616488D01*
X111661905Y-107616488D02*
X111557143Y-107564107D01*
X111557143Y-107564107D02*
X111452381Y-107564107D01*
X111085715Y-108297440D02*
X111085715Y-107564107D01*
X111085715Y-107197440D02*
X111138096Y-107249821D01*
X111138096Y-107249821D02*
X111085715Y-107302202D01*
X111085715Y-107302202D02*
X111033334Y-107249821D01*
X111033334Y-107249821D02*
X111085715Y-107197440D01*
X111085715Y-107197440D02*
X111085715Y-107302202D01*
X110090476Y-108297440D02*
X110090476Y-107721250D01*
X110090476Y-107721250D02*
X110142857Y-107616488D01*
X110142857Y-107616488D02*
X110247619Y-107564107D01*
X110247619Y-107564107D02*
X110457143Y-107564107D01*
X110457143Y-107564107D02*
X110561905Y-107616488D01*
X110090476Y-108245060D02*
X110195238Y-108297440D01*
X110195238Y-108297440D02*
X110457143Y-108297440D01*
X110457143Y-108297440D02*
X110561905Y-108245060D01*
X110561905Y-108245060D02*
X110614286Y-108140298D01*
X110614286Y-108140298D02*
X110614286Y-108035536D01*
X110614286Y-108035536D02*
X110561905Y-107930774D01*
X110561905Y-107930774D02*
X110457143Y-107878393D01*
X110457143Y-107878393D02*
X110195238Y-107878393D01*
X110195238Y-107878393D02*
X110090476Y-107826012D01*
X109095238Y-108297440D02*
X109095238Y-107197440D01*
X109095238Y-108245060D02*
X109200000Y-108297440D01*
X109200000Y-108297440D02*
X109409524Y-108297440D01*
X109409524Y-108297440D02*
X109514286Y-108245060D01*
X109514286Y-108245060D02*
X109566667Y-108192679D01*
X109566667Y-108192679D02*
X109619048Y-108087917D01*
X109619048Y-108087917D02*
X109619048Y-107773631D01*
X109619048Y-107773631D02*
X109566667Y-107668869D01*
X109566667Y-107668869D02*
X109514286Y-107616488D01*
X109514286Y-107616488D02*
X109409524Y-107564107D01*
X109409524Y-107564107D02*
X109200000Y-107564107D01*
X109200000Y-107564107D02*
X109095238Y-107616488D01*
X108571429Y-108192679D02*
X108519048Y-108245060D01*
X108519048Y-108245060D02*
X108571429Y-108297440D01*
X108571429Y-108297440D02*
X108623810Y-108245060D01*
X108623810Y-108245060D02*
X108571429Y-108192679D01*
X108571429Y-108192679D02*
X108571429Y-108297440D01*
X108047619Y-108297440D02*
X108047619Y-107564107D01*
X108047619Y-107197440D02*
X108100000Y-107249821D01*
X108100000Y-107249821D02*
X108047619Y-107302202D01*
X108047619Y-107302202D02*
X107995238Y-107249821D01*
X107995238Y-107249821D02*
X108047619Y-107197440D01*
X108047619Y-107197440D02*
X108047619Y-107302202D01*
X107366666Y-108297440D02*
X107471428Y-108245060D01*
X107471428Y-108245060D02*
X107523809Y-108192679D01*
X107523809Y-108192679D02*
X107576190Y-108087917D01*
X107576190Y-108087917D02*
X107576190Y-107773631D01*
X107576190Y-107773631D02*
X107523809Y-107668869D01*
X107523809Y-107668869D02*
X107471428Y-107616488D01*
X107471428Y-107616488D02*
X107366666Y-107564107D01*
X107366666Y-107564107D02*
X107209523Y-107564107D01*
X107209523Y-107564107D02*
X107104761Y-107616488D01*
X107104761Y-107616488D02*
X107052380Y-107668869D01*
X107052380Y-107668869D02*
X106999999Y-107773631D01*
X106999999Y-107773631D02*
X106999999Y-108087917D01*
X106999999Y-108087917D02*
X107052380Y-108192679D01*
X107052380Y-108192679D02*
X107104761Y-108245060D01*
X107104761Y-108245060D02*
X107209523Y-108297440D01*
X107209523Y-108297440D02*
X107366666Y-108297440D01*
D13*
X103290809Y-96435901D02*
X103338428Y-96578758D01*
X103338428Y-96578758D02*
X103386047Y-96626377D01*
X103386047Y-96626377D02*
X103481285Y-96673996D01*
X103481285Y-96673996D02*
X103624142Y-96673996D01*
X103624142Y-96673996D02*
X103719380Y-96626377D01*
X103719380Y-96626377D02*
X103767000Y-96578758D01*
X103767000Y-96578758D02*
X103814619Y-96483520D01*
X103814619Y-96483520D02*
X103814619Y-96102568D01*
X103814619Y-96102568D02*
X102814619Y-96102568D01*
X102814619Y-96102568D02*
X102814619Y-96435901D01*
X102814619Y-96435901D02*
X102862238Y-96531139D01*
X102862238Y-96531139D02*
X102909857Y-96578758D01*
X102909857Y-96578758D02*
X103005095Y-96626377D01*
X103005095Y-96626377D02*
X103100333Y-96626377D01*
X103100333Y-96626377D02*
X103195571Y-96578758D01*
X103195571Y-96578758D02*
X103243190Y-96531139D01*
X103243190Y-96531139D02*
X103290809Y-96435901D01*
X103290809Y-96435901D02*
X103290809Y-96102568D01*
X102814619Y-97293044D02*
X102814619Y-97483520D01*
X102814619Y-97483520D02*
X102862238Y-97578758D01*
X102862238Y-97578758D02*
X102957476Y-97673996D01*
X102957476Y-97673996D02*
X103147952Y-97721615D01*
X103147952Y-97721615D02*
X103481285Y-97721615D01*
X103481285Y-97721615D02*
X103671761Y-97673996D01*
X103671761Y-97673996D02*
X103767000Y-97578758D01*
X103767000Y-97578758D02*
X103814619Y-97483520D01*
X103814619Y-97483520D02*
X103814619Y-97293044D01*
X103814619Y-97293044D02*
X103767000Y-97197806D01*
X103767000Y-97197806D02*
X103671761Y-97102568D01*
X103671761Y-97102568D02*
X103481285Y-97054949D01*
X103481285Y-97054949D02*
X103147952Y-97054949D01*
X103147952Y-97054949D02*
X102957476Y-97102568D01*
X102957476Y-97102568D02*
X102862238Y-97197806D01*
X102862238Y-97197806D02*
X102814619Y-97293044D01*
X102814619Y-98007330D02*
X102814619Y-98578758D01*
X103814619Y-98293044D02*
X102814619Y-98293044D01*
X102814619Y-98769235D02*
X102814619Y-99340663D01*
X103814619Y-99054949D02*
X102814619Y-99054949D01*
X102814619Y-99864473D02*
X102814619Y-100054949D01*
X102814619Y-100054949D02*
X102862238Y-100150187D01*
X102862238Y-100150187D02*
X102957476Y-100245425D01*
X102957476Y-100245425D02*
X103147952Y-100293044D01*
X103147952Y-100293044D02*
X103481285Y-100293044D01*
X103481285Y-100293044D02*
X103671761Y-100245425D01*
X103671761Y-100245425D02*
X103767000Y-100150187D01*
X103767000Y-100150187D02*
X103814619Y-100054949D01*
X103814619Y-100054949D02*
X103814619Y-99864473D01*
X103814619Y-99864473D02*
X103767000Y-99769235D01*
X103767000Y-99769235D02*
X103671761Y-99673997D01*
X103671761Y-99673997D02*
X103481285Y-99626378D01*
X103481285Y-99626378D02*
X103147952Y-99626378D01*
X103147952Y-99626378D02*
X102957476Y-99673997D01*
X102957476Y-99673997D02*
X102862238Y-99769235D01*
X102862238Y-99769235D02*
X102814619Y-99864473D01*
X103814619Y-100721616D02*
X102814619Y-100721616D01*
X102814619Y-100721616D02*
X103528904Y-101054949D01*
X103528904Y-101054949D02*
X102814619Y-101388282D01*
X102814619Y-101388282D02*
X103814619Y-101388282D01*
X103719380Y-101864473D02*
X103767000Y-101912092D01*
X103767000Y-101912092D02*
X103814619Y-101864473D01*
X103814619Y-101864473D02*
X103767000Y-101816854D01*
X103767000Y-101816854D02*
X103719380Y-101864473D01*
X103719380Y-101864473D02*
X103814619Y-101864473D01*
X103433666Y-101864473D02*
X102862238Y-101816854D01*
X102862238Y-101816854D02*
X102814619Y-101864473D01*
X102814619Y-101864473D02*
X102862238Y-101912092D01*
X102862238Y-101912092D02*
X103433666Y-101864473D01*
X103433666Y-101864473D02*
X102814619Y-101864473D01*
D14*
X103341695Y-103791101D02*
X103341695Y-103333958D01*
X103341695Y-103562530D02*
X102541695Y-103562530D01*
X102541695Y-103562530D02*
X102655980Y-103486339D01*
X102655980Y-103486339D02*
X102732171Y-103410149D01*
X102732171Y-103410149D02*
X102770266Y-103333958D01*
%LPC*%
D15*
%TO.C,J1*%
X100500000Y-103400000D03*
D16*
X100900000Y-102600000D03*
X100900000Y-101800000D03*
X100900000Y-101000000D03*
X100900000Y-100200000D03*
X100900000Y-99400000D03*
X100900000Y-98600000D03*
X100900000Y-97800000D03*
D15*
X100500000Y-97000000D03*
X100500000Y-96200000D03*
%TD*%
D17*
%TO.C,H2*%
X110850000Y-87500000D03*
X111333274Y-86333274D03*
X111333274Y-88666726D03*
X112500000Y-85850000D03*
D18*
X112500000Y-87500000D03*
D17*
X112500000Y-89150000D03*
X113666726Y-86333274D03*
X113666726Y-88666726D03*
X114150000Y-87500000D03*
%TD*%
D19*
%TO.C,J2*%
X124230000Y-111410000D03*
D20*
X121690000Y-111410000D03*
X124230000Y-108870000D03*
X121690000Y-108870000D03*
X124230000Y-106330000D03*
X121690000Y-106330000D03*
X124230000Y-103790000D03*
X121690000Y-103790000D03*
X124230000Y-101250000D03*
X121690000Y-101250000D03*
X124230000Y-98710000D03*
X121690000Y-98710000D03*
X124230000Y-96170000D03*
X121690000Y-96170000D03*
X124230000Y-93630000D03*
X121690000Y-93630000D03*
X124230000Y-91090000D03*
X121690000Y-91090000D03*
X124230000Y-88550000D03*
X121690000Y-88550000D03*
%TD*%
D17*
%TO.C,H1*%
X110850000Y-112500000D03*
X111333274Y-111333274D03*
X111333274Y-113666726D03*
X112500000Y-110850000D03*
D18*
X112500000Y-112500000D03*
D17*
X112500000Y-114150000D03*
X113666726Y-111333274D03*
X113666726Y-113666726D03*
X114150000Y-112500000D03*
%TD*%
%LPD*%
M02*
