%TF.GenerationSoftware,KiCad,Pcbnew,9.0.8+dfsg-1*%
%TF.CreationDate,2026-06-22T15:57:35+02:00*%
%TF.ProjectId,codemyriad-protogon,636f6465-6d79-4726-9961-642d70726f74,rev?*%
%TF.SameCoordinates,Original*%
%TF.FileFunction,Copper,L2,Bot*%
%TF.FilePolarity,Positive*%
%FSLAX46Y46*%
G04 Gerber Fmt 4.6, Leading zero omitted, Abs format (unit mm)*
G04 Created by KiCad (PCBNEW 9.0.8+dfsg-1) date 2026-06-22 15:57:35*
%MOMM*%
%LPD*%
G01*
G04 APERTURE LIST*
G04 Aperture macros list*
%AMRoundRect*
0 Rectangle with rounded corners*
0 $1 Rounding radius*
0 $2 $3 $4 $5 $6 $7 $8 $9 X,Y pos of 4 corners*
0 Add a 4 corners polygon primitive as box body*
4,1,4,$2,$3,$4,$5,$6,$7,$8,$9,$2,$3,0*
0 Add four circle primitives for the rounded corners*
1,1,$1+$1,$2,$3*
1,1,$1+$1,$4,$5*
1,1,$1+$1,$6,$7*
1,1,$1+$1,$8,$9*
0 Add four rect primitives between the rounded corners*
20,1,$1+$1,$2,$3,$4,$5,0*
20,1,$1+$1,$4,$5,$6,$7,0*
20,1,$1+$1,$6,$7,$8,$9,0*
20,1,$1+$1,$8,$9,$2,$3,0*%
G04 Aperture macros list end*
%TA.AperFunction,ComponentPad*%
%ADD10O,1.650000X1.650000*%
%TD*%
%TA.AperFunction,ComponentPad*%
%ADD11C,1.650000*%
%TD*%
%TA.AperFunction,SMDPad,CuDef*%
%ADD12RoundRect,0.150000X-1.600000X-0.150000X1.600000X-0.150000X1.600000X0.150000X-1.600000X0.150000X0*%
%TD*%
%TA.AperFunction,SMDPad,CuDef*%
%ADD13RoundRect,0.150000X-1.200000X-0.150000X1.200000X-0.150000X1.200000X0.150000X-1.200000X0.150000X0*%
%TD*%
%TA.AperFunction,ComponentPad*%
%ADD14C,0.700000*%
%TD*%
%TA.AperFunction,ComponentPad*%
%ADD15C,4.400000*%
%TD*%
%TA.AperFunction,ComponentPad*%
%ADD16R,1.700000X1.700000*%
%TD*%
%TA.AperFunction,ComponentPad*%
%ADD17O,1.700000X1.700000*%
%TD*%
%TA.AperFunction,ViaPad*%
%ADD18C,0.600000*%
%TD*%
%TA.AperFunction,Conductor*%
%ADD19C,0.250000*%
%TD*%
G04 APERTURE END LIST*
D10*
%TO.P,PROTO1,1*%
%TO.N,/3V3*%
X121690000Y-83470000D03*
%TO.P,PROTO1,2*%
X124230000Y-83470000D03*
%TO.P,PROTO1,3*%
X126770000Y-83470000D03*
%TO.P,PROTO1,4*%
X129310000Y-83470000D03*
%TO.P,PROTO1,5*%
X131850000Y-83470000D03*
%TO.P,PROTO1,6*%
X134390000Y-83470000D03*
%TO.P,PROTO1,7*%
X136930000Y-83470000D03*
%TO.P,PROTO1,8*%
X139470000Y-83470000D03*
%TO.P,PROTO1,9*%
X142010000Y-83470000D03*
%TO.P,PROTO1,10*%
X144550000Y-83470000D03*
D11*
%TO.P,PROTO1,11*%
%TO.N,N/C*%
X121690000Y-86010000D03*
%TO.P,PROTO1,12*%
X124230000Y-86010000D03*
%TO.P,PROTO1,13*%
X126770000Y-86010000D03*
%TO.P,PROTO1,14*%
X129310000Y-86010000D03*
%TO.P,PROTO1,15*%
X131850000Y-86010000D03*
%TO.P,PROTO1,16*%
X134390000Y-86010000D03*
%TO.P,PROTO1,17*%
X136930000Y-86010000D03*
%TO.P,PROTO1,18*%
X139470000Y-86010000D03*
%TO.P,PROTO1,19*%
X142010000Y-86010000D03*
%TO.P,PROTO1,20*%
X144550000Y-86010000D03*
%TO.P,PROTO1,21*%
X126770000Y-88550000D03*
%TO.P,PROTO1,22*%
X129310000Y-88550000D03*
%TO.P,PROTO1,23*%
X131850000Y-88550000D03*
%TO.P,PROTO1,24*%
X134390000Y-88550000D03*
%TO.P,PROTO1,25*%
X136930000Y-88550000D03*
%TO.P,PROTO1,26*%
X139470000Y-88550000D03*
%TO.P,PROTO1,27*%
X142010000Y-88550000D03*
%TO.P,PROTO1,28*%
X144550000Y-88550000D03*
%TO.P,PROTO1,29*%
X126770000Y-91090000D03*
%TO.P,PROTO1,30*%
X129310000Y-91090000D03*
%TO.P,PROTO1,31*%
X131850000Y-91090000D03*
%TO.P,PROTO1,32*%
X134390000Y-91090000D03*
%TO.P,PROTO1,33*%
X136930000Y-91090000D03*
%TO.P,PROTO1,34*%
X139470000Y-91090000D03*
%TO.P,PROTO1,35*%
X142010000Y-91090000D03*
%TO.P,PROTO1,36*%
X144550000Y-91090000D03*
%TO.P,PROTO1,37*%
X126770000Y-93630000D03*
%TO.P,PROTO1,38*%
X129310000Y-93630000D03*
%TO.P,PROTO1,39*%
X131850000Y-93630000D03*
%TO.P,PROTO1,40*%
X134390000Y-93630000D03*
%TO.P,PROTO1,41*%
X136930000Y-93630000D03*
%TO.P,PROTO1,42*%
X139470000Y-93630000D03*
%TO.P,PROTO1,43*%
X142010000Y-93630000D03*
%TO.P,PROTO1,44*%
X144550000Y-93630000D03*
%TO.P,PROTO1,45*%
X126770000Y-96170000D03*
%TO.P,PROTO1,46*%
X129310000Y-96170000D03*
%TO.P,PROTO1,47*%
X131850000Y-96170000D03*
%TO.P,PROTO1,48*%
X134390000Y-96170000D03*
%TO.P,PROTO1,49*%
X136930000Y-96170000D03*
%TO.P,PROTO1,50*%
X139470000Y-96170000D03*
%TO.P,PROTO1,51*%
X142010000Y-96170000D03*
%TO.P,PROTO1,52*%
X144550000Y-96170000D03*
%TO.P,PROTO1,53*%
X126770000Y-98710000D03*
%TO.P,PROTO1,54*%
X129310000Y-98710000D03*
%TO.P,PROTO1,55*%
X131850000Y-98710000D03*
%TO.P,PROTO1,56*%
X134390000Y-98710000D03*
%TO.P,PROTO1,57*%
X136930000Y-98710000D03*
%TO.P,PROTO1,58*%
X139470000Y-98710000D03*
%TO.P,PROTO1,59*%
X142010000Y-98710000D03*
%TO.P,PROTO1,60*%
X144550000Y-98710000D03*
%TO.P,PROTO1,61*%
X126770000Y-101250000D03*
%TO.P,PROTO1,62*%
X129310000Y-101250000D03*
%TO.P,PROTO1,63*%
X131850000Y-101250000D03*
%TO.P,PROTO1,64*%
X134390000Y-101250000D03*
%TO.P,PROTO1,65*%
X136930000Y-101250000D03*
%TO.P,PROTO1,66*%
X139470000Y-101250000D03*
%TO.P,PROTO1,67*%
X142010000Y-101250000D03*
%TO.P,PROTO1,68*%
X144550000Y-101250000D03*
%TO.P,PROTO1,69*%
X126770000Y-103789999D03*
%TO.P,PROTO1,70*%
X129310000Y-103789999D03*
%TO.P,PROTO1,71*%
X131850000Y-103789999D03*
%TO.P,PROTO1,72*%
X134390000Y-103789999D03*
%TO.P,PROTO1,73*%
X136930000Y-103789999D03*
%TO.P,PROTO1,74*%
X139470000Y-103789999D03*
%TO.P,PROTO1,75*%
X142010000Y-103789999D03*
%TO.P,PROTO1,76*%
X144550000Y-103789999D03*
%TO.P,PROTO1,77*%
X126770000Y-106330000D03*
%TO.P,PROTO1,78*%
X129310000Y-106330000D03*
%TO.P,PROTO1,79*%
X131850000Y-106330000D03*
%TO.P,PROTO1,80*%
X134390000Y-106330000D03*
%TO.P,PROTO1,81*%
X136930000Y-106330000D03*
%TO.P,PROTO1,82*%
X139470000Y-106330000D03*
%TO.P,PROTO1,83*%
X142010000Y-106330000D03*
%TO.P,PROTO1,84*%
X144550000Y-106330000D03*
%TO.P,PROTO1,85*%
X126770000Y-108870000D03*
%TO.P,PROTO1,86*%
X129310000Y-108870000D03*
%TO.P,PROTO1,87*%
X131850000Y-108870000D03*
%TO.P,PROTO1,88*%
X134390000Y-108870000D03*
%TO.P,PROTO1,89*%
X136930000Y-108870000D03*
%TO.P,PROTO1,90*%
X139470000Y-108870000D03*
%TO.P,PROTO1,91*%
X142010000Y-108870000D03*
%TO.P,PROTO1,92*%
X144550000Y-108870000D03*
%TO.P,PROTO1,93*%
X126770000Y-111410000D03*
%TO.P,PROTO1,94*%
X129310000Y-111410000D03*
%TO.P,PROTO1,95*%
X131850000Y-111410000D03*
%TO.P,PROTO1,96*%
X134390000Y-111410000D03*
%TO.P,PROTO1,97*%
X136930000Y-111410000D03*
%TO.P,PROTO1,98*%
X139470000Y-111410000D03*
%TO.P,PROTO1,99*%
X142010000Y-111410000D03*
%TO.P,PROTO1,100*%
X144550000Y-111410000D03*
%TO.P,PROTO1,101*%
X121690000Y-113950000D03*
%TO.P,PROTO1,102*%
X124230000Y-113950000D03*
%TO.P,PROTO1,103*%
X126770000Y-113950000D03*
%TO.P,PROTO1,104*%
X129310000Y-113950000D03*
%TO.P,PROTO1,105*%
X131850000Y-113950000D03*
%TO.P,PROTO1,106*%
X134390000Y-113950000D03*
%TO.P,PROTO1,107*%
X136930000Y-113950000D03*
%TO.P,PROTO1,108*%
X139470000Y-113950000D03*
%TO.P,PROTO1,109*%
X142010000Y-113950000D03*
%TO.P,PROTO1,110*%
X144550000Y-113950000D03*
D10*
%TO.P,PROTO1,111*%
%TO.N,/GND*%
X121690000Y-116490000D03*
%TO.P,PROTO1,112*%
X124230000Y-116490000D03*
%TO.P,PROTO1,113*%
X126770000Y-116490000D03*
%TO.P,PROTO1,114*%
X129310000Y-116490000D03*
%TO.P,PROTO1,115*%
X131850000Y-116490000D03*
%TO.P,PROTO1,116*%
X134390000Y-116490000D03*
%TO.P,PROTO1,117*%
X136930000Y-116490000D03*
%TO.P,PROTO1,118*%
X139470000Y-116490000D03*
%TO.P,PROTO1,119*%
X142010000Y-116490000D03*
%TO.P,PROTO1,120*%
X144550000Y-116490000D03*
%TD*%
D12*
%TO.P,J1,1,GND*%
%TO.N,/GND*%
X100500000Y-103400000D03*
D13*
%TO.P,J1,2,LS_A*%
%TO.N,/LS_A*%
X100900000Y-102600000D03*
%TO.P,J1,3,LS_B*%
%TO.N,/LS_B*%
X100900000Y-101800000D03*
%TO.P,J1,4,SDA*%
%TO.N,/SDA*%
X100900000Y-101000000D03*
%TO.P,J1,5,SCL*%
%TO.N,/SCL*%
X100900000Y-100200000D03*
%TO.P,J1,6,HEXP_DET*%
%TO.N,/GND*%
X100900000Y-99400000D03*
%TO.P,J1,7,LS_C*%
%TO.N,/LS_C*%
X100900000Y-98600000D03*
%TO.P,J1,8,LS_D*%
%TO.N,/LS_D*%
X100900000Y-97800000D03*
D12*
%TO.P,J1,9,LS_E*%
%TO.N,/LS_E*%
X100500000Y-97000000D03*
%TO.P,J1,10,GND*%
%TO.N,/GND*%
X100500000Y-96200000D03*
%TD*%
D14*
%TO.P,H2,1,1*%
%TO.N,N/C*%
X110850000Y-87500000D03*
X111333274Y-86333274D03*
X111333274Y-88666726D03*
X112500000Y-85850000D03*
D15*
X112500000Y-87500000D03*
D14*
X112500000Y-89150000D03*
X113666726Y-86333274D03*
X113666726Y-88666726D03*
X114150000Y-87500000D03*
%TD*%
D16*
%TO.P,J2,1,Pin_1*%
%TO.N,/GND*%
X124230000Y-111410000D03*
D17*
%TO.P,J2,2,Pin_2*%
X121690000Y-111410000D03*
%TO.P,J2,3,Pin_3*%
%TO.N,/LS_A*%
X124230000Y-108870000D03*
%TO.P,J2,4,Pin_4*%
%TO.N,/HS_I*%
X121690000Y-108870000D03*
%TO.P,J2,5,Pin_5*%
%TO.N,/LS_B*%
X124230000Y-106330000D03*
%TO.P,J2,6,Pin_6*%
%TO.N,/HS_H*%
X121690000Y-106330000D03*
%TO.P,J2,7,Pin_7*%
%TO.N,/SDA*%
X124230000Y-103790000D03*
%TO.P,J2,8,Pin_8*%
%TO.N,/GND*%
X121690000Y-103790000D03*
%TO.P,J2,9,Pin_9*%
%TO.N,/SCL*%
X124230000Y-101250000D03*
%TO.P,J2,10,Pin_10*%
%TO.N,/3V3*%
X121690000Y-101250000D03*
%TO.P,J2,11,Pin_11*%
%TO.N,/GND*%
X124230000Y-98710000D03*
%TO.P,J2,12,Pin_12*%
%TO.N,/3V3*%
X121690000Y-98710000D03*
%TO.P,J2,13,Pin_13*%
%TO.N,/LS_C*%
X124230000Y-96170000D03*
%TO.P,J2,14,Pin_14*%
%TO.N,/GND*%
X121690000Y-96170000D03*
%TO.P,J2,15,Pin_15*%
%TO.N,/LS_D*%
X124230000Y-93630000D03*
%TO.P,J2,16,Pin_16*%
%TO.N,/HS_G*%
X121690000Y-93630000D03*
%TO.P,J2,17,Pin_17*%
%TO.N,/LS_E*%
X124230000Y-91090000D03*
%TO.P,J2,18,Pin_18*%
%TO.N,/HS_F*%
X121690000Y-91090000D03*
%TO.P,J2,19,Pin_19*%
%TO.N,/GND*%
X124230000Y-88550000D03*
%TO.P,J2,20,Pin_20*%
X121690000Y-88550000D03*
%TD*%
D14*
%TO.P,H1,1,1*%
%TO.N,N/C*%
X110850000Y-112500000D03*
X111333274Y-111333274D03*
X111333274Y-113666726D03*
X112500000Y-110850000D03*
D15*
X112500000Y-112500000D03*
D14*
X112500000Y-114150000D03*
X113666726Y-111333274D03*
X113666726Y-113666726D03*
X114150000Y-112500000D03*
%TD*%
D18*
%TO.N,/GND*%
X125500000Y-102520000D03*
%TD*%
D19*
%TO.N,/GND*%
X125500000Y-112680000D02*
X125500000Y-116490000D01*
X120400000Y-97410000D02*
X118410000Y-99400000D01*
X122500000Y-97450000D02*
X125500000Y-97450000D01*
X125500000Y-88550000D02*
X125500000Y-116490000D01*
X124230000Y-98710000D02*
X125500000Y-98710000D01*
X112450000Y-103400000D02*
X100500000Y-103400000D01*
X124230000Y-111410000D02*
X125500000Y-112680000D01*
X121690000Y-111410000D02*
X120620000Y-111410000D01*
X124230000Y-98710000D02*
X122930000Y-97410000D01*
X120540000Y-111490000D02*
X112450000Y-103400000D01*
X119360000Y-88550000D02*
X111710000Y-96200000D01*
X120620000Y-111410000D02*
X120540000Y-111490000D01*
X125500000Y-116490000D02*
X121690000Y-116490000D01*
X111710000Y-96200000D02*
X100500000Y-96200000D01*
X121690000Y-96170000D02*
X122500000Y-97450000D01*
X122930000Y-97410000D02*
X120400000Y-97410000D01*
X124230000Y-88550000D02*
X125500000Y-88550000D01*
X118410000Y-99400000D02*
X100900000Y-99400000D01*
X121690000Y-88550000D02*
X119360000Y-88550000D01*
%TO.N,/LS_A*%
X123055000Y-107695000D02*
X120735000Y-107695000D01*
X120735000Y-107695000D02*
X120730000Y-107700000D01*
X124230000Y-108870000D02*
X123055000Y-107695000D01*
X115630000Y-102600000D02*
X100900000Y-102600000D01*
X120730000Y-107700000D02*
X115630000Y-102600000D01*
%TO.N,/LS_B*%
X124230000Y-106330000D02*
X122940000Y-105040000D01*
X120420000Y-105040000D02*
X117180000Y-101800000D01*
X117180000Y-101800000D02*
X100900000Y-101800000D01*
X122940000Y-105040000D02*
X120420000Y-105040000D01*
%TO.N,/SDA*%
X122440000Y-102480000D02*
X120960000Y-102480000D01*
X123750000Y-103790000D02*
X122440000Y-102480000D01*
X124230000Y-103790000D02*
X123750000Y-103790000D01*
X120960000Y-102480000D02*
X119480000Y-101000000D01*
X119480000Y-101000000D02*
X100900000Y-101000000D01*
%TO.N,/SCL*%
X124230000Y-101250000D02*
X122940000Y-99960000D01*
X122940000Y-99960000D02*
X103500000Y-99960000D01*
X103260000Y-100200000D02*
X100900000Y-100200000D01*
X103500000Y-99960000D02*
X103260000Y-100200000D01*
%TO.N,/LS_C*%
X124230000Y-95920000D02*
X123230000Y-94920000D01*
X116250000Y-98600000D02*
X100900000Y-98600000D01*
X123230000Y-94920000D02*
X119930000Y-94920000D01*
X119930000Y-94920000D02*
X116250000Y-98600000D01*
X124230000Y-96170000D02*
X124230000Y-95920000D01*
%TO.N,/LS_D*%
X114520000Y-97800000D02*
X100900000Y-97800000D01*
X122940000Y-92340000D02*
X119980000Y-92340000D01*
X119980000Y-92340000D02*
X114520000Y-97800000D01*
X124230000Y-93630000D02*
X122940000Y-92340000D01*
%TO.N,/LS_E*%
X113280000Y-97000000D02*
X100500000Y-97000000D01*
X124230000Y-91090000D02*
X122990000Y-89850000D01*
X120430000Y-89850000D02*
X113280000Y-97000000D01*
X122990000Y-89850000D02*
X120430000Y-89850000D01*
%TD*%
M02*
