%TF.GenerationSoftware,KiCad,Pcbnew,9.0.8+dfsg-1*%
%TF.CreationDate,2026-06-22T16:15:06+02:00*%
%TF.ProjectId,codemyriad-protogon,636f6465-6d79-4726-9961-642d70726f74,rev?*%
%TF.SameCoordinates,Original*%
%TF.FileFunction,Legend,Bot*%
%TF.FilePolarity,Positive*%
%FSLAX46Y46*%
G04 Gerber Fmt 4.6, Leading zero omitted, Abs format (unit mm)*
G04 Created by KiCad (PCBNEW 9.0.8+dfsg-1) date 2026-06-22 16:15:06*
%MOMM*%
%LPD*%
G01*
G04 APERTURE LIST*
G04 Aperture macros list*
%AMRoundRect*
0 Rectangle with rounded corners*
0 $1 Rounding radius*
0 $2 $3 $4 $5 $6 $7 $8 $9 X,Y pos of 4 corners*
0 Add a 4 corners polygon primitive as box body*
4,1,4,$2,$3,$4,$5,$6,$7,$8,$9,$2,$3,0*
0 Add four circle primitives for the rounded corners*
1,1,$1+$1,$2,$3*
1,1,$1+$1,$4,$5*
1,1,$1+$1,$6,$7*
1,1,$1+$1,$8,$9*
0 Add four rect primitives between the rounded corners*
20,1,$1+$1,$2,$3,$4,$5,0*
20,1,$1+$1,$4,$5,$6,$7,0*
20,1,$1+$1,$6,$7,$8,$9,0*
20,1,$1+$1,$8,$9,$2,$3,0*%
G04 Aperture macros list end*
%ADD10C,0.120000*%
%ADD11C,0.160000*%
%ADD12C,0.170000*%
%ADD13RoundRect,0.150000X-1.600000X-0.150000X1.600000X-0.150000X1.600000X0.150000X-1.600000X0.150000X0*%
%ADD14RoundRect,0.150000X-1.200000X-0.150000X1.200000X-0.150000X1.200000X0.150000X-1.200000X0.150000X0*%
%ADD15O,1.650000X1.650000*%
%ADD16C,1.650000*%
%ADD17C,0.700000*%
%ADD18C,4.400000*%
%ADD19R,1.700000X1.700000*%
%ADD20O,1.700000X1.700000*%
G04 APERTURE END LIST*
D10*
X105083003Y-100306874D02*
X104244367Y-100306874D01*
X104244367Y-99740332D01*
X105083003Y-99740332D01*
X105083003Y-100306874D01*
G36*
X105083003Y-100306874D02*
G01*
X104244367Y-100306874D01*
X104244367Y-99740332D01*
X105083003Y-99740332D01*
X105083003Y-100306874D01*
G37*
X107275377Y-102856323D02*
X106716280Y-102856323D01*
X106716280Y-102006522D01*
X107275377Y-102006522D01*
X107275377Y-102856323D01*
G36*
X107275377Y-102856323D02*
G01*
X106716280Y-102856323D01*
X106716280Y-102006522D01*
X107275377Y-102006522D01*
X107275377Y-102856323D01*
G37*
X107275421Y-98040697D02*
X106716325Y-98040697D01*
X106716325Y-97190878D01*
X107275421Y-97190878D01*
X107275421Y-98040697D01*
G36*
X107275421Y-98040697D02*
G01*
X106716325Y-98040697D01*
X106716325Y-97190878D01*
X107275421Y-97190878D01*
X107275421Y-98040697D01*
G37*
X109781903Y-100306874D02*
X108943270Y-100306874D01*
X108943270Y-99740332D01*
X109781903Y-99740332D01*
X109781903Y-100306874D01*
G36*
X109781903Y-100306874D02*
G01*
X108943270Y-100306874D01*
X108943270Y-99740332D01*
X109781903Y-99740332D01*
X109781903Y-100306874D01*
G37*
X105178613Y-97148123D02*
X103555141Y-100000000D01*
X105158587Y-102816719D01*
X104667216Y-103104419D01*
X102900000Y-100000000D01*
X104687231Y-96860394D01*
X105178613Y-97148123D01*
G36*
X105178613Y-97148123D02*
G01*
X103555141Y-100000000D01*
X105158587Y-102816719D01*
X104667216Y-103104419D01*
X102900000Y-100000000D01*
X104687231Y-96860394D01*
X105178613Y-97148123D01*
G37*
X111100000Y-100000000D02*
X109312779Y-103139605D01*
X108821431Y-102851905D01*
X110444831Y-100000000D01*
X108821431Y-97148136D01*
X109312779Y-96860406D01*
X111100000Y-100000000D01*
G36*
X111100000Y-100000000D02*
G01*
X109312779Y-103139605D01*
X108821431Y-102851905D01*
X110444831Y-100000000D01*
X108821431Y-97148136D01*
X109312779Y-96860406D01*
X111100000Y-100000000D01*
G37*
X107792044Y-99976408D02*
X107792044Y-100259667D01*
X107708508Y-100259667D01*
X107352028Y-100259667D01*
X106648016Y-100259667D01*
X106291536Y-100259667D01*
X106207955Y-100259667D01*
X106207955Y-99976408D01*
X106207955Y-99693125D01*
X106291536Y-99693125D01*
X106648016Y-99693125D01*
X107352028Y-99693125D01*
X107708508Y-99693125D01*
X107792044Y-99693125D01*
X107792044Y-99976408D01*
G36*
X107792044Y-99976408D02*
G01*
X107792044Y-100259667D01*
X107708508Y-100259667D01*
X107352028Y-100259667D01*
X106648016Y-100259667D01*
X106291536Y-100259667D01*
X106207955Y-100259667D01*
X106207955Y-99976408D01*
X106207955Y-99693125D01*
X106291536Y-99693125D01*
X106648016Y-99693125D01*
X107352028Y-99693125D01*
X107708508Y-99693125D01*
X107792044Y-99693125D01*
X107792044Y-99976408D01*
G37*
X107137549Y-98329605D02*
X107272048Y-98346216D01*
X107403053Y-98373366D01*
X107530133Y-98410619D01*
X107652855Y-98457536D01*
X107770789Y-98513680D01*
X107883503Y-98578615D01*
X107990564Y-98651901D01*
X108091541Y-98733103D01*
X108186002Y-98821782D01*
X108273517Y-98917502D01*
X108353652Y-99019824D01*
X108425976Y-99128312D01*
X108490057Y-99242527D01*
X108545465Y-99362033D01*
X108591766Y-99486393D01*
X108628530Y-99615168D01*
X108655324Y-99747921D01*
X108671718Y-99884216D01*
X108677278Y-100023614D01*
X108671718Y-100163009D01*
X108655324Y-100299301D01*
X108628530Y-100432053D01*
X108591766Y-100560826D01*
X108545465Y-100685184D01*
X108490057Y-100804689D01*
X108425976Y-100918903D01*
X108353652Y-101027390D01*
X108273517Y-101129711D01*
X108186002Y-101225430D01*
X108091541Y-101314108D01*
X107990564Y-101395310D01*
X107883503Y-101468596D01*
X107770789Y-101533530D01*
X107652855Y-101589674D01*
X107530133Y-101636591D01*
X107403053Y-101673844D01*
X107272048Y-101700994D01*
X107137549Y-101717605D01*
X106999988Y-101723239D01*
X106862428Y-101717605D01*
X106727929Y-101700994D01*
X106596925Y-101673844D01*
X106469846Y-101636591D01*
X106347125Y-101589674D01*
X106229192Y-101533530D01*
X106116480Y-101468596D01*
X106009421Y-101395310D01*
X105908445Y-101314108D01*
X105813985Y-101225430D01*
X105726473Y-101129711D01*
X105646340Y-101027390D01*
X105574017Y-100918903D01*
X105509937Y-100804689D01*
X105454531Y-100685184D01*
X105408230Y-100560826D01*
X105371468Y-100432053D01*
X105344674Y-100299301D01*
X105328281Y-100163009D01*
X105322721Y-100023614D01*
X105881818Y-100023614D01*
X105885524Y-100116542D01*
X105896453Y-100207402D01*
X105914315Y-100295902D01*
X105938824Y-100381750D01*
X105969691Y-100464654D01*
X106006628Y-100544324D01*
X106049348Y-100620467D01*
X106097563Y-100692791D01*
X106150985Y-100761006D01*
X106209326Y-100824819D01*
X106272299Y-100883939D01*
X106339616Y-100938073D01*
X106410988Y-100986932D01*
X106486129Y-101030222D01*
X106564750Y-101067652D01*
X106646564Y-101098931D01*
X106731282Y-101123766D01*
X106818618Y-101141867D01*
X106908282Y-101152941D01*
X106999988Y-101156698D01*
X107091697Y-101152941D01*
X107181365Y-101141867D01*
X107268703Y-101123766D01*
X107353424Y-101098931D01*
X107435239Y-101067652D01*
X107513862Y-101030222D01*
X107589004Y-100986932D01*
X107660378Y-100938073D01*
X107727696Y-100883939D01*
X107790670Y-100824819D01*
X107849012Y-100761006D01*
X107902435Y-100692791D01*
X107950650Y-100620467D01*
X107993371Y-100544324D01*
X108030308Y-100464654D01*
X108061175Y-100381750D01*
X108085684Y-100295902D01*
X108103546Y-100207402D01*
X108114475Y-100116542D01*
X108118181Y-100023614D01*
X108114475Y-99930682D01*
X108103546Y-99839820D01*
X108085684Y-99751318D01*
X108061175Y-99665468D01*
X108030308Y-99582562D01*
X107993371Y-99502891D01*
X107950650Y-99426747D01*
X107902435Y-99354421D01*
X107849012Y-99286206D01*
X107790670Y-99222393D01*
X107727696Y-99163273D01*
X107660378Y-99109138D01*
X107589004Y-99060279D01*
X107513862Y-99016989D01*
X107435239Y-98979559D01*
X107353424Y-98948281D01*
X107268703Y-98923445D01*
X107181365Y-98905345D01*
X107091697Y-98894271D01*
X106999988Y-98890514D01*
X106908282Y-98894271D01*
X106818618Y-98905345D01*
X106731282Y-98923445D01*
X106646564Y-98948281D01*
X106564750Y-98979559D01*
X106486129Y-99016989D01*
X106410988Y-99060279D01*
X106339616Y-99109138D01*
X106272299Y-99163273D01*
X106209326Y-99222393D01*
X106150985Y-99286206D01*
X106097563Y-99354421D01*
X106049348Y-99426747D01*
X106006628Y-99502891D01*
X105969691Y-99582562D01*
X105938824Y-99665468D01*
X105914315Y-99751318D01*
X105896453Y-99839820D01*
X105885524Y-99930682D01*
X105881818Y-100023614D01*
X105322721Y-100023614D01*
X105328281Y-99884216D01*
X105344674Y-99747921D01*
X105371468Y-99615168D01*
X105408230Y-99486393D01*
X105454531Y-99362033D01*
X105509937Y-99242527D01*
X105574017Y-99128312D01*
X105646340Y-99019824D01*
X105726473Y-98917502D01*
X105813985Y-98821782D01*
X105908445Y-98733103D01*
X106009421Y-98651901D01*
X106116480Y-98578615D01*
X106229192Y-98513680D01*
X106347125Y-98457536D01*
X106469846Y-98410619D01*
X106596925Y-98373366D01*
X106727929Y-98346216D01*
X106862428Y-98329605D01*
X106999988Y-98323970D01*
X107137549Y-98329605D01*
G36*
X107137549Y-98329605D02*
G01*
X107272048Y-98346216D01*
X107403053Y-98373366D01*
X107530133Y-98410619D01*
X107652855Y-98457536D01*
X107770789Y-98513680D01*
X107883503Y-98578615D01*
X107990564Y-98651901D01*
X108091541Y-98733103D01*
X108186002Y-98821782D01*
X108273517Y-98917502D01*
X108353652Y-99019824D01*
X108425976Y-99128312D01*
X108490057Y-99242527D01*
X108545465Y-99362033D01*
X108591766Y-99486393D01*
X108628530Y-99615168D01*
X108655324Y-99747921D01*
X108671718Y-99884216D01*
X108677278Y-100023614D01*
X108671718Y-100163009D01*
X108655324Y-100299301D01*
X108628530Y-100432053D01*
X108591766Y-100560826D01*
X108545465Y-100685184D01*
X108490057Y-100804689D01*
X108425976Y-100918903D01*
X108353652Y-101027390D01*
X108273517Y-101129711D01*
X108186002Y-101225430D01*
X108091541Y-101314108D01*
X107990564Y-101395310D01*
X107883503Y-101468596D01*
X107770789Y-101533530D01*
X107652855Y-101589674D01*
X107530133Y-101636591D01*
X107403053Y-101673844D01*
X107272048Y-101700994D01*
X107137549Y-101717605D01*
X106999988Y-101723239D01*
X106862428Y-101717605D01*
X106727929Y-101700994D01*
X106596925Y-101673844D01*
X106469846Y-101636591D01*
X106347125Y-101589674D01*
X106229192Y-101533530D01*
X106116480Y-101468596D01*
X106009421Y-101395310D01*
X105908445Y-101314108D01*
X105813985Y-101225430D01*
X105726473Y-101129711D01*
X105646340Y-101027390D01*
X105574017Y-100918903D01*
X105509937Y-100804689D01*
X105454531Y-100685184D01*
X105408230Y-100560826D01*
X105371468Y-100432053D01*
X105344674Y-100299301D01*
X105328281Y-100163009D01*
X105322721Y-100023614D01*
X105881818Y-100023614D01*
X105885524Y-100116542D01*
X105896453Y-100207402D01*
X105914315Y-100295902D01*
X105938824Y-100381750D01*
X105969691Y-100464654D01*
X106006628Y-100544324D01*
X106049348Y-100620467D01*
X106097563Y-100692791D01*
X106150985Y-100761006D01*
X106209326Y-100824819D01*
X106272299Y-100883939D01*
X106339616Y-100938073D01*
X106410988Y-100986932D01*
X106486129Y-101030222D01*
X106564750Y-101067652D01*
X106646564Y-101098931D01*
X106731282Y-101123766D01*
X106818618Y-101141867D01*
X106908282Y-101152941D01*
X106999988Y-101156698D01*
X107091697Y-101152941D01*
X107181365Y-101141867D01*
X107268703Y-101123766D01*
X107353424Y-101098931D01*
X107435239Y-101067652D01*
X107513862Y-101030222D01*
X107589004Y-100986932D01*
X107660378Y-100938073D01*
X107727696Y-100883939D01*
X107790670Y-100824819D01*
X107849012Y-100761006D01*
X107902435Y-100692791D01*
X107950650Y-100620467D01*
X107993371Y-100544324D01*
X108030308Y-100464654D01*
X108061175Y-100381750D01*
X108085684Y-100295902D01*
X108103546Y-100207402D01*
X108114475Y-100116542D01*
X108118181Y-100023614D01*
X108114475Y-99930682D01*
X108103546Y-99839820D01*
X108085684Y-99751318D01*
X108061175Y-99665468D01*
X108030308Y-99582562D01*
X107993371Y-99502891D01*
X107950650Y-99426747D01*
X107902435Y-99354421D01*
X107849012Y-99286206D01*
X107790670Y-99222393D01*
X107727696Y-99163273D01*
X107660378Y-99109138D01*
X107589004Y-99060279D01*
X107513862Y-99016989D01*
X107435239Y-98979559D01*
X107353424Y-98948281D01*
X107268703Y-98923445D01*
X107181365Y-98905345D01*
X107091697Y-98894271D01*
X106999988Y-98890514D01*
X106908282Y-98894271D01*
X106818618Y-98905345D01*
X106731282Y-98923445D01*
X106646564Y-98948281D01*
X106564750Y-98979559D01*
X106486129Y-99016989D01*
X106410988Y-99060279D01*
X106339616Y-99109138D01*
X106272299Y-99163273D01*
X106209326Y-99222393D01*
X106150985Y-99286206D01*
X106097563Y-99354421D01*
X106049348Y-99426747D01*
X106006628Y-99502891D01*
X105969691Y-99582562D01*
X105938824Y-99665468D01*
X105914315Y-99751318D01*
X105896453Y-99839820D01*
X105885524Y-99930682D01*
X105881818Y-100023614D01*
X105322721Y-100023614D01*
X105328281Y-99884216D01*
X105344674Y-99747921D01*
X105371468Y-99615168D01*
X105408230Y-99486393D01*
X105454531Y-99362033D01*
X105509937Y-99242527D01*
X105574017Y-99128312D01*
X105646340Y-99019824D01*
X105726473Y-98917502D01*
X105813985Y-98821782D01*
X105908445Y-98733103D01*
X106009421Y-98651901D01*
X106116480Y-98578615D01*
X106229192Y-98513680D01*
X106347125Y-98457536D01*
X106469846Y-98410619D01*
X106596925Y-98373366D01*
X106727929Y-98346216D01*
X106862428Y-98329605D01*
X106999988Y-98323970D01*
X107137549Y-98329605D01*
G37*
D11*
X109990475Y-93361775D02*
X109990475Y-92561775D01*
X109990475Y-92561775D02*
X109685713Y-92561775D01*
X109685713Y-92561775D02*
X109609523Y-92599870D01*
X109609523Y-92599870D02*
X109571428Y-92637965D01*
X109571428Y-92637965D02*
X109533332Y-92714156D01*
X109533332Y-92714156D02*
X109533332Y-92828441D01*
X109533332Y-92828441D02*
X109571428Y-92904632D01*
X109571428Y-92904632D02*
X109609523Y-92942727D01*
X109609523Y-92942727D02*
X109685713Y-92980822D01*
X109685713Y-92980822D02*
X109990475Y-92980822D01*
X108733332Y-93361775D02*
X108999999Y-92980822D01*
X109190475Y-93361775D02*
X109190475Y-92561775D01*
X109190475Y-92561775D02*
X108885713Y-92561775D01*
X108885713Y-92561775D02*
X108809523Y-92599870D01*
X108809523Y-92599870D02*
X108771428Y-92637965D01*
X108771428Y-92637965D02*
X108733332Y-92714156D01*
X108733332Y-92714156D02*
X108733332Y-92828441D01*
X108733332Y-92828441D02*
X108771428Y-92904632D01*
X108771428Y-92904632D02*
X108809523Y-92942727D01*
X108809523Y-92942727D02*
X108885713Y-92980822D01*
X108885713Y-92980822D02*
X109190475Y-92980822D01*
X108238094Y-92561775D02*
X108085713Y-92561775D01*
X108085713Y-92561775D02*
X108009523Y-92599870D01*
X108009523Y-92599870D02*
X107933332Y-92676060D01*
X107933332Y-92676060D02*
X107895237Y-92828441D01*
X107895237Y-92828441D02*
X107895237Y-93095108D01*
X107895237Y-93095108D02*
X107933332Y-93247489D01*
X107933332Y-93247489D02*
X108009523Y-93323680D01*
X108009523Y-93323680D02*
X108085713Y-93361775D01*
X108085713Y-93361775D02*
X108238094Y-93361775D01*
X108238094Y-93361775D02*
X108314285Y-93323680D01*
X108314285Y-93323680D02*
X108390475Y-93247489D01*
X108390475Y-93247489D02*
X108428571Y-93095108D01*
X108428571Y-93095108D02*
X108428571Y-92828441D01*
X108428571Y-92828441D02*
X108390475Y-92676060D01*
X108390475Y-92676060D02*
X108314285Y-92599870D01*
X108314285Y-92599870D02*
X108238094Y-92561775D01*
X107666666Y-92561775D02*
X107209523Y-92561775D01*
X107438095Y-93361775D02*
X107438095Y-92561775D01*
X106790475Y-92561775D02*
X106638094Y-92561775D01*
X106638094Y-92561775D02*
X106561904Y-92599870D01*
X106561904Y-92599870D02*
X106485713Y-92676060D01*
X106485713Y-92676060D02*
X106447618Y-92828441D01*
X106447618Y-92828441D02*
X106447618Y-93095108D01*
X106447618Y-93095108D02*
X106485713Y-93247489D01*
X106485713Y-93247489D02*
X106561904Y-93323680D01*
X106561904Y-93323680D02*
X106638094Y-93361775D01*
X106638094Y-93361775D02*
X106790475Y-93361775D01*
X106790475Y-93361775D02*
X106866666Y-93323680D01*
X106866666Y-93323680D02*
X106942856Y-93247489D01*
X106942856Y-93247489D02*
X106980952Y-93095108D01*
X106980952Y-93095108D02*
X106980952Y-92828441D01*
X106980952Y-92828441D02*
X106942856Y-92676060D01*
X106942856Y-92676060D02*
X106866666Y-92599870D01*
X106866666Y-92599870D02*
X106790475Y-92561775D01*
X105685714Y-92599870D02*
X105761904Y-92561775D01*
X105761904Y-92561775D02*
X105876190Y-92561775D01*
X105876190Y-92561775D02*
X105990476Y-92599870D01*
X105990476Y-92599870D02*
X106066666Y-92676060D01*
X106066666Y-92676060D02*
X106104761Y-92752251D01*
X106104761Y-92752251D02*
X106142857Y-92904632D01*
X106142857Y-92904632D02*
X106142857Y-93018918D01*
X106142857Y-93018918D02*
X106104761Y-93171299D01*
X106104761Y-93171299D02*
X106066666Y-93247489D01*
X106066666Y-93247489D02*
X105990476Y-93323680D01*
X105990476Y-93323680D02*
X105876190Y-93361775D01*
X105876190Y-93361775D02*
X105799999Y-93361775D01*
X105799999Y-93361775D02*
X105685714Y-93323680D01*
X105685714Y-93323680D02*
X105647618Y-93285584D01*
X105647618Y-93285584D02*
X105647618Y-93018918D01*
X105647618Y-93018918D02*
X105799999Y-93018918D01*
X105152380Y-92561775D02*
X104999999Y-92561775D01*
X104999999Y-92561775D02*
X104923809Y-92599870D01*
X104923809Y-92599870D02*
X104847618Y-92676060D01*
X104847618Y-92676060D02*
X104809523Y-92828441D01*
X104809523Y-92828441D02*
X104809523Y-93095108D01*
X104809523Y-93095108D02*
X104847618Y-93247489D01*
X104847618Y-93247489D02*
X104923809Y-93323680D01*
X104923809Y-93323680D02*
X104999999Y-93361775D01*
X104999999Y-93361775D02*
X105152380Y-93361775D01*
X105152380Y-93361775D02*
X105228571Y-93323680D01*
X105228571Y-93323680D02*
X105304761Y-93247489D01*
X105304761Y-93247489D02*
X105342857Y-93095108D01*
X105342857Y-93095108D02*
X105342857Y-92828441D01*
X105342857Y-92828441D02*
X105304761Y-92676060D01*
X105304761Y-92676060D02*
X105228571Y-92599870D01*
X105228571Y-92599870D02*
X105152380Y-92561775D01*
X104466666Y-93361775D02*
X104466666Y-92561775D01*
X104466666Y-92561775D02*
X104009523Y-93361775D01*
X104009523Y-93361775D02*
X104009523Y-92561775D01*
D12*
X110845238Y-107343911D02*
X110926190Y-107384387D01*
X110926190Y-107384387D02*
X111088095Y-107384387D01*
X111088095Y-107384387D02*
X111169047Y-107343911D01*
X111169047Y-107343911D02*
X111209524Y-107303434D01*
X111209524Y-107303434D02*
X111250000Y-107222482D01*
X111250000Y-107222482D02*
X111250000Y-106979625D01*
X111250000Y-106979625D02*
X111209524Y-106898672D01*
X111209524Y-106898672D02*
X111169047Y-106858196D01*
X111169047Y-106858196D02*
X111088095Y-106817720D01*
X111088095Y-106817720D02*
X110926190Y-106817720D01*
X110926190Y-106817720D02*
X110845238Y-106858196D01*
X110359524Y-107384387D02*
X110440476Y-107343911D01*
X110440476Y-107343911D02*
X110480953Y-107303434D01*
X110480953Y-107303434D02*
X110521429Y-107222482D01*
X110521429Y-107222482D02*
X110521429Y-106979625D01*
X110521429Y-106979625D02*
X110480953Y-106898672D01*
X110480953Y-106898672D02*
X110440476Y-106858196D01*
X110440476Y-106858196D02*
X110359524Y-106817720D01*
X110359524Y-106817720D02*
X110238095Y-106817720D01*
X110238095Y-106817720D02*
X110157143Y-106858196D01*
X110157143Y-106858196D02*
X110116667Y-106898672D01*
X110116667Y-106898672D02*
X110076191Y-106979625D01*
X110076191Y-106979625D02*
X110076191Y-107222482D01*
X110076191Y-107222482D02*
X110116667Y-107303434D01*
X110116667Y-107303434D02*
X110157143Y-107343911D01*
X110157143Y-107343911D02*
X110238095Y-107384387D01*
X110238095Y-107384387D02*
X110359524Y-107384387D01*
X109347619Y-107384387D02*
X109347619Y-106534387D01*
X109347619Y-107343911D02*
X109428571Y-107384387D01*
X109428571Y-107384387D02*
X109590476Y-107384387D01*
X109590476Y-107384387D02*
X109671428Y-107343911D01*
X109671428Y-107343911D02*
X109711905Y-107303434D01*
X109711905Y-107303434D02*
X109752381Y-107222482D01*
X109752381Y-107222482D02*
X109752381Y-106979625D01*
X109752381Y-106979625D02*
X109711905Y-106898672D01*
X109711905Y-106898672D02*
X109671428Y-106858196D01*
X109671428Y-106858196D02*
X109590476Y-106817720D01*
X109590476Y-106817720D02*
X109428571Y-106817720D01*
X109428571Y-106817720D02*
X109347619Y-106858196D01*
X108619047Y-107343911D02*
X108699999Y-107384387D01*
X108699999Y-107384387D02*
X108861904Y-107384387D01*
X108861904Y-107384387D02*
X108942857Y-107343911D01*
X108942857Y-107343911D02*
X108983333Y-107262958D01*
X108983333Y-107262958D02*
X108983333Y-106939149D01*
X108983333Y-106939149D02*
X108942857Y-106858196D01*
X108942857Y-106858196D02*
X108861904Y-106817720D01*
X108861904Y-106817720D02*
X108699999Y-106817720D01*
X108699999Y-106817720D02*
X108619047Y-106858196D01*
X108619047Y-106858196D02*
X108578571Y-106939149D01*
X108578571Y-106939149D02*
X108578571Y-107020101D01*
X108578571Y-107020101D02*
X108983333Y-107101053D01*
X108214286Y-107384387D02*
X108214286Y-106817720D01*
X108214286Y-106898672D02*
X108173809Y-106858196D01*
X108173809Y-106858196D02*
X108092857Y-106817720D01*
X108092857Y-106817720D02*
X107971428Y-106817720D01*
X107971428Y-106817720D02*
X107890476Y-106858196D01*
X107890476Y-106858196D02*
X107850000Y-106939149D01*
X107850000Y-106939149D02*
X107850000Y-107384387D01*
X107850000Y-106939149D02*
X107809524Y-106858196D01*
X107809524Y-106858196D02*
X107728571Y-106817720D01*
X107728571Y-106817720D02*
X107607143Y-106817720D01*
X107607143Y-106817720D02*
X107526190Y-106858196D01*
X107526190Y-106858196D02*
X107485714Y-106939149D01*
X107485714Y-106939149D02*
X107485714Y-107384387D01*
X107161905Y-106817720D02*
X106959524Y-107384387D01*
X106757143Y-106817720D02*
X106959524Y-107384387D01*
X106959524Y-107384387D02*
X107040476Y-107586768D01*
X107040476Y-107586768D02*
X107080953Y-107627244D01*
X107080953Y-107627244D02*
X107161905Y-107667720D01*
X106433334Y-107384387D02*
X106433334Y-106817720D01*
X106433334Y-106979625D02*
X106392857Y-106898672D01*
X106392857Y-106898672D02*
X106352381Y-106858196D01*
X106352381Y-106858196D02*
X106271429Y-106817720D01*
X106271429Y-106817720D02*
X106190476Y-106817720D01*
X105907144Y-107384387D02*
X105907144Y-106817720D01*
X105907144Y-106534387D02*
X105947620Y-106574863D01*
X105947620Y-106574863D02*
X105907144Y-106615339D01*
X105907144Y-106615339D02*
X105866667Y-106574863D01*
X105866667Y-106574863D02*
X105907144Y-106534387D01*
X105907144Y-106534387D02*
X105907144Y-106615339D01*
X105138096Y-107384387D02*
X105138096Y-106939149D01*
X105138096Y-106939149D02*
X105178572Y-106858196D01*
X105178572Y-106858196D02*
X105259524Y-106817720D01*
X105259524Y-106817720D02*
X105421429Y-106817720D01*
X105421429Y-106817720D02*
X105502382Y-106858196D01*
X105138096Y-107343911D02*
X105219048Y-107384387D01*
X105219048Y-107384387D02*
X105421429Y-107384387D01*
X105421429Y-107384387D02*
X105502382Y-107343911D01*
X105502382Y-107343911D02*
X105542858Y-107262958D01*
X105542858Y-107262958D02*
X105542858Y-107182006D01*
X105542858Y-107182006D02*
X105502382Y-107101053D01*
X105502382Y-107101053D02*
X105421429Y-107060577D01*
X105421429Y-107060577D02*
X105219048Y-107060577D01*
X105219048Y-107060577D02*
X105138096Y-107020101D01*
X104369048Y-107384387D02*
X104369048Y-106534387D01*
X104369048Y-107343911D02*
X104450000Y-107384387D01*
X104450000Y-107384387D02*
X104611905Y-107384387D01*
X104611905Y-107384387D02*
X104692857Y-107343911D01*
X104692857Y-107343911D02*
X104733334Y-107303434D01*
X104733334Y-107303434D02*
X104773810Y-107222482D01*
X104773810Y-107222482D02*
X104773810Y-106979625D01*
X104773810Y-106979625D02*
X104733334Y-106898672D01*
X104733334Y-106898672D02*
X104692857Y-106858196D01*
X104692857Y-106858196D02*
X104611905Y-106817720D01*
X104611905Y-106817720D02*
X104450000Y-106817720D01*
X104450000Y-106817720D02*
X104369048Y-106858196D01*
X103964286Y-107303434D02*
X103923809Y-107343911D01*
X103923809Y-107343911D02*
X103964286Y-107384387D01*
X103964286Y-107384387D02*
X104004762Y-107343911D01*
X104004762Y-107343911D02*
X103964286Y-107303434D01*
X103964286Y-107303434D02*
X103964286Y-107384387D01*
X103559524Y-107384387D02*
X103559524Y-106817720D01*
X103559524Y-106534387D02*
X103600000Y-106574863D01*
X103600000Y-106574863D02*
X103559524Y-106615339D01*
X103559524Y-106615339D02*
X103519047Y-106574863D01*
X103519047Y-106574863D02*
X103559524Y-106534387D01*
X103559524Y-106534387D02*
X103559524Y-106615339D01*
X103033333Y-107384387D02*
X103114285Y-107343911D01*
X103114285Y-107343911D02*
X103154762Y-107303434D01*
X103154762Y-107303434D02*
X103195238Y-107222482D01*
X103195238Y-107222482D02*
X103195238Y-106979625D01*
X103195238Y-106979625D02*
X103154762Y-106898672D01*
X103154762Y-106898672D02*
X103114285Y-106858196D01*
X103114285Y-106858196D02*
X103033333Y-106817720D01*
X103033333Y-106817720D02*
X102911904Y-106817720D01*
X102911904Y-106817720D02*
X102830952Y-106858196D01*
X102830952Y-106858196D02*
X102790476Y-106898672D01*
X102790476Y-106898672D02*
X102750000Y-106979625D01*
X102750000Y-106979625D02*
X102750000Y-107222482D01*
X102750000Y-107222482D02*
X102790476Y-107303434D01*
X102790476Y-107303434D02*
X102830952Y-107343911D01*
X102830952Y-107343911D02*
X102911904Y-107384387D01*
X102911904Y-107384387D02*
X103033333Y-107384387D01*
%LPC*%
D13*
%TO.C,J1*%
X100500000Y-103400000D03*
D14*
X100900000Y-102600000D03*
X100900000Y-101800000D03*
X100900000Y-101000000D03*
X100900000Y-100200000D03*
X100900000Y-99400000D03*
X100900000Y-98600000D03*
X100900000Y-97800000D03*
D13*
X100500000Y-97000000D03*
X100500000Y-96200000D03*
%TD*%
D15*
%TO.C,PROTO1*%
X121690000Y-83470000D03*
X124230000Y-83470000D03*
X126770000Y-83470000D03*
X129310000Y-83470000D03*
X131850000Y-83470000D03*
X134390000Y-83470000D03*
X136930000Y-83470000D03*
X139470000Y-83470000D03*
X142010000Y-83470000D03*
X144550000Y-83470000D03*
D16*
X121690000Y-86010000D03*
X124230000Y-86010000D03*
X126770000Y-86010000D03*
X129310000Y-86010000D03*
X131850000Y-86010000D03*
X134390000Y-86010000D03*
X136930000Y-86010000D03*
X139470000Y-86010000D03*
X142010000Y-86010000D03*
X144550000Y-86010000D03*
X126770000Y-88550000D03*
X129310000Y-88550000D03*
X131850000Y-88550000D03*
X134390000Y-88550000D03*
X136930000Y-88550000D03*
X139470000Y-88550000D03*
X142010000Y-88550000D03*
X144550000Y-88550000D03*
X126770000Y-91090000D03*
X129310000Y-91090000D03*
X131850000Y-91090000D03*
X134390000Y-91090000D03*
X136930000Y-91090000D03*
X139470000Y-91090000D03*
X142010000Y-91090000D03*
X144550000Y-91090000D03*
X126770000Y-93630000D03*
X129310000Y-93630000D03*
X131850000Y-93630000D03*
X134390000Y-93630000D03*
X136930000Y-93630000D03*
X139470000Y-93630000D03*
X142010000Y-93630000D03*
X144550000Y-93630000D03*
X126770000Y-96170000D03*
X129310000Y-96170000D03*
X131850000Y-96170000D03*
X134390000Y-96170000D03*
X136930000Y-96170000D03*
X139470000Y-96170000D03*
X142010000Y-96170000D03*
X144550000Y-96170000D03*
X126770000Y-98710000D03*
X129310000Y-98710000D03*
X131850000Y-98710000D03*
X134390000Y-98710000D03*
X136930000Y-98710000D03*
X139470000Y-98710000D03*
X142010000Y-98710000D03*
X144550000Y-98710000D03*
X126770000Y-101250000D03*
X129310000Y-101250000D03*
X131850000Y-101250000D03*
X134390000Y-101250000D03*
X136930000Y-101250000D03*
X139470000Y-101250000D03*
X142010000Y-101250000D03*
X144550000Y-101250000D03*
X126770000Y-103789999D03*
X129310000Y-103789999D03*
X131850000Y-103789999D03*
X134390000Y-103789999D03*
X136930000Y-103789999D03*
X139470000Y-103789999D03*
X142010000Y-103789999D03*
X144550000Y-103789999D03*
X126770000Y-106330000D03*
X129310000Y-106330000D03*
X131850000Y-106330000D03*
X134390000Y-106330000D03*
X136930000Y-106330000D03*
X139470000Y-106330000D03*
X142010000Y-106330000D03*
X144550000Y-106330000D03*
X126770000Y-108870000D03*
X129310000Y-108870000D03*
X131850000Y-108870000D03*
X134390000Y-108870000D03*
X136930000Y-108870000D03*
X139470000Y-108870000D03*
X142010000Y-108870000D03*
X144550000Y-108870000D03*
X126770000Y-111410000D03*
X129310000Y-111410000D03*
X131850000Y-111410000D03*
X134390000Y-111410000D03*
X136930000Y-111410000D03*
X139470000Y-111410000D03*
X142010000Y-111410000D03*
X144550000Y-111410000D03*
X121690000Y-113950000D03*
X124230000Y-113950000D03*
X126770000Y-113950000D03*
X129310000Y-113950000D03*
X131850000Y-113950000D03*
X134390000Y-113950000D03*
X136930000Y-113950000D03*
X139470000Y-113950000D03*
X142010000Y-113950000D03*
X144550000Y-113950000D03*
D15*
X121690000Y-116490000D03*
X124230000Y-116490000D03*
X126770000Y-116490000D03*
X129310000Y-116490000D03*
X131850000Y-116490000D03*
X134390000Y-116490000D03*
X136930000Y-116490000D03*
X139470000Y-116490000D03*
X142010000Y-116490000D03*
X144550000Y-116490000D03*
%TD*%
D17*
%TO.C,H2*%
X110850000Y-87500000D03*
X111333274Y-86333274D03*
X111333274Y-88666726D03*
X112500000Y-85850000D03*
D18*
X112500000Y-87500000D03*
D17*
X112500000Y-89150000D03*
X113666726Y-86333274D03*
X113666726Y-88666726D03*
X114150000Y-87500000D03*
%TD*%
D19*
%TO.C,J2*%
X124230000Y-111410000D03*
D20*
X121690000Y-111410000D03*
X124230000Y-108870000D03*
X121690000Y-108870000D03*
X124230000Y-106330000D03*
X121690000Y-106330000D03*
X124230000Y-103790000D03*
X121690000Y-103790000D03*
X124230000Y-101250000D03*
X121690000Y-101250000D03*
X124230000Y-98710000D03*
X121690000Y-98710000D03*
X124230000Y-96170000D03*
X121690000Y-96170000D03*
X124230000Y-93630000D03*
X121690000Y-93630000D03*
X124230000Y-91090000D03*
X121690000Y-91090000D03*
X124230000Y-88550000D03*
X121690000Y-88550000D03*
%TD*%
D17*
%TO.C,H1*%
X110850000Y-112500000D03*
X111333274Y-111333274D03*
X111333274Y-113666726D03*
X112500000Y-110850000D03*
D18*
X112500000Y-112500000D03*
D17*
X112500000Y-114150000D03*
X113666726Y-111333274D03*
X113666726Y-113666726D03*
X114150000Y-112500000D03*
%TD*%
%LPD*%
M02*
