%TF.GenerationSoftware,KiCad,Pcbnew,9.0.8+dfsg-1*%
%TF.CreationDate,2026-06-22T16:15:06+02:00*%
%TF.ProjectId,codemyriad-protogon,636f6465-6d79-4726-9961-642d70726f74,rev?*%
%TF.SameCoordinates,Original*%
%TF.FileFunction,Legend,Top*%
%TF.FilePolarity,Positive*%
%FSLAX46Y46*%
G04 Gerber Fmt 4.6, Leading zero omitted, Abs format (unit mm)*
G04 Created by KiCad (PCBNEW 9.0.8+dfsg-1) date 2026-06-22 16:15:06*
%MOMM*%
%LPD*%
G01*
G04 APERTURE LIST*
G04 Aperture macros list*
%AMRoundRect*
0 Rectangle with rounded corners*
0 $1 Rounding radius*
0 $2 $3 $4 $5 $6 $7 $8 $9 X,Y pos of 4 corners*
0 Add a 4 corners polygon primitive as box body*
4,1,4,$2,$3,$4,$5,$6,$7,$8,$9,$2,$3,0*
0 Add four circle primitives for the rounded corners*
1,1,$1+$1,$2,$3*
1,1,$1+$1,$4,$5*
1,1,$1+$1,$6,$7*
1,1,$1+$1,$8,$9*
0 Add four rect primitives between the rounded corners*
20,1,$1+$1,$2,$3,$4,$5,0*
20,1,$1+$1,$4,$5,$6,$7,0*
20,1,$1+$1,$6,$7,$8,$9,0*
20,1,$1+$1,$8,$9,$2,$3,0*%
G04 Aperture macros list end*
%ADD10C,0.120000*%
%ADD11C,0.150000*%
%ADD12C,0.160000*%
%ADD13C,0.170000*%
%ADD14C,0.180000*%
%ADD15RoundRect,0.150000X1.600000X0.150000X-1.600000X0.150000X-1.600000X-0.150000X1.600000X-0.150000X0*%
%ADD16RoundRect,0.150000X1.200000X0.150000X-1.200000X0.150000X-1.200000X-0.150000X1.200000X-0.150000X0*%
%ADD17O,1.650000X1.650000*%
%ADD18C,1.650000*%
%ADD19C,0.700000*%
%ADD20C,4.400000*%
%ADD21R,1.700000X1.700000*%
%ADD22O,1.700000X1.700000*%
G04 APERTURE END LIST*
D10*
X105083003Y-100306874D02*
X104244367Y-100306874D01*
X104244367Y-99740332D01*
X105083003Y-99740332D01*
X105083003Y-100306874D01*
G36*
X105083003Y-100306874D02*
G01*
X104244367Y-100306874D01*
X104244367Y-99740332D01*
X105083003Y-99740332D01*
X105083003Y-100306874D01*
G37*
X107275377Y-102856323D02*
X106716280Y-102856323D01*
X106716280Y-102006522D01*
X107275377Y-102006522D01*
X107275377Y-102856323D01*
G36*
X107275377Y-102856323D02*
G01*
X106716280Y-102856323D01*
X106716280Y-102006522D01*
X107275377Y-102006522D01*
X107275377Y-102856323D01*
G37*
X107275421Y-98040697D02*
X106716325Y-98040697D01*
X106716325Y-97190878D01*
X107275421Y-97190878D01*
X107275421Y-98040697D01*
G36*
X107275421Y-98040697D02*
G01*
X106716325Y-98040697D01*
X106716325Y-97190878D01*
X107275421Y-97190878D01*
X107275421Y-98040697D01*
G37*
X109781903Y-100306874D02*
X108943270Y-100306874D01*
X108943270Y-99740332D01*
X109781903Y-99740332D01*
X109781903Y-100306874D01*
G36*
X109781903Y-100306874D02*
G01*
X108943270Y-100306874D01*
X108943270Y-99740332D01*
X109781903Y-99740332D01*
X109781903Y-100306874D01*
G37*
X105178613Y-97148123D02*
X103555141Y-100000000D01*
X105158587Y-102816719D01*
X104667216Y-103104419D01*
X102900000Y-100000000D01*
X104687231Y-96860394D01*
X105178613Y-97148123D01*
G36*
X105178613Y-97148123D02*
G01*
X103555141Y-100000000D01*
X105158587Y-102816719D01*
X104667216Y-103104419D01*
X102900000Y-100000000D01*
X104687231Y-96860394D01*
X105178613Y-97148123D01*
G37*
X111100000Y-100000000D02*
X109312779Y-103139605D01*
X108821431Y-102851905D01*
X110444831Y-100000000D01*
X108821431Y-97148136D01*
X109312779Y-96860406D01*
X111100000Y-100000000D01*
G36*
X111100000Y-100000000D02*
G01*
X109312779Y-103139605D01*
X108821431Y-102851905D01*
X110444831Y-100000000D01*
X108821431Y-97148136D01*
X109312779Y-96860406D01*
X111100000Y-100000000D01*
G37*
X107792044Y-99976408D02*
X107792044Y-100259667D01*
X107708508Y-100259667D01*
X107352028Y-100259667D01*
X106648016Y-100259667D01*
X106291536Y-100259667D01*
X106207955Y-100259667D01*
X106207955Y-99976408D01*
X106207955Y-99693125D01*
X106291536Y-99693125D01*
X106648016Y-99693125D01*
X107352028Y-99693125D01*
X107708508Y-99693125D01*
X107792044Y-99693125D01*
X107792044Y-99976408D01*
G36*
X107792044Y-99976408D02*
G01*
X107792044Y-100259667D01*
X107708508Y-100259667D01*
X107352028Y-100259667D01*
X106648016Y-100259667D01*
X106291536Y-100259667D01*
X106207955Y-100259667D01*
X106207955Y-99976408D01*
X106207955Y-99693125D01*
X106291536Y-99693125D01*
X106648016Y-99693125D01*
X107352028Y-99693125D01*
X107708508Y-99693125D01*
X107792044Y-99693125D01*
X107792044Y-99976408D01*
G37*
X107137549Y-98329605D02*
X107272048Y-98346216D01*
X107403053Y-98373366D01*
X107530133Y-98410619D01*
X107652855Y-98457536D01*
X107770789Y-98513680D01*
X107883503Y-98578615D01*
X107990564Y-98651901D01*
X108091541Y-98733103D01*
X108186002Y-98821782D01*
X108273517Y-98917502D01*
X108353652Y-99019824D01*
X108425976Y-99128312D01*
X108490057Y-99242527D01*
X108545465Y-99362033D01*
X108591766Y-99486393D01*
X108628530Y-99615168D01*
X108655324Y-99747921D01*
X108671718Y-99884216D01*
X108677278Y-100023614D01*
X108671718Y-100163009D01*
X108655324Y-100299301D01*
X108628530Y-100432053D01*
X108591766Y-100560826D01*
X108545465Y-100685184D01*
X108490057Y-100804689D01*
X108425976Y-100918903D01*
X108353652Y-101027390D01*
X108273517Y-101129711D01*
X108186002Y-101225430D01*
X108091541Y-101314108D01*
X107990564Y-101395310D01*
X107883503Y-101468596D01*
X107770789Y-101533530D01*
X107652855Y-101589674D01*
X107530133Y-101636591D01*
X107403053Y-101673844D01*
X107272048Y-101700994D01*
X107137549Y-101717605D01*
X106999988Y-101723239D01*
X106862428Y-101717605D01*
X106727929Y-101700994D01*
X106596925Y-101673844D01*
X106469846Y-101636591D01*
X106347125Y-101589674D01*
X106229192Y-101533530D01*
X106116480Y-101468596D01*
X106009421Y-101395310D01*
X105908445Y-101314108D01*
X105813985Y-101225430D01*
X105726473Y-101129711D01*
X105646340Y-101027390D01*
X105574017Y-100918903D01*
X105509937Y-100804689D01*
X105454531Y-100685184D01*
X105408230Y-100560826D01*
X105371468Y-100432053D01*
X105344674Y-100299301D01*
X105328281Y-100163009D01*
X105322721Y-100023614D01*
X105881818Y-100023614D01*
X105885524Y-100116542D01*
X105896453Y-100207402D01*
X105914315Y-100295902D01*
X105938824Y-100381750D01*
X105969691Y-100464654D01*
X106006628Y-100544324D01*
X106049348Y-100620467D01*
X106097563Y-100692791D01*
X106150985Y-100761006D01*
X106209326Y-100824819D01*
X106272299Y-100883939D01*
X106339616Y-100938073D01*
X106410988Y-100986932D01*
X106486129Y-101030222D01*
X106564750Y-101067652D01*
X106646564Y-101098931D01*
X106731282Y-101123766D01*
X106818618Y-101141867D01*
X106908282Y-101152941D01*
X106999988Y-101156698D01*
X107091697Y-101152941D01*
X107181365Y-101141867D01*
X107268703Y-101123766D01*
X107353424Y-101098931D01*
X107435239Y-101067652D01*
X107513862Y-101030222D01*
X107589004Y-100986932D01*
X107660378Y-100938073D01*
X107727696Y-100883939D01*
X107790670Y-100824819D01*
X107849012Y-100761006D01*
X107902435Y-100692791D01*
X107950650Y-100620467D01*
X107993371Y-100544324D01*
X108030308Y-100464654D01*
X108061175Y-100381750D01*
X108085684Y-100295902D01*
X108103546Y-100207402D01*
X108114475Y-100116542D01*
X108118181Y-100023614D01*
X108114475Y-99930682D01*
X108103546Y-99839820D01*
X108085684Y-99751318D01*
X108061175Y-99665468D01*
X108030308Y-99582562D01*
X107993371Y-99502891D01*
X107950650Y-99426747D01*
X107902435Y-99354421D01*
X107849012Y-99286206D01*
X107790670Y-99222393D01*
X107727696Y-99163273D01*
X107660378Y-99109138D01*
X107589004Y-99060279D01*
X107513862Y-99016989D01*
X107435239Y-98979559D01*
X107353424Y-98948281D01*
X107268703Y-98923445D01*
X107181365Y-98905345D01*
X107091697Y-98894271D01*
X106999988Y-98890514D01*
X106908282Y-98894271D01*
X106818618Y-98905345D01*
X106731282Y-98923445D01*
X106646564Y-98948281D01*
X106564750Y-98979559D01*
X106486129Y-99016989D01*
X106410988Y-99060279D01*
X106339616Y-99109138D01*
X106272299Y-99163273D01*
X106209326Y-99222393D01*
X106150985Y-99286206D01*
X106097563Y-99354421D01*
X106049348Y-99426747D01*
X106006628Y-99502891D01*
X105969691Y-99582562D01*
X105938824Y-99665468D01*
X105914315Y-99751318D01*
X105896453Y-99839820D01*
X105885524Y-99930682D01*
X105881818Y-100023614D01*
X105322721Y-100023614D01*
X105328281Y-99884216D01*
X105344674Y-99747921D01*
X105371468Y-99615168D01*
X105408230Y-99486393D01*
X105454531Y-99362033D01*
X105509937Y-99242527D01*
X105574017Y-99128312D01*
X105646340Y-99019824D01*
X105726473Y-98917502D01*
X105813985Y-98821782D01*
X105908445Y-98733103D01*
X106009421Y-98651901D01*
X106116480Y-98578615D01*
X106229192Y-98513680D01*
X106347125Y-98457536D01*
X106469846Y-98410619D01*
X106596925Y-98373366D01*
X106727929Y-98346216D01*
X106862428Y-98329605D01*
X106999988Y-98323970D01*
X107137549Y-98329605D01*
G36*
X107137549Y-98329605D02*
G01*
X107272048Y-98346216D01*
X107403053Y-98373366D01*
X107530133Y-98410619D01*
X107652855Y-98457536D01*
X107770789Y-98513680D01*
X107883503Y-98578615D01*
X107990564Y-98651901D01*
X108091541Y-98733103D01*
X108186002Y-98821782D01*
X108273517Y-98917502D01*
X108353652Y-99019824D01*
X108425976Y-99128312D01*
X108490057Y-99242527D01*
X108545465Y-99362033D01*
X108591766Y-99486393D01*
X108628530Y-99615168D01*
X108655324Y-99747921D01*
X108671718Y-99884216D01*
X108677278Y-100023614D01*
X108671718Y-100163009D01*
X108655324Y-100299301D01*
X108628530Y-100432053D01*
X108591766Y-100560826D01*
X108545465Y-100685184D01*
X108490057Y-100804689D01*
X108425976Y-100918903D01*
X108353652Y-101027390D01*
X108273517Y-101129711D01*
X108186002Y-101225430D01*
X108091541Y-101314108D01*
X107990564Y-101395310D01*
X107883503Y-101468596D01*
X107770789Y-101533530D01*
X107652855Y-101589674D01*
X107530133Y-101636591D01*
X107403053Y-101673844D01*
X107272048Y-101700994D01*
X107137549Y-101717605D01*
X106999988Y-101723239D01*
X106862428Y-101717605D01*
X106727929Y-101700994D01*
X106596925Y-101673844D01*
X106469846Y-101636591D01*
X106347125Y-101589674D01*
X106229192Y-101533530D01*
X106116480Y-101468596D01*
X106009421Y-101395310D01*
X105908445Y-101314108D01*
X105813985Y-101225430D01*
X105726473Y-101129711D01*
X105646340Y-101027390D01*
X105574017Y-100918903D01*
X105509937Y-100804689D01*
X105454531Y-100685184D01*
X105408230Y-100560826D01*
X105371468Y-100432053D01*
X105344674Y-100299301D01*
X105328281Y-100163009D01*
X105322721Y-100023614D01*
X105881818Y-100023614D01*
X105885524Y-100116542D01*
X105896453Y-100207402D01*
X105914315Y-100295902D01*
X105938824Y-100381750D01*
X105969691Y-100464654D01*
X106006628Y-100544324D01*
X106049348Y-100620467D01*
X106097563Y-100692791D01*
X106150985Y-100761006D01*
X106209326Y-100824819D01*
X106272299Y-100883939D01*
X106339616Y-100938073D01*
X106410988Y-100986932D01*
X106486129Y-101030222D01*
X106564750Y-101067652D01*
X106646564Y-101098931D01*
X106731282Y-101123766D01*
X106818618Y-101141867D01*
X106908282Y-101152941D01*
X106999988Y-101156698D01*
X107091697Y-101152941D01*
X107181365Y-101141867D01*
X107268703Y-101123766D01*
X107353424Y-101098931D01*
X107435239Y-101067652D01*
X107513862Y-101030222D01*
X107589004Y-100986932D01*
X107660378Y-100938073D01*
X107727696Y-100883939D01*
X107790670Y-100824819D01*
X107849012Y-100761006D01*
X107902435Y-100692791D01*
X107950650Y-100620467D01*
X107993371Y-100544324D01*
X108030308Y-100464654D01*
X108061175Y-100381750D01*
X108085684Y-100295902D01*
X108103546Y-100207402D01*
X108114475Y-100116542D01*
X108118181Y-100023614D01*
X108114475Y-99930682D01*
X108103546Y-99839820D01*
X108085684Y-99751318D01*
X108061175Y-99665468D01*
X108030308Y-99582562D01*
X107993371Y-99502891D01*
X107950650Y-99426747D01*
X107902435Y-99354421D01*
X107849012Y-99286206D01*
X107790670Y-99222393D01*
X107727696Y-99163273D01*
X107660378Y-99109138D01*
X107589004Y-99060279D01*
X107513862Y-99016989D01*
X107435239Y-98979559D01*
X107353424Y-98948281D01*
X107268703Y-98923445D01*
X107181365Y-98905345D01*
X107091697Y-98894271D01*
X106999988Y-98890514D01*
X106908282Y-98894271D01*
X106818618Y-98905345D01*
X106731282Y-98923445D01*
X106646564Y-98948281D01*
X106564750Y-98979559D01*
X106486129Y-99016989D01*
X106410988Y-99060279D01*
X106339616Y-99109138D01*
X106272299Y-99163273D01*
X106209326Y-99222393D01*
X106150985Y-99286206D01*
X106097563Y-99354421D01*
X106049348Y-99426747D01*
X106006628Y-99502891D01*
X105969691Y-99582562D01*
X105938824Y-99665468D01*
X105914315Y-99751318D01*
X105896453Y-99839820D01*
X105885524Y-99930682D01*
X105881818Y-100023614D01*
X105322721Y-100023614D01*
X105328281Y-99884216D01*
X105344674Y-99747921D01*
X105371468Y-99615168D01*
X105408230Y-99486393D01*
X105454531Y-99362033D01*
X105509937Y-99242527D01*
X105574017Y-99128312D01*
X105646340Y-99019824D01*
X105726473Y-98917502D01*
X105813985Y-98821782D01*
X105908445Y-98733103D01*
X106009421Y-98651901D01*
X106116480Y-98578615D01*
X106229192Y-98513680D01*
X106347125Y-98457536D01*
X106469846Y-98410619D01*
X106596925Y-98373366D01*
X106727929Y-98346216D01*
X106862428Y-98329605D01*
X106999988Y-98323970D01*
X107137549Y-98329605D01*
G37*
D11*
X116972744Y-88150390D02*
X116896554Y-88112295D01*
X116896554Y-88112295D02*
X116782268Y-88112295D01*
X116782268Y-88112295D02*
X116667982Y-88150390D01*
X116667982Y-88150390D02*
X116591792Y-88226580D01*
X116591792Y-88226580D02*
X116553697Y-88302771D01*
X116553697Y-88302771D02*
X116515601Y-88455152D01*
X116515601Y-88455152D02*
X116515601Y-88569438D01*
X116515601Y-88569438D02*
X116553697Y-88721819D01*
X116553697Y-88721819D02*
X116591792Y-88798009D01*
X116591792Y-88798009D02*
X116667982Y-88874200D01*
X116667982Y-88874200D02*
X116782268Y-88912295D01*
X116782268Y-88912295D02*
X116858459Y-88912295D01*
X116858459Y-88912295D02*
X116972744Y-88874200D01*
X116972744Y-88874200D02*
X117010840Y-88836104D01*
X117010840Y-88836104D02*
X117010840Y-88569438D01*
X117010840Y-88569438D02*
X116858459Y-88569438D01*
X117353697Y-88912295D02*
X117353697Y-88112295D01*
X117353697Y-88112295D02*
X117810840Y-88912295D01*
X117810840Y-88912295D02*
X117810840Y-88112295D01*
X118191792Y-88912295D02*
X118191792Y-88112295D01*
X118191792Y-88112295D02*
X118382268Y-88112295D01*
X118382268Y-88112295D02*
X118496554Y-88150390D01*
X118496554Y-88150390D02*
X118572744Y-88226580D01*
X118572744Y-88226580D02*
X118610839Y-88302771D01*
X118610839Y-88302771D02*
X118648935Y-88455152D01*
X118648935Y-88455152D02*
X118648935Y-88569438D01*
X118648935Y-88569438D02*
X118610839Y-88721819D01*
X118610839Y-88721819D02*
X118572744Y-88798009D01*
X118572744Y-88798009D02*
X118496554Y-88874200D01*
X118496554Y-88874200D02*
X118382268Y-88912295D01*
X118382268Y-88912295D02*
X118191792Y-88912295D01*
X116096554Y-91452295D02*
X116096554Y-90652295D01*
X116096554Y-91033247D02*
X116553697Y-91033247D01*
X116553697Y-91452295D02*
X116553697Y-90652295D01*
X116896553Y-91414200D02*
X117010839Y-91452295D01*
X117010839Y-91452295D02*
X117201315Y-91452295D01*
X117201315Y-91452295D02*
X117277506Y-91414200D01*
X117277506Y-91414200D02*
X117315601Y-91376104D01*
X117315601Y-91376104D02*
X117353696Y-91299914D01*
X117353696Y-91299914D02*
X117353696Y-91223723D01*
X117353696Y-91223723D02*
X117315601Y-91147533D01*
X117315601Y-91147533D02*
X117277506Y-91109438D01*
X117277506Y-91109438D02*
X117201315Y-91071342D01*
X117201315Y-91071342D02*
X117048934Y-91033247D01*
X117048934Y-91033247D02*
X116972744Y-90995152D01*
X116972744Y-90995152D02*
X116934649Y-90957057D01*
X116934649Y-90957057D02*
X116896553Y-90880866D01*
X116896553Y-90880866D02*
X116896553Y-90804676D01*
X116896553Y-90804676D02*
X116934649Y-90728485D01*
X116934649Y-90728485D02*
X116972744Y-90690390D01*
X116972744Y-90690390D02*
X117048934Y-90652295D01*
X117048934Y-90652295D02*
X117239411Y-90652295D01*
X117239411Y-90652295D02*
X117353696Y-90690390D01*
X117506078Y-91528485D02*
X118115601Y-91528485D01*
X118572744Y-91033247D02*
X118306078Y-91033247D01*
X118306078Y-91452295D02*
X118306078Y-90652295D01*
X118306078Y-90652295D02*
X118687030Y-90652295D01*
X115982268Y-93992295D02*
X115982268Y-93192295D01*
X115982268Y-93573247D02*
X116439411Y-93573247D01*
X116439411Y-93992295D02*
X116439411Y-93192295D01*
X116782267Y-93954200D02*
X116896553Y-93992295D01*
X116896553Y-93992295D02*
X117087029Y-93992295D01*
X117087029Y-93992295D02*
X117163220Y-93954200D01*
X117163220Y-93954200D02*
X117201315Y-93916104D01*
X117201315Y-93916104D02*
X117239410Y-93839914D01*
X117239410Y-93839914D02*
X117239410Y-93763723D01*
X117239410Y-93763723D02*
X117201315Y-93687533D01*
X117201315Y-93687533D02*
X117163220Y-93649438D01*
X117163220Y-93649438D02*
X117087029Y-93611342D01*
X117087029Y-93611342D02*
X116934648Y-93573247D01*
X116934648Y-93573247D02*
X116858458Y-93535152D01*
X116858458Y-93535152D02*
X116820363Y-93497057D01*
X116820363Y-93497057D02*
X116782267Y-93420866D01*
X116782267Y-93420866D02*
X116782267Y-93344676D01*
X116782267Y-93344676D02*
X116820363Y-93268485D01*
X116820363Y-93268485D02*
X116858458Y-93230390D01*
X116858458Y-93230390D02*
X116934648Y-93192295D01*
X116934648Y-93192295D02*
X117125125Y-93192295D01*
X117125125Y-93192295D02*
X117239410Y-93230390D01*
X117391792Y-94068485D02*
X118001315Y-94068485D01*
X118610839Y-93230390D02*
X118534649Y-93192295D01*
X118534649Y-93192295D02*
X118420363Y-93192295D01*
X118420363Y-93192295D02*
X118306077Y-93230390D01*
X118306077Y-93230390D02*
X118229887Y-93306580D01*
X118229887Y-93306580D02*
X118191792Y-93382771D01*
X118191792Y-93382771D02*
X118153696Y-93535152D01*
X118153696Y-93535152D02*
X118153696Y-93649438D01*
X118153696Y-93649438D02*
X118191792Y-93801819D01*
X118191792Y-93801819D02*
X118229887Y-93878009D01*
X118229887Y-93878009D02*
X118306077Y-93954200D01*
X118306077Y-93954200D02*
X118420363Y-93992295D01*
X118420363Y-93992295D02*
X118496554Y-93992295D01*
X118496554Y-93992295D02*
X118610839Y-93954200D01*
X118610839Y-93954200D02*
X118648935Y-93916104D01*
X118648935Y-93916104D02*
X118648935Y-93649438D01*
X118648935Y-93649438D02*
X118496554Y-93649438D01*
X116972744Y-95770390D02*
X116896554Y-95732295D01*
X116896554Y-95732295D02*
X116782268Y-95732295D01*
X116782268Y-95732295D02*
X116667982Y-95770390D01*
X116667982Y-95770390D02*
X116591792Y-95846580D01*
X116591792Y-95846580D02*
X116553697Y-95922771D01*
X116553697Y-95922771D02*
X116515601Y-96075152D01*
X116515601Y-96075152D02*
X116515601Y-96189438D01*
X116515601Y-96189438D02*
X116553697Y-96341819D01*
X116553697Y-96341819D02*
X116591792Y-96418009D01*
X116591792Y-96418009D02*
X116667982Y-96494200D01*
X116667982Y-96494200D02*
X116782268Y-96532295D01*
X116782268Y-96532295D02*
X116858459Y-96532295D01*
X116858459Y-96532295D02*
X116972744Y-96494200D01*
X116972744Y-96494200D02*
X117010840Y-96456104D01*
X117010840Y-96456104D02*
X117010840Y-96189438D01*
X117010840Y-96189438D02*
X116858459Y-96189438D01*
X117353697Y-96532295D02*
X117353697Y-95732295D01*
X117353697Y-95732295D02*
X117810840Y-96532295D01*
X117810840Y-96532295D02*
X117810840Y-95732295D01*
X118191792Y-96532295D02*
X118191792Y-95732295D01*
X118191792Y-95732295D02*
X118382268Y-95732295D01*
X118382268Y-95732295D02*
X118496554Y-95770390D01*
X118496554Y-95770390D02*
X118572744Y-95846580D01*
X118572744Y-95846580D02*
X118610839Y-95922771D01*
X118610839Y-95922771D02*
X118648935Y-96075152D01*
X118648935Y-96075152D02*
X118648935Y-96189438D01*
X118648935Y-96189438D02*
X118610839Y-96341819D01*
X118610839Y-96341819D02*
X118572744Y-96418009D01*
X118572744Y-96418009D02*
X118496554Y-96494200D01*
X118496554Y-96494200D02*
X118382268Y-96532295D01*
X118382268Y-96532295D02*
X118191792Y-96532295D01*
X116706077Y-98272295D02*
X117201315Y-98272295D01*
X117201315Y-98272295D02*
X116934649Y-98577057D01*
X116934649Y-98577057D02*
X117048934Y-98577057D01*
X117048934Y-98577057D02*
X117125125Y-98615152D01*
X117125125Y-98615152D02*
X117163220Y-98653247D01*
X117163220Y-98653247D02*
X117201315Y-98729438D01*
X117201315Y-98729438D02*
X117201315Y-98919914D01*
X117201315Y-98919914D02*
X117163220Y-98996104D01*
X117163220Y-98996104D02*
X117125125Y-99034200D01*
X117125125Y-99034200D02*
X117048934Y-99072295D01*
X117048934Y-99072295D02*
X116820363Y-99072295D01*
X116820363Y-99072295D02*
X116744172Y-99034200D01*
X116744172Y-99034200D02*
X116706077Y-98996104D01*
X117429887Y-98272295D02*
X117696554Y-99072295D01*
X117696554Y-99072295D02*
X117963220Y-98272295D01*
X118153696Y-98272295D02*
X118648934Y-98272295D01*
X118648934Y-98272295D02*
X118382268Y-98577057D01*
X118382268Y-98577057D02*
X118496553Y-98577057D01*
X118496553Y-98577057D02*
X118572744Y-98615152D01*
X118572744Y-98615152D02*
X118610839Y-98653247D01*
X118610839Y-98653247D02*
X118648934Y-98729438D01*
X118648934Y-98729438D02*
X118648934Y-98919914D01*
X118648934Y-98919914D02*
X118610839Y-98996104D01*
X118610839Y-98996104D02*
X118572744Y-99034200D01*
X118572744Y-99034200D02*
X118496553Y-99072295D01*
X118496553Y-99072295D02*
X118267982Y-99072295D01*
X118267982Y-99072295D02*
X118191791Y-99034200D01*
X118191791Y-99034200D02*
X118153696Y-98996104D01*
X116706077Y-100812295D02*
X117201315Y-100812295D01*
X117201315Y-100812295D02*
X116934649Y-101117057D01*
X116934649Y-101117057D02*
X117048934Y-101117057D01*
X117048934Y-101117057D02*
X117125125Y-101155152D01*
X117125125Y-101155152D02*
X117163220Y-101193247D01*
X117163220Y-101193247D02*
X117201315Y-101269438D01*
X117201315Y-101269438D02*
X117201315Y-101459914D01*
X117201315Y-101459914D02*
X117163220Y-101536104D01*
X117163220Y-101536104D02*
X117125125Y-101574200D01*
X117125125Y-101574200D02*
X117048934Y-101612295D01*
X117048934Y-101612295D02*
X116820363Y-101612295D01*
X116820363Y-101612295D02*
X116744172Y-101574200D01*
X116744172Y-101574200D02*
X116706077Y-101536104D01*
X117429887Y-100812295D02*
X117696554Y-101612295D01*
X117696554Y-101612295D02*
X117963220Y-100812295D01*
X118153696Y-100812295D02*
X118648934Y-100812295D01*
X118648934Y-100812295D02*
X118382268Y-101117057D01*
X118382268Y-101117057D02*
X118496553Y-101117057D01*
X118496553Y-101117057D02*
X118572744Y-101155152D01*
X118572744Y-101155152D02*
X118610839Y-101193247D01*
X118610839Y-101193247D02*
X118648934Y-101269438D01*
X118648934Y-101269438D02*
X118648934Y-101459914D01*
X118648934Y-101459914D02*
X118610839Y-101536104D01*
X118610839Y-101536104D02*
X118572744Y-101574200D01*
X118572744Y-101574200D02*
X118496553Y-101612295D01*
X118496553Y-101612295D02*
X118267982Y-101612295D01*
X118267982Y-101612295D02*
X118191791Y-101574200D01*
X118191791Y-101574200D02*
X118153696Y-101536104D01*
X116972744Y-103390390D02*
X116896554Y-103352295D01*
X116896554Y-103352295D02*
X116782268Y-103352295D01*
X116782268Y-103352295D02*
X116667982Y-103390390D01*
X116667982Y-103390390D02*
X116591792Y-103466580D01*
X116591792Y-103466580D02*
X116553697Y-103542771D01*
X116553697Y-103542771D02*
X116515601Y-103695152D01*
X116515601Y-103695152D02*
X116515601Y-103809438D01*
X116515601Y-103809438D02*
X116553697Y-103961819D01*
X116553697Y-103961819D02*
X116591792Y-104038009D01*
X116591792Y-104038009D02*
X116667982Y-104114200D01*
X116667982Y-104114200D02*
X116782268Y-104152295D01*
X116782268Y-104152295D02*
X116858459Y-104152295D01*
X116858459Y-104152295D02*
X116972744Y-104114200D01*
X116972744Y-104114200D02*
X117010840Y-104076104D01*
X117010840Y-104076104D02*
X117010840Y-103809438D01*
X117010840Y-103809438D02*
X116858459Y-103809438D01*
X117353697Y-104152295D02*
X117353697Y-103352295D01*
X117353697Y-103352295D02*
X117810840Y-104152295D01*
X117810840Y-104152295D02*
X117810840Y-103352295D01*
X118191792Y-104152295D02*
X118191792Y-103352295D01*
X118191792Y-103352295D02*
X118382268Y-103352295D01*
X118382268Y-103352295D02*
X118496554Y-103390390D01*
X118496554Y-103390390D02*
X118572744Y-103466580D01*
X118572744Y-103466580D02*
X118610839Y-103542771D01*
X118610839Y-103542771D02*
X118648935Y-103695152D01*
X118648935Y-103695152D02*
X118648935Y-103809438D01*
X118648935Y-103809438D02*
X118610839Y-103961819D01*
X118610839Y-103961819D02*
X118572744Y-104038009D01*
X118572744Y-104038009D02*
X118496554Y-104114200D01*
X118496554Y-104114200D02*
X118382268Y-104152295D01*
X118382268Y-104152295D02*
X118191792Y-104152295D01*
X115944173Y-106692295D02*
X115944173Y-105892295D01*
X115944173Y-106273247D02*
X116401316Y-106273247D01*
X116401316Y-106692295D02*
X116401316Y-105892295D01*
X116744172Y-106654200D02*
X116858458Y-106692295D01*
X116858458Y-106692295D02*
X117048934Y-106692295D01*
X117048934Y-106692295D02*
X117125125Y-106654200D01*
X117125125Y-106654200D02*
X117163220Y-106616104D01*
X117163220Y-106616104D02*
X117201315Y-106539914D01*
X117201315Y-106539914D02*
X117201315Y-106463723D01*
X117201315Y-106463723D02*
X117163220Y-106387533D01*
X117163220Y-106387533D02*
X117125125Y-106349438D01*
X117125125Y-106349438D02*
X117048934Y-106311342D01*
X117048934Y-106311342D02*
X116896553Y-106273247D01*
X116896553Y-106273247D02*
X116820363Y-106235152D01*
X116820363Y-106235152D02*
X116782268Y-106197057D01*
X116782268Y-106197057D02*
X116744172Y-106120866D01*
X116744172Y-106120866D02*
X116744172Y-106044676D01*
X116744172Y-106044676D02*
X116782268Y-105968485D01*
X116782268Y-105968485D02*
X116820363Y-105930390D01*
X116820363Y-105930390D02*
X116896553Y-105892295D01*
X116896553Y-105892295D02*
X117087030Y-105892295D01*
X117087030Y-105892295D02*
X117201315Y-105930390D01*
X117353697Y-106768485D02*
X117963220Y-106768485D01*
X118153697Y-106692295D02*
X118153697Y-105892295D01*
X118153697Y-106273247D02*
X118610840Y-106273247D01*
X118610840Y-106692295D02*
X118610840Y-105892295D01*
X116401316Y-109232295D02*
X116401316Y-108432295D01*
X116401316Y-108813247D02*
X116858459Y-108813247D01*
X116858459Y-109232295D02*
X116858459Y-108432295D01*
X117201315Y-109194200D02*
X117315601Y-109232295D01*
X117315601Y-109232295D02*
X117506077Y-109232295D01*
X117506077Y-109232295D02*
X117582268Y-109194200D01*
X117582268Y-109194200D02*
X117620363Y-109156104D01*
X117620363Y-109156104D02*
X117658458Y-109079914D01*
X117658458Y-109079914D02*
X117658458Y-109003723D01*
X117658458Y-109003723D02*
X117620363Y-108927533D01*
X117620363Y-108927533D02*
X117582268Y-108889438D01*
X117582268Y-108889438D02*
X117506077Y-108851342D01*
X117506077Y-108851342D02*
X117353696Y-108813247D01*
X117353696Y-108813247D02*
X117277506Y-108775152D01*
X117277506Y-108775152D02*
X117239411Y-108737057D01*
X117239411Y-108737057D02*
X117201315Y-108660866D01*
X117201315Y-108660866D02*
X117201315Y-108584676D01*
X117201315Y-108584676D02*
X117239411Y-108508485D01*
X117239411Y-108508485D02*
X117277506Y-108470390D01*
X117277506Y-108470390D02*
X117353696Y-108432295D01*
X117353696Y-108432295D02*
X117544173Y-108432295D01*
X117544173Y-108432295D02*
X117658458Y-108470390D01*
X117810840Y-109308485D02*
X118420363Y-109308485D01*
X118610840Y-109232295D02*
X118610840Y-108432295D01*
X116972744Y-111010390D02*
X116896554Y-110972295D01*
X116896554Y-110972295D02*
X116782268Y-110972295D01*
X116782268Y-110972295D02*
X116667982Y-111010390D01*
X116667982Y-111010390D02*
X116591792Y-111086580D01*
X116591792Y-111086580D02*
X116553697Y-111162771D01*
X116553697Y-111162771D02*
X116515601Y-111315152D01*
X116515601Y-111315152D02*
X116515601Y-111429438D01*
X116515601Y-111429438D02*
X116553697Y-111581819D01*
X116553697Y-111581819D02*
X116591792Y-111658009D01*
X116591792Y-111658009D02*
X116667982Y-111734200D01*
X116667982Y-111734200D02*
X116782268Y-111772295D01*
X116782268Y-111772295D02*
X116858459Y-111772295D01*
X116858459Y-111772295D02*
X116972744Y-111734200D01*
X116972744Y-111734200D02*
X117010840Y-111696104D01*
X117010840Y-111696104D02*
X117010840Y-111429438D01*
X117010840Y-111429438D02*
X116858459Y-111429438D01*
X117353697Y-111772295D02*
X117353697Y-110972295D01*
X117353697Y-110972295D02*
X117810840Y-111772295D01*
X117810840Y-111772295D02*
X117810840Y-110972295D01*
X118191792Y-111772295D02*
X118191792Y-110972295D01*
X118191792Y-110972295D02*
X118382268Y-110972295D01*
X118382268Y-110972295D02*
X118496554Y-111010390D01*
X118496554Y-111010390D02*
X118572744Y-111086580D01*
X118572744Y-111086580D02*
X118610839Y-111162771D01*
X118610839Y-111162771D02*
X118648935Y-111315152D01*
X118648935Y-111315152D02*
X118648935Y-111429438D01*
X118648935Y-111429438D02*
X118610839Y-111581819D01*
X118610839Y-111581819D02*
X118572744Y-111658009D01*
X118572744Y-111658009D02*
X118496554Y-111734200D01*
X118496554Y-111734200D02*
X118382268Y-111772295D01*
X118382268Y-111772295D02*
X118191792Y-111772295D01*
D12*
X117099498Y-83031775D02*
X117594736Y-83031775D01*
X117594736Y-83031775D02*
X117328070Y-83336537D01*
X117328070Y-83336537D02*
X117442355Y-83336537D01*
X117442355Y-83336537D02*
X117518546Y-83374632D01*
X117518546Y-83374632D02*
X117556641Y-83412727D01*
X117556641Y-83412727D02*
X117594736Y-83488918D01*
X117594736Y-83488918D02*
X117594736Y-83679394D01*
X117594736Y-83679394D02*
X117556641Y-83755584D01*
X117556641Y-83755584D02*
X117518546Y-83793680D01*
X117518546Y-83793680D02*
X117442355Y-83831775D01*
X117442355Y-83831775D02*
X117213784Y-83831775D01*
X117213784Y-83831775D02*
X117137593Y-83793680D01*
X117137593Y-83793680D02*
X117099498Y-83755584D01*
X117823308Y-83031775D02*
X118089975Y-83831775D01*
X118089975Y-83831775D02*
X118356641Y-83031775D01*
X118547117Y-83031775D02*
X119042355Y-83031775D01*
X119042355Y-83031775D02*
X118775689Y-83336537D01*
X118775689Y-83336537D02*
X118889974Y-83336537D01*
X118889974Y-83336537D02*
X118966165Y-83374632D01*
X118966165Y-83374632D02*
X119004260Y-83412727D01*
X119004260Y-83412727D02*
X119042355Y-83488918D01*
X119042355Y-83488918D02*
X119042355Y-83679394D01*
X119042355Y-83679394D02*
X119004260Y-83755584D01*
X119004260Y-83755584D02*
X118966165Y-83793680D01*
X118966165Y-83793680D02*
X118889974Y-83831775D01*
X118889974Y-83831775D02*
X118661403Y-83831775D01*
X118661403Y-83831775D02*
X118585212Y-83793680D01*
X118585212Y-83793680D02*
X118547117Y-83755584D01*
X117366165Y-116089870D02*
X117289975Y-116051775D01*
X117289975Y-116051775D02*
X117175689Y-116051775D01*
X117175689Y-116051775D02*
X117061403Y-116089870D01*
X117061403Y-116089870D02*
X116985213Y-116166060D01*
X116985213Y-116166060D02*
X116947118Y-116242251D01*
X116947118Y-116242251D02*
X116909022Y-116394632D01*
X116909022Y-116394632D02*
X116909022Y-116508918D01*
X116909022Y-116508918D02*
X116947118Y-116661299D01*
X116947118Y-116661299D02*
X116985213Y-116737489D01*
X116985213Y-116737489D02*
X117061403Y-116813680D01*
X117061403Y-116813680D02*
X117175689Y-116851775D01*
X117175689Y-116851775D02*
X117251880Y-116851775D01*
X117251880Y-116851775D02*
X117366165Y-116813680D01*
X117366165Y-116813680D02*
X117404261Y-116775584D01*
X117404261Y-116775584D02*
X117404261Y-116508918D01*
X117404261Y-116508918D02*
X117251880Y-116508918D01*
X117747118Y-116851775D02*
X117747118Y-116051775D01*
X117747118Y-116051775D02*
X118204261Y-116851775D01*
X118204261Y-116851775D02*
X118204261Y-116051775D01*
X118585213Y-116851775D02*
X118585213Y-116051775D01*
X118585213Y-116051775D02*
X118775689Y-116051775D01*
X118775689Y-116051775D02*
X118889975Y-116089870D01*
X118889975Y-116089870D02*
X118966165Y-116166060D01*
X118966165Y-116166060D02*
X119004260Y-116242251D01*
X119004260Y-116242251D02*
X119042356Y-116394632D01*
X119042356Y-116394632D02*
X119042356Y-116508918D01*
X119042356Y-116508918D02*
X119004260Y-116661299D01*
X119004260Y-116661299D02*
X118966165Y-116737489D01*
X118966165Y-116737489D02*
X118889975Y-116813680D01*
X118889975Y-116813680D02*
X118775689Y-116851775D01*
X118775689Y-116851775D02*
X118585213Y-116851775D01*
D13*
X103154761Y-107343911D02*
X103073809Y-107384387D01*
X103073809Y-107384387D02*
X102911904Y-107384387D01*
X102911904Y-107384387D02*
X102830952Y-107343911D01*
X102830952Y-107343911D02*
X102790475Y-107303434D01*
X102790475Y-107303434D02*
X102749999Y-107222482D01*
X102749999Y-107222482D02*
X102749999Y-106979625D01*
X102749999Y-106979625D02*
X102790475Y-106898672D01*
X102790475Y-106898672D02*
X102830952Y-106858196D01*
X102830952Y-106858196D02*
X102911904Y-106817720D01*
X102911904Y-106817720D02*
X103073809Y-106817720D01*
X103073809Y-106817720D02*
X103154761Y-106858196D01*
X103640475Y-107384387D02*
X103559523Y-107343911D01*
X103559523Y-107343911D02*
X103519046Y-107303434D01*
X103519046Y-107303434D02*
X103478570Y-107222482D01*
X103478570Y-107222482D02*
X103478570Y-106979625D01*
X103478570Y-106979625D02*
X103519046Y-106898672D01*
X103519046Y-106898672D02*
X103559523Y-106858196D01*
X103559523Y-106858196D02*
X103640475Y-106817720D01*
X103640475Y-106817720D02*
X103761904Y-106817720D01*
X103761904Y-106817720D02*
X103842856Y-106858196D01*
X103842856Y-106858196D02*
X103883332Y-106898672D01*
X103883332Y-106898672D02*
X103923808Y-106979625D01*
X103923808Y-106979625D02*
X103923808Y-107222482D01*
X103923808Y-107222482D02*
X103883332Y-107303434D01*
X103883332Y-107303434D02*
X103842856Y-107343911D01*
X103842856Y-107343911D02*
X103761904Y-107384387D01*
X103761904Y-107384387D02*
X103640475Y-107384387D01*
X104652380Y-107384387D02*
X104652380Y-106534387D01*
X104652380Y-107343911D02*
X104571428Y-107384387D01*
X104571428Y-107384387D02*
X104409523Y-107384387D01*
X104409523Y-107384387D02*
X104328571Y-107343911D01*
X104328571Y-107343911D02*
X104288094Y-107303434D01*
X104288094Y-107303434D02*
X104247618Y-107222482D01*
X104247618Y-107222482D02*
X104247618Y-106979625D01*
X104247618Y-106979625D02*
X104288094Y-106898672D01*
X104288094Y-106898672D02*
X104328571Y-106858196D01*
X104328571Y-106858196D02*
X104409523Y-106817720D01*
X104409523Y-106817720D02*
X104571428Y-106817720D01*
X104571428Y-106817720D02*
X104652380Y-106858196D01*
X105380952Y-107343911D02*
X105300000Y-107384387D01*
X105300000Y-107384387D02*
X105138095Y-107384387D01*
X105138095Y-107384387D02*
X105057142Y-107343911D01*
X105057142Y-107343911D02*
X105016666Y-107262958D01*
X105016666Y-107262958D02*
X105016666Y-106939149D01*
X105016666Y-106939149D02*
X105057142Y-106858196D01*
X105057142Y-106858196D02*
X105138095Y-106817720D01*
X105138095Y-106817720D02*
X105300000Y-106817720D01*
X105300000Y-106817720D02*
X105380952Y-106858196D01*
X105380952Y-106858196D02*
X105421428Y-106939149D01*
X105421428Y-106939149D02*
X105421428Y-107020101D01*
X105421428Y-107020101D02*
X105016666Y-107101053D01*
X105785713Y-107384387D02*
X105785713Y-106817720D01*
X105785713Y-106898672D02*
X105826190Y-106858196D01*
X105826190Y-106858196D02*
X105907142Y-106817720D01*
X105907142Y-106817720D02*
X106028571Y-106817720D01*
X106028571Y-106817720D02*
X106109523Y-106858196D01*
X106109523Y-106858196D02*
X106149999Y-106939149D01*
X106149999Y-106939149D02*
X106149999Y-107384387D01*
X106149999Y-106939149D02*
X106190475Y-106858196D01*
X106190475Y-106858196D02*
X106271428Y-106817720D01*
X106271428Y-106817720D02*
X106392856Y-106817720D01*
X106392856Y-106817720D02*
X106473809Y-106858196D01*
X106473809Y-106858196D02*
X106514285Y-106939149D01*
X106514285Y-106939149D02*
X106514285Y-107384387D01*
X106838094Y-106817720D02*
X107040475Y-107384387D01*
X107242856Y-106817720D02*
X107040475Y-107384387D01*
X107040475Y-107384387D02*
X106959523Y-107586768D01*
X106959523Y-107586768D02*
X106919046Y-107627244D01*
X106919046Y-107627244D02*
X106838094Y-107667720D01*
X107566665Y-107384387D02*
X107566665Y-106817720D01*
X107566665Y-106979625D02*
X107607142Y-106898672D01*
X107607142Y-106898672D02*
X107647618Y-106858196D01*
X107647618Y-106858196D02*
X107728570Y-106817720D01*
X107728570Y-106817720D02*
X107809523Y-106817720D01*
X108092855Y-107384387D02*
X108092855Y-106817720D01*
X108092855Y-106534387D02*
X108052379Y-106574863D01*
X108052379Y-106574863D02*
X108092855Y-106615339D01*
X108092855Y-106615339D02*
X108133332Y-106574863D01*
X108133332Y-106574863D02*
X108092855Y-106534387D01*
X108092855Y-106534387D02*
X108092855Y-106615339D01*
X108861903Y-107384387D02*
X108861903Y-106939149D01*
X108861903Y-106939149D02*
X108821427Y-106858196D01*
X108821427Y-106858196D02*
X108740475Y-106817720D01*
X108740475Y-106817720D02*
X108578570Y-106817720D01*
X108578570Y-106817720D02*
X108497617Y-106858196D01*
X108861903Y-107343911D02*
X108780951Y-107384387D01*
X108780951Y-107384387D02*
X108578570Y-107384387D01*
X108578570Y-107384387D02*
X108497617Y-107343911D01*
X108497617Y-107343911D02*
X108457141Y-107262958D01*
X108457141Y-107262958D02*
X108457141Y-107182006D01*
X108457141Y-107182006D02*
X108497617Y-107101053D01*
X108497617Y-107101053D02*
X108578570Y-107060577D01*
X108578570Y-107060577D02*
X108780951Y-107060577D01*
X108780951Y-107060577D02*
X108861903Y-107020101D01*
X109630951Y-107384387D02*
X109630951Y-106534387D01*
X109630951Y-107343911D02*
X109549999Y-107384387D01*
X109549999Y-107384387D02*
X109388094Y-107384387D01*
X109388094Y-107384387D02*
X109307142Y-107343911D01*
X109307142Y-107343911D02*
X109266665Y-107303434D01*
X109266665Y-107303434D02*
X109226189Y-107222482D01*
X109226189Y-107222482D02*
X109226189Y-106979625D01*
X109226189Y-106979625D02*
X109266665Y-106898672D01*
X109266665Y-106898672D02*
X109307142Y-106858196D01*
X109307142Y-106858196D02*
X109388094Y-106817720D01*
X109388094Y-106817720D02*
X109549999Y-106817720D01*
X109549999Y-106817720D02*
X109630951Y-106858196D01*
X110035713Y-107303434D02*
X110076190Y-107343911D01*
X110076190Y-107343911D02*
X110035713Y-107384387D01*
X110035713Y-107384387D02*
X109995237Y-107343911D01*
X109995237Y-107343911D02*
X110035713Y-107303434D01*
X110035713Y-107303434D02*
X110035713Y-107384387D01*
X110440475Y-107384387D02*
X110440475Y-106817720D01*
X110440475Y-106534387D02*
X110399999Y-106574863D01*
X110399999Y-106574863D02*
X110440475Y-106615339D01*
X110440475Y-106615339D02*
X110480952Y-106574863D01*
X110480952Y-106574863D02*
X110440475Y-106534387D01*
X110440475Y-106534387D02*
X110440475Y-106615339D01*
X110966666Y-107384387D02*
X110885714Y-107343911D01*
X110885714Y-107343911D02*
X110845237Y-107303434D01*
X110845237Y-107303434D02*
X110804761Y-107222482D01*
X110804761Y-107222482D02*
X110804761Y-106979625D01*
X110804761Y-106979625D02*
X110845237Y-106898672D01*
X110845237Y-106898672D02*
X110885714Y-106858196D01*
X110885714Y-106858196D02*
X110966666Y-106817720D01*
X110966666Y-106817720D02*
X111088095Y-106817720D01*
X111088095Y-106817720D02*
X111169047Y-106858196D01*
X111169047Y-106858196D02*
X111209523Y-106898672D01*
X111209523Y-106898672D02*
X111249999Y-106979625D01*
X111249999Y-106979625D02*
X111249999Y-107222482D01*
X111249999Y-107222482D02*
X111209523Y-107303434D01*
X111209523Y-107303434D02*
X111169047Y-107343911D01*
X111169047Y-107343911D02*
X111088095Y-107384387D01*
X111088095Y-107384387D02*
X110966666Y-107384387D01*
D14*
X105757142Y-94064140D02*
X106442857Y-94064140D01*
X106099999Y-94406997D02*
X106099999Y-93721282D01*
D11*
X-3386666Y-579726D02*
X-3386666Y690273D01*
X-3386666Y690273D02*
X-2902856Y690273D01*
X-2902856Y690273D02*
X-2781904Y629797D01*
X-2781904Y629797D02*
X-2721427Y569321D01*
X-2721427Y569321D02*
X-2660951Y448369D01*
X-2660951Y448369D02*
X-2660951Y266940D01*
X-2660951Y266940D02*
X-2721427Y145988D01*
X-2721427Y145988D02*
X-2781904Y85511D01*
X-2781904Y85511D02*
X-2902856Y25035D01*
X-2902856Y25035D02*
X-3386666Y25035D01*
X-1390951Y-579726D02*
X-1814285Y25035D01*
X-2116666Y-579726D02*
X-2116666Y690273D01*
X-2116666Y690273D02*
X-1632856Y690273D01*
X-1632856Y690273D02*
X-1511904Y629797D01*
X-1511904Y629797D02*
X-1451427Y569321D01*
X-1451427Y569321D02*
X-1390951Y448369D01*
X-1390951Y448369D02*
X-1390951Y266940D01*
X-1390951Y266940D02*
X-1451427Y145988D01*
X-1451427Y145988D02*
X-1511904Y85511D01*
X-1511904Y85511D02*
X-1632856Y25035D01*
X-1632856Y25035D02*
X-2116666Y25035D01*
X-604761Y690273D02*
X-362856Y690273D01*
X-362856Y690273D02*
X-241904Y629797D01*
X-241904Y629797D02*
X-120951Y508845D01*
X-120951Y508845D02*
X-60475Y266940D01*
X-60475Y266940D02*
X-60475Y-156392D01*
X-60475Y-156392D02*
X-120951Y-398297D01*
X-120951Y-398297D02*
X-241904Y-519250D01*
X-241904Y-519250D02*
X-362856Y-579726D01*
X-362856Y-579726D02*
X-604761Y-579726D01*
X-604761Y-579726D02*
X-725713Y-519250D01*
X-725713Y-519250D02*
X-846666Y-398297D01*
X-846666Y-398297D02*
X-907142Y-156392D01*
X-907142Y-156392D02*
X-907142Y266940D01*
X-907142Y266940D02*
X-846666Y508845D01*
X-846666Y508845D02*
X-725713Y629797D01*
X-725713Y629797D02*
X-604761Y690273D01*
X302381Y690273D02*
X1028095Y690273D01*
X665238Y-579726D02*
X665238Y690273D01*
X1693333Y690273D02*
X1935238Y690273D01*
X1935238Y690273D02*
X2056190Y629797D01*
X2056190Y629797D02*
X2177143Y508845D01*
X2177143Y508845D02*
X2237619Y266940D01*
X2237619Y266940D02*
X2237619Y-156392D01*
X2237619Y-156392D02*
X2177143Y-398297D01*
X2177143Y-398297D02*
X2056190Y-519250D01*
X2056190Y-519250D02*
X1935238Y-579726D01*
X1935238Y-579726D02*
X1693333Y-579726D01*
X1693333Y-579726D02*
X1572381Y-519250D01*
X1572381Y-519250D02*
X1451428Y-398297D01*
X1451428Y-398297D02*
X1390952Y-156392D01*
X1390952Y-156392D02*
X1390952Y266940D01*
X1390952Y266940D02*
X1451428Y508845D01*
X1451428Y508845D02*
X1572381Y629797D01*
X1572381Y629797D02*
X1693333Y690273D01*
X3447143Y-579726D02*
X2721428Y-579726D01*
X3084285Y-579726D02*
X3084285Y690273D01*
X3084285Y690273D02*
X2963333Y508845D01*
X2963333Y508845D02*
X2842381Y387892D01*
X2842381Y387892D02*
X2721428Y327416D01*
D10*
%TO.C,J2*%
X120360000Y-112740000D02*
X120360000Y-87220000D01*
X122960000Y-110140000D02*
X122960000Y-112740000D01*
X122960000Y-112740000D02*
X120360000Y-112740000D01*
X125560000Y-87220000D02*
X120360000Y-87220000D01*
X125560000Y-110140000D02*
X122960000Y-110140000D01*
X125560000Y-110140000D02*
X125560000Y-87220000D01*
X125560000Y-111410000D02*
X125560000Y-112740000D01*
X125560000Y-112740000D02*
X124230000Y-112740000D01*
%TD*%
%LPC*%
D15*
%TO.C,J1*%
X100500000Y-96600000D03*
D16*
X100900000Y-97400000D03*
X100900000Y-98200000D03*
D15*
X100500000Y-99000000D03*
D16*
X100900000Y-99800000D03*
X100900000Y-100600000D03*
D15*
X100500000Y-101400000D03*
D16*
X100900000Y-102200000D03*
X100900000Y-103000000D03*
D15*
X100500000Y-103800000D03*
%TD*%
D17*
%TO.C,PROTO1*%
X121690000Y-83470000D03*
X124230000Y-83470000D03*
X126770000Y-83470000D03*
X129310000Y-83470000D03*
X131850000Y-83470000D03*
X134390000Y-83470000D03*
X136930000Y-83470000D03*
X139470000Y-83470000D03*
X142010000Y-83470000D03*
X144550000Y-83470000D03*
D18*
X121690000Y-86010000D03*
X124230000Y-86010000D03*
X126770000Y-86010000D03*
X129310000Y-86010000D03*
X131850000Y-86010000D03*
X134390000Y-86010000D03*
X136930000Y-86010000D03*
X139470000Y-86010000D03*
X142010000Y-86010000D03*
X144550000Y-86010000D03*
X126770000Y-88550000D03*
X129310000Y-88550000D03*
X131850000Y-88550000D03*
X134390000Y-88550000D03*
X136930000Y-88550000D03*
X139470000Y-88550000D03*
X142010000Y-88550000D03*
X144550000Y-88550000D03*
X126770000Y-91090000D03*
X129310000Y-91090000D03*
X131850000Y-91090000D03*
X134390000Y-91090000D03*
X136930000Y-91090000D03*
X139470000Y-91090000D03*
X142010000Y-91090000D03*
X144550000Y-91090000D03*
X126770000Y-93630000D03*
X129310000Y-93630000D03*
X131850000Y-93630000D03*
X134390000Y-93630000D03*
X136930000Y-93630000D03*
X139470000Y-93630000D03*
X142010000Y-93630000D03*
X144550000Y-93630000D03*
X126770000Y-96170000D03*
X129310000Y-96170000D03*
X131850000Y-96170000D03*
X134390000Y-96170000D03*
X136930000Y-96170000D03*
X139470000Y-96170000D03*
X142010000Y-96170000D03*
X144550000Y-96170000D03*
X126770000Y-98710000D03*
X129310000Y-98710000D03*
X131850000Y-98710000D03*
X134390000Y-98710000D03*
X136930000Y-98710000D03*
X139470000Y-98710000D03*
X142010000Y-98710000D03*
X144550000Y-98710000D03*
X126770000Y-101250000D03*
X129310000Y-101250000D03*
X131850000Y-101250000D03*
X134390000Y-101250000D03*
X136930000Y-101250000D03*
X139470000Y-101250000D03*
X142010000Y-101250000D03*
X144550000Y-101250000D03*
X126770000Y-103789999D03*
X129310000Y-103789999D03*
X131850000Y-103789999D03*
X134390000Y-103789999D03*
X136930000Y-103789999D03*
X139470000Y-103789999D03*
X142010000Y-103789999D03*
X144550000Y-103789999D03*
X126770000Y-106330000D03*
X129310000Y-106330000D03*
X131850000Y-106330000D03*
X134390000Y-106330000D03*
X136930000Y-106330000D03*
X139470000Y-106330000D03*
X142010000Y-106330000D03*
X144550000Y-106330000D03*
X126770000Y-108870000D03*
X129310000Y-108870000D03*
X131850000Y-108870000D03*
X134390000Y-108870000D03*
X136930000Y-108870000D03*
X139470000Y-108870000D03*
X142010000Y-108870000D03*
X144550000Y-108870000D03*
X126770000Y-111410000D03*
X129310000Y-111410000D03*
X131850000Y-111410000D03*
X134390000Y-111410000D03*
X136930000Y-111410000D03*
X139470000Y-111410000D03*
X142010000Y-111410000D03*
X144550000Y-111410000D03*
X121690000Y-113950000D03*
X124230000Y-113950000D03*
X126770000Y-113950000D03*
X129310000Y-113950000D03*
X131850000Y-113950000D03*
X134390000Y-113950000D03*
X136930000Y-113950000D03*
X139470000Y-113950000D03*
X142010000Y-113950000D03*
X144550000Y-113950000D03*
D17*
X121690000Y-116490000D03*
X124230000Y-116490000D03*
X126770000Y-116490000D03*
X129310000Y-116490000D03*
X131850000Y-116490000D03*
X134390000Y-116490000D03*
X136930000Y-116490000D03*
X139470000Y-116490000D03*
X142010000Y-116490000D03*
X144550000Y-116490000D03*
%TD*%
D19*
%TO.C,H2*%
X110850000Y-87500000D03*
X111333274Y-86333274D03*
X111333274Y-88666726D03*
X112500000Y-85850000D03*
D20*
X112500000Y-87500000D03*
D19*
X112500000Y-89150000D03*
X113666726Y-86333274D03*
X113666726Y-88666726D03*
X114150000Y-87500000D03*
%TD*%
D21*
%TO.C,J2*%
X124230000Y-111410000D03*
D22*
X121690000Y-111410000D03*
X124230000Y-108870000D03*
X121690000Y-108870000D03*
X124230000Y-106330000D03*
X121690000Y-106330000D03*
X124230000Y-103790000D03*
X121690000Y-103790000D03*
X124230000Y-101250000D03*
X121690000Y-101250000D03*
X124230000Y-98710000D03*
X121690000Y-98710000D03*
X124230000Y-96170000D03*
X121690000Y-96170000D03*
X124230000Y-93630000D03*
X121690000Y-93630000D03*
X124230000Y-91090000D03*
X121690000Y-91090000D03*
X124230000Y-88550000D03*
X121690000Y-88550000D03*
%TD*%
D19*
%TO.C,H1*%
X110850000Y-112500000D03*
X111333274Y-111333274D03*
X111333274Y-113666726D03*
X112500000Y-110850000D03*
D20*
X112500000Y-112500000D03*
D19*
X112500000Y-114150000D03*
X113666726Y-111333274D03*
X113666726Y-113666726D03*
X114150000Y-112500000D03*
%TD*%
%LPD*%
M02*
