M48
; DRILL file {KiCad 9.0.8+dfsg-1} date 2026-06-30T10:05:17+0200
; FORMAT={-:-/ absolute / metric / decimal}
; #@! TF.CreationDate,2026-06-30T10:05:17+02:00
; #@! TF.GenerationSoftware,Kicad,Pcbnew,9.0.8+dfsg-1
; #@! TF.FileFunction,Plated,1,2,PTH
FMAT,2
METRIC
; #@! TA.AperFunction,Plated,PTH,ViaDrill
T1C0.300
; #@! TA.AperFunction,Plated,PTH,ViaDrill
T2C0.400
; #@! TA.AperFunction,Plated,PTH,ComponentDrill
T3C0.400
; #@! TA.AperFunction,Plated,PTH,ComponentDrill
T4C1.000
; #@! TA.AperFunction,Plated,PTH,ComponentDrill
T5C1.200
; #@! TA.AperFunction,Plated,PTH,ComponentDrill
T6C2.200
%
G90
G05
T1
X128.18Y-105.05
T2
X147.65Y-101.09
X147.73Y-105.65
X149.88Y-99.13
X150.63Y-102.85
X150.72Y-94.86
X151.25Y-87.02
X151.28Y-88.3
X151.435Y-85.81
T3
X110.76Y-87.43
X110.76Y-112.5
X111.243Y-86.263
X111.243Y-88.597
X111.243Y-111.333
X111.243Y-113.667
X112.41Y-85.78
X112.41Y-89.08
X112.41Y-110.85
X112.41Y-114.15
X113.577Y-86.263
X113.577Y-88.597
X113.577Y-111.333
X113.577Y-113.667
X114.06Y-87.43
X114.06Y-112.5
T4
X121.69Y-83.47
X121.69Y-86.01
X121.69Y-88.55
X121.69Y-91.09
X121.69Y-93.63
X121.69Y-96.17
X121.69Y-98.71
X121.69Y-101.25
X121.69Y-103.79
X121.69Y-106.33
X121.69Y-108.87
X121.69Y-111.41
X121.69Y-113.95
X121.69Y-116.49
X124.23Y-83.47
X124.23Y-86.01
X124.23Y-88.55
X124.23Y-91.09
X124.23Y-93.63
X124.23Y-96.17
X124.23Y-98.71
X124.23Y-101.25
X124.23Y-103.79
X124.23Y-106.33
X124.23Y-108.87
X124.23Y-111.41
X124.23Y-113.95
X124.23Y-116.49
X126.77Y-83.47
X126.77Y-86.01
X126.77Y-88.55
X126.77Y-91.09
X126.77Y-93.63
X126.77Y-96.17
X126.77Y-98.71
X126.77Y-101.25
X126.77Y-103.79
X126.77Y-106.33
X126.77Y-108.87
X126.77Y-111.41
X126.77Y-113.95
X126.77Y-116.49
X129.31Y-83.47
X129.31Y-86.01
X129.31Y-88.55
X129.31Y-91.09
X129.31Y-93.63
X129.31Y-96.17
X129.31Y-98.71
X129.31Y-101.25
X129.31Y-103.79
X129.31Y-106.33
X129.31Y-108.87
X129.31Y-111.41
X129.31Y-113.95
X129.31Y-116.49
X131.85Y-83.47
X131.85Y-86.01
X131.85Y-88.55
X131.85Y-91.09
X131.85Y-93.63
X131.85Y-96.17
X131.85Y-98.71
X131.85Y-101.25
X131.85Y-103.79
X131.85Y-106.33
X131.85Y-108.87
X131.85Y-111.41
X131.85Y-113.95
X131.85Y-116.49
X134.39Y-83.47
X134.39Y-86.01
X134.39Y-88.55
X134.39Y-91.09
X134.39Y-93.63
X134.39Y-96.17
X134.39Y-98.71
X134.39Y-101.25
X134.39Y-103.79
X134.39Y-106.33
X134.39Y-108.87
X134.39Y-111.41
X134.39Y-113.95
X134.39Y-116.49
X136.93Y-83.47
X136.93Y-86.01
X136.93Y-88.55
X136.93Y-91.09
X136.93Y-93.63
X136.93Y-96.17
X136.93Y-98.71
X136.93Y-101.25
X136.93Y-103.79
X136.93Y-106.33
X136.93Y-108.87
X136.93Y-111.41
X136.93Y-113.95
X136.93Y-116.49
X139.47Y-83.47
X139.47Y-86.01
X139.47Y-88.55
X139.47Y-91.09
X139.47Y-93.63
X139.47Y-96.17
X139.47Y-98.71
X139.47Y-101.25
X139.47Y-103.79
X139.47Y-106.33
X139.47Y-108.87
X139.47Y-111.41
X139.47Y-113.95
X139.47Y-116.49
X142.01Y-83.47
X142.01Y-86.01
X142.01Y-88.55
X142.01Y-91.09
X142.01Y-93.63
X142.01Y-96.17
X142.01Y-98.71
X142.01Y-101.25
X142.01Y-103.79
X142.01Y-106.33
X142.01Y-108.87
X142.01Y-111.41
X142.01Y-113.95
X142.01Y-116.49
X144.55Y-83.47
X144.55Y-86.01
X144.55Y-88.55
X144.55Y-91.09
X144.55Y-93.63
X144.55Y-96.17
X144.55Y-98.71
X144.55Y-101.25
X144.55Y-103.79
X144.55Y-106.33
X144.55Y-108.87
X144.55Y-111.41
X144.55Y-113.95
X144.55Y-116.49
T5
X149.89Y-96.89
X152.43Y-96.89
T6
X112.41Y-87.43
X112.41Y-112.5
M30
