%TF.GenerationSoftware,KiCad,Pcbnew,9.0.8+dfsg-1*%
%TF.CreationDate,2026-06-30T15:07:57+02:00*%
%TF.ProjectId,codemyriad-protogon,636f6465-6d79-4726-9961-642d70726f74,rev?*%
%TF.SameCoordinates,Original*%
%TF.FileFunction,Copper,L1,Top*%
%TF.FilePolarity,Positive*%
%FSLAX46Y46*%
G04 Gerber Fmt 4.6, Leading zero omitted, Abs format (unit mm)*
G04 Created by KiCad (PCBNEW 9.0.8+dfsg-1) date 2026-06-30 15:07:57*
%MOMM*%
%LPD*%
G01*
G04 APERTURE LIST*
G04 Aperture macros list*
%AMRoundRect*
0 Rectangle with rounded corners*
0 $1 Rounding radius*
0 $2 $3 $4 $5 $6 $7 $8 $9 X,Y pos of 4 corners*
0 Add a 4 corners polygon primitive as box body*
4,1,4,$2,$3,$4,$5,$6,$7,$8,$9,$2,$3,0*
0 Add four circle primitives for the rounded corners*
1,1,$1+$1,$2,$3*
1,1,$1+$1,$4,$5*
1,1,$1+$1,$6,$7*
1,1,$1+$1,$8,$9*
0 Add four rect primitives between the rounded corners*
20,1,$1+$1,$2,$3,$4,$5,0*
20,1,$1+$1,$4,$5,$6,$7,0*
20,1,$1+$1,$6,$7,$8,$9,0*
20,1,$1+$1,$8,$9,$2,$3,0*%
G04 Aperture macros list end*
%TA.AperFunction,SMDPad,CuDef*%
%ADD10RoundRect,0.150000X1.600000X0.150000X-1.600000X0.150000X-1.600000X-0.150000X1.600000X-0.150000X0*%
%TD*%
%TA.AperFunction,SMDPad,CuDef*%
%ADD11RoundRect,0.150000X1.200000X0.150000X-1.200000X0.150000X-1.200000X-0.150000X1.200000X-0.150000X0*%
%TD*%
%TA.AperFunction,SMDPad,CuDef*%
%ADD12RoundRect,0.237500X-0.300000X-0.237500X0.300000X-0.237500X0.300000X0.237500X-0.300000X0.237500X0*%
%TD*%
%TA.AperFunction,ComponentPad*%
%ADD13O,1.650000X1.650000*%
%TD*%
%TA.AperFunction,ComponentPad*%
%ADD14C,1.650000*%
%TD*%
%TA.AperFunction,SMDPad,CuDef*%
%ADD15RoundRect,0.200000X0.200000X0.275000X-0.200000X0.275000X-0.200000X-0.275000X0.200000X-0.275000X0*%
%TD*%
%TA.AperFunction,ComponentPad*%
%ADD16R,1.700000X1.700000*%
%TD*%
%TA.AperFunction,ComponentPad*%
%ADD17O,1.700000X1.700000*%
%TD*%
%TA.AperFunction,ComponentPad*%
%ADD18R,2.000000X2.000000*%
%TD*%
%TA.AperFunction,ComponentPad*%
%ADD19C,2.000000*%
%TD*%
%TA.AperFunction,SMDPad,CuDef*%
%ADD20RoundRect,0.237500X-0.237500X0.250000X-0.237500X-0.250000X0.237500X-0.250000X0.237500X0.250000X0*%
%TD*%
%TA.AperFunction,SMDPad,CuDef*%
%ADD21R,1.550013X0.600000*%
%TD*%
%TA.AperFunction,SMDPad,CuDef*%
%ADD22R,1.800000X1.200000*%
%TD*%
%TA.AperFunction,ComponentPad*%
%ADD23C,0.700000*%
%TD*%
%TA.AperFunction,ComponentPad*%
%ADD24C,4.400000*%
%TD*%
%TA.AperFunction,SMDPad,CuDef*%
%ADD25O,0.353010X1.454001*%
%TD*%
%TA.AperFunction,SMDPad,CuDef*%
%ADD26RoundRect,0.243750X-0.243750X-0.456250X0.243750X-0.456250X0.243750X0.456250X-0.243750X0.456250X0*%
%TD*%
%TA.AperFunction,ViaPad*%
%ADD27C,0.800000*%
%TD*%
%TA.AperFunction,ViaPad*%
%ADD28C,0.600000*%
%TD*%
%TA.AperFunction,Conductor*%
%ADD29C,0.250000*%
%TD*%
%TA.AperFunction,Conductor*%
%ADD30C,0.800000*%
%TD*%
G04 APERTURE END LIST*
D10*
X100500000Y-96600000D03*
D11*
X100900000Y-97400000D03*
X100900000Y-98200000D03*
D10*
X100500000Y-99000000D03*
D11*
X100900000Y-99800000D03*
X100900000Y-100600000D03*
D10*
X100500000Y-101400000D03*
D11*
X100900000Y-102200000D03*
X100900000Y-103000000D03*
D10*
X100500000Y-103800000D03*
D12*
X148397500Y-85700000D03*
X150122500Y-85700000D03*
D13*
X121690000Y-83470000D03*
X124230000Y-83470000D03*
X126770000Y-83470000D03*
X129310000Y-83470000D03*
X131850000Y-83470000D03*
X134390000Y-83470000D03*
X136930000Y-83470000D03*
X139470000Y-83470000D03*
X142010000Y-83470000D03*
X144550000Y-83470000D03*
D14*
X121690000Y-86010000D03*
X124230000Y-86010000D03*
X126770000Y-86010000D03*
X129310000Y-86010000D03*
X131850000Y-86010000D03*
X134390000Y-86010000D03*
X136930000Y-86010000D03*
X139470000Y-86010000D03*
X142010000Y-86010000D03*
X144550000Y-86010000D03*
X126770000Y-88550000D03*
X129310000Y-88550000D03*
X131850000Y-88550000D03*
X134390000Y-88550000D03*
X136930000Y-88550000D03*
X139470000Y-88550000D03*
X142010000Y-88550000D03*
X144550000Y-88550000D03*
X126770000Y-91090000D03*
X129310000Y-91090000D03*
X131850000Y-91090000D03*
X134390000Y-91090000D03*
X136930000Y-91090000D03*
X139470000Y-91090000D03*
X142010000Y-91090000D03*
X144550000Y-91090000D03*
X126770000Y-93630000D03*
X129310000Y-93630000D03*
X131850000Y-93630000D03*
X134390000Y-93630000D03*
X136930000Y-93630000D03*
X139470000Y-93630000D03*
X142010000Y-93630000D03*
X144550000Y-93630000D03*
X126770000Y-96170000D03*
X129310000Y-96170000D03*
X131850000Y-96170000D03*
X134390000Y-96170000D03*
X136930000Y-96170000D03*
X139470000Y-96170000D03*
X142010000Y-96170000D03*
X144550000Y-96170000D03*
X126770000Y-98710000D03*
X129310000Y-98710000D03*
X131850000Y-98710000D03*
X134390000Y-98710000D03*
X136930000Y-98710000D03*
X139470000Y-98710000D03*
X142010000Y-98710000D03*
X144550000Y-98710000D03*
X126770000Y-101250000D03*
X129310000Y-101250000D03*
X131850000Y-101250000D03*
X134390000Y-101250000D03*
X136930000Y-101250000D03*
X139470000Y-101250000D03*
X142010000Y-101250000D03*
X144550000Y-101250000D03*
X126770000Y-103789999D03*
X129310000Y-103789999D03*
X131850000Y-103789999D03*
X134390000Y-103789999D03*
X136930000Y-103789999D03*
X139470000Y-103789999D03*
X142010000Y-103789999D03*
X144550000Y-103789999D03*
X126770000Y-106330000D03*
X129310000Y-106330000D03*
X131850000Y-106330000D03*
X134390000Y-106330000D03*
X136930000Y-106330000D03*
X139470000Y-106330000D03*
X142010000Y-106330000D03*
X144550000Y-106330000D03*
X126770000Y-108870000D03*
X129310000Y-108870000D03*
X131850000Y-108870000D03*
X134390000Y-108870000D03*
X136930000Y-108870000D03*
X139470000Y-108870000D03*
X142010000Y-108870000D03*
X144550000Y-108870000D03*
X126770000Y-111410000D03*
X129310000Y-111410000D03*
X131850000Y-111410000D03*
X134390000Y-111410000D03*
X136930000Y-111410000D03*
X139470000Y-111410000D03*
X142010000Y-111410000D03*
X144550000Y-111410000D03*
X121690000Y-113950000D03*
X124230000Y-113950000D03*
X126770000Y-113950000D03*
X129310000Y-113950000D03*
X131850000Y-113950000D03*
X134390000Y-113950000D03*
X136930000Y-113950000D03*
X139470000Y-113950000D03*
X142010000Y-113950000D03*
X144550000Y-113950000D03*
D13*
X121690000Y-116490000D03*
X124230000Y-116490000D03*
X126770000Y-116490000D03*
X129310000Y-116490000D03*
X131850000Y-116490000D03*
X134390000Y-116490000D03*
X136930000Y-116490000D03*
X139470000Y-116490000D03*
X142010000Y-116490000D03*
X144550000Y-116490000D03*
D15*
X119075000Y-83220000D03*
X117425000Y-83220000D03*
D16*
X124230000Y-111410000D03*
D17*
X121690000Y-111410000D03*
X124230000Y-108870000D03*
X121690000Y-108870000D03*
X124230000Y-106330000D03*
X121690000Y-106330000D03*
X124230000Y-103790000D03*
X121690000Y-103790000D03*
X124230000Y-101250000D03*
X121690000Y-101250000D03*
X124230000Y-98710000D03*
X121690000Y-98710000D03*
X124230000Y-96170000D03*
X121690000Y-96170000D03*
X124230000Y-93630000D03*
X121690000Y-93630000D03*
X124230000Y-91090000D03*
X121690000Y-91090000D03*
X124230000Y-88550000D03*
X121690000Y-88550000D03*
D18*
X149889997Y-96890000D03*
D19*
X152430003Y-96890000D03*
D20*
X153230000Y-89947500D03*
X153230000Y-91772500D03*
D21*
X149119479Y-105039873D03*
X149119479Y-104039873D03*
X149119987Y-103039619D03*
X149119987Y-102039619D03*
D22*
X152995527Y-100739898D03*
X152995019Y-106340102D03*
D23*
X110760000Y-87430000D03*
X111243274Y-86263274D03*
X111243274Y-88596726D03*
X112410000Y-85780000D03*
D24*
X112410000Y-87430000D03*
D23*
X112410000Y-89080000D03*
X113576726Y-86263274D03*
X113576726Y-88596726D03*
X114060000Y-87430000D03*
D25*
X147874892Y-93957102D03*
X148525133Y-93957102D03*
X149175121Y-93957102D03*
X149825108Y-93957102D03*
X149825108Y-88102898D03*
X149175121Y-88102898D03*
X148525133Y-88102898D03*
X147874892Y-88102898D03*
D20*
X147000000Y-95927500D03*
X147000000Y-97752500D03*
D26*
X117252500Y-85400000D03*
X119127500Y-85400000D03*
D20*
X151540000Y-89937500D03*
X151540000Y-91762500D03*
D23*
X110760000Y-112500000D03*
X111243274Y-111333274D03*
X111243274Y-113666726D03*
X112410000Y-110850000D03*
D24*
X112410000Y-112500000D03*
D23*
X112410000Y-114150000D03*
X113576726Y-111333274D03*
X113576726Y-113666726D03*
X114060000Y-112500000D03*
D27*
X150630000Y-102850000D03*
X151280000Y-88300000D03*
X151250000Y-87020000D03*
X147650000Y-101090000D03*
X151435000Y-85810000D03*
X150720000Y-94860000D03*
D28*
X128180000Y-105050000D03*
D27*
X147730000Y-105650000D03*
X149880000Y-99130000D03*
X151040000Y-84430000D03*
D29*
X151280000Y-88300000D02*
X151210000Y-88370000D01*
X130600000Y-105530000D02*
X130600000Y-107090000D01*
X130050000Y-107640000D02*
X126290000Y-107640000D01*
X149825108Y-88102898D02*
X149825108Y-90047608D01*
X126290000Y-107640000D02*
X125560000Y-106910000D01*
X150580000Y-88370000D02*
X150312898Y-88102898D01*
X151210000Y-88370000D02*
X150580000Y-88370000D01*
X150630000Y-102850000D02*
X149309606Y-102850000D01*
X149309606Y-102850000D02*
X149119987Y-103039619D01*
X131030000Y-105100000D02*
X130600000Y-105530000D01*
X150312898Y-88102898D02*
X149825108Y-88102898D01*
X149825108Y-90047608D02*
X151540000Y-91762500D01*
X149119987Y-103039619D02*
X148392727Y-103039619D01*
X148392727Y-103039619D02*
X146332346Y-105100000D01*
X125560000Y-106910000D02*
X125560000Y-105120000D01*
X130600000Y-107090000D02*
X130050000Y-107640000D01*
X146332346Y-105100000D02*
X131030000Y-105100000D01*
X125560000Y-105120000D02*
X124230000Y-103790000D01*
X147830000Y-102530000D02*
X125510000Y-102530000D01*
X148170368Y-101090000D02*
X149119987Y-102039619D01*
X150784794Y-87020000D02*
X150754897Y-87049897D01*
X150754897Y-87049897D02*
X149616964Y-87049897D01*
X150910000Y-92820000D02*
X153160000Y-92820000D01*
X148310000Y-102050000D02*
X147830000Y-102530000D01*
X147650000Y-101090000D02*
X148170368Y-101090000D01*
X149119987Y-102039619D02*
X149109606Y-102050000D01*
X149175121Y-87491740D02*
X149175121Y-88102898D01*
X149109606Y-102050000D02*
X148310000Y-102050000D01*
X149175121Y-88102898D02*
X149175121Y-91085121D01*
X149616964Y-87049897D02*
X149175121Y-87491740D01*
X149175121Y-91085121D02*
X150910000Y-92820000D01*
X151250000Y-87020000D02*
X150784794Y-87020000D01*
X125510000Y-102530000D02*
X124230000Y-101250000D01*
X153160000Y-92820000D02*
X153230000Y-92750000D01*
X153230000Y-92750000D02*
X153230000Y-91772500D01*
X115380000Y-97400000D02*
X100900000Y-97400000D01*
X121690000Y-91090000D02*
X115380000Y-97400000D01*
X117120000Y-98200000D02*
X100900000Y-98200000D01*
X121690000Y-93630000D02*
X117120000Y-98200000D01*
X121690000Y-106330000D02*
X120380000Y-106330000D01*
X116250000Y-102200000D02*
X100900000Y-102200000D01*
X120380000Y-106330000D02*
X116250000Y-102200000D01*
X121690000Y-108870000D02*
X120280000Y-108870000D01*
X120280000Y-108870000D02*
X114410000Y-103000000D01*
X114410000Y-103000000D02*
X100900000Y-103000000D01*
X111990000Y-103800000D02*
X120320000Y-112130000D01*
X113640000Y-96600000D02*
X100500000Y-96600000D01*
X148750000Y-99130000D02*
X149880000Y-99130000D01*
X150630000Y-94770000D02*
X150630000Y-94210000D01*
X121690000Y-88550000D02*
X124230000Y-88550000D01*
X151375000Y-85750000D02*
X151195000Y-85750000D01*
X151145000Y-85700000D02*
X150122500Y-85700000D01*
X149175121Y-93957102D02*
X149825108Y-93957102D01*
X150377102Y-93957102D02*
X149825108Y-93957102D01*
X124775490Y-102520000D02*
X122500000Y-102520000D01*
X151435000Y-85810000D02*
X151375000Y-85750000D01*
X121690000Y-103790000D02*
X119300000Y-101400000D01*
X150720000Y-94860000D02*
X150630000Y-94770000D01*
X148690000Y-99070000D02*
X148750000Y-99130000D01*
X147000000Y-97752500D02*
X147372500Y-97752500D01*
X118860000Y-99000000D02*
X100500000Y-99000000D01*
X126402241Y-105050000D02*
X125520000Y-104167759D01*
D30*
X121690000Y-116490000D02*
X144550000Y-116490000D01*
D29*
X125520000Y-104167759D02*
X125520000Y-103264510D01*
X149119479Y-105039873D02*
X148340127Y-105039873D01*
X150630000Y-94210000D02*
X150377102Y-93957102D01*
X148340127Y-105039873D02*
X147730000Y-105650000D01*
X120402500Y-88550000D02*
X121690000Y-88550000D01*
X147372500Y-97752500D02*
X148690000Y-99070000D01*
X120970000Y-112130000D02*
X121690000Y-111410000D01*
X121690000Y-96170000D02*
X118860000Y-99000000D01*
X125520000Y-103264510D02*
X124775490Y-102520000D01*
X121690000Y-88550000D02*
X113640000Y-96600000D01*
X100500000Y-103800000D02*
X111990000Y-103800000D01*
X119300000Y-101400000D02*
X100500000Y-101400000D01*
X121690000Y-111410000D02*
X124230000Y-111410000D01*
X148525133Y-93957102D02*
X149175121Y-93957102D01*
X147874892Y-93957102D02*
X148525133Y-93957102D01*
X120320000Y-112130000D02*
X120970000Y-112130000D01*
X117252500Y-85400000D02*
X120402500Y-88550000D01*
X128180000Y-105050000D02*
X126402241Y-105050000D01*
X151195000Y-85750000D02*
X151145000Y-85700000D01*
X122500000Y-102520000D02*
X121690000Y-103790000D01*
X117425000Y-83220000D02*
X117425000Y-83697500D01*
X117425000Y-83697500D02*
X119127500Y-85400000D01*
X151460000Y-83480000D02*
X150880000Y-83480000D01*
X119890000Y-100600000D02*
X120540000Y-101250000D01*
X151540000Y-89937500D02*
X152160000Y-89317500D01*
X133120000Y-100000000D02*
X133120000Y-83470000D01*
X120600000Y-99800000D02*
X100900000Y-99800000D01*
X146870000Y-83480000D02*
X146860000Y-83470000D01*
X120540000Y-101250000D02*
X121690000Y-101250000D01*
X152750000Y-83480000D02*
X153170000Y-83900000D01*
X152160000Y-84180000D02*
X151460000Y-83480000D01*
X152430003Y-98609997D02*
X151520000Y-99520000D01*
X121380000Y-83470000D02*
X121130000Y-83220000D01*
X121690000Y-100000000D02*
X133120000Y-100000000D01*
X149740000Y-83810000D02*
X149740000Y-83480000D01*
X148353213Y-84963213D02*
X148353213Y-86196787D01*
X153170000Y-83900000D02*
X153170000Y-83940000D01*
X100900000Y-99800000D02*
X100900000Y-100600000D01*
X151970000Y-103570000D02*
X151500127Y-104039873D01*
X153230000Y-84000000D02*
X153230000Y-89947500D01*
X150880000Y-83480000D02*
X152750000Y-83480000D01*
X133120000Y-83470000D02*
X121690000Y-83470000D01*
X121690000Y-98710000D02*
X120600000Y-99800000D01*
X121130000Y-83220000D02*
X119075000Y-83220000D01*
X150880000Y-83480000D02*
X149740000Y-83480000D01*
X152430003Y-96890000D02*
X152430003Y-98609997D01*
X153170000Y-83940000D02*
X153230000Y-84000000D01*
X149740000Y-83480000D02*
X146870000Y-83480000D01*
D30*
X121690000Y-83470000D02*
X144550000Y-83470000D01*
D29*
X147874892Y-86675108D02*
X147874892Y-88102898D01*
X146860000Y-83470000D02*
X148353213Y-84963213D01*
X121690000Y-83470000D02*
X121380000Y-83470000D01*
X148353213Y-86196787D02*
X147874892Y-86675108D01*
X144550000Y-83470000D02*
X146860000Y-83470000D01*
X121690000Y-101250000D02*
X121690000Y-100000000D01*
X150360000Y-84430000D02*
X149740000Y-83810000D01*
X151970000Y-102420000D02*
X151970000Y-103570000D01*
X151500127Y-104039873D02*
X149119479Y-104039873D01*
X151040000Y-84430000D02*
X150360000Y-84430000D01*
X151520000Y-101970000D02*
X151970000Y-102420000D01*
X152160000Y-89317500D02*
X152160000Y-84180000D01*
X151520000Y-99520000D02*
X151520000Y-101970000D01*
X100900000Y-100600000D02*
X119890000Y-100600000D01*
X148525133Y-90934867D02*
X147000000Y-92460000D01*
X147000000Y-92460000D02*
X147000000Y-95927500D01*
X148525133Y-88102898D02*
X148525133Y-90934867D01*
X147962500Y-96890000D02*
X147000000Y-95927500D01*
X149889997Y-96890000D02*
X147962500Y-96890000D01*
M02*
