%TF.GenerationSoftware,KiCad,Pcbnew,9.0.8+dfsg-1*%
%TF.CreationDate,2026-06-30T15:07:57+02:00*%
%TF.ProjectId,codemyriad-protogon,636f6465-6d79-4726-9961-642d70726f74,rev?*%
%TF.SameCoordinates,Original*%
%TF.FileFunction,Profile,NP*%
%FSLAX46Y46*%
G04 Gerber Fmt 4.6, Leading zero omitted, Abs format (unit mm)*
G04 Created by KiCad (PCBNEW 9.0.8+dfsg-1) date 2026-06-30 15:07:57*
%MOMM*%
%LPD*%
G01*
G04 APERTURE LIST*
%TA.AperFunction,Profile*%
%ADD10C,0.050000*%
%TD*%
%TA.AperFunction,Profile*%
%ADD11C,0.100000*%
%TD*%
G04 APERTURE END LIST*
D10*
X100000000Y-91339750D02*
G75*
G02*
X100500021Y-90473762I1000000J-50D01*
G01*
X148000000Y-118186522D02*
X116499995Y-118186522D01*
X115499995Y-81813472D02*
G75*
G02*
X116499995Y-81813472I500000J-866022D01*
G01*
X115499995Y-118186522D02*
X100500000Y-109526269D01*
X100000000Y-108660243D02*
X100000000Y-106250000D01*
X116499995Y-118186522D02*
G75*
G02*
X115499995Y-118186522I-500000J866022D01*
G01*
X100000000Y-93750000D02*
X100000000Y-91339750D01*
X151273123Y-81816880D02*
X148000000Y-81813472D01*
X100500000Y-90473725D02*
X115499995Y-81813472D01*
X100500000Y-109526269D02*
G75*
G02*
X99999962Y-108660243I500000J866069D01*
G01*
X154270000Y-115189925D02*
G75*
G02*
X151266877Y-118189898I-3000000J25D01*
G01*
D11*
X100000000Y-106250000D02*
G75*
G02*
X100250000Y-106000000I250000J0D01*
G01*
D10*
X151266877Y-118189923D02*
X148000000Y-118186522D01*
D11*
X100250000Y-94000000D02*
G75*
G02*
X100000000Y-93750000I0J250000D01*
G01*
D10*
X154270000Y-84816878D02*
X154270000Y-115189925D01*
X151273123Y-81816880D02*
G75*
G02*
X154270022Y-84816878I-3123J-3000020D01*
G01*
X116499995Y-81813472D02*
X148000000Y-81813472D01*
X98250000Y-104400000D02*
X98250000Y-95600000D01*
X104500000Y-94000000D02*
X100250000Y-94000000D01*
X104500000Y-95400000D02*
X98450000Y-95400000D01*
X104500000Y-104600000D02*
X98450000Y-104600000D01*
X104500000Y-106000000D02*
X100250000Y-106000000D01*
X98250000Y-95600000D02*
G75*
G02*
X98450000Y-95400000I200000J0D01*
G01*
X98450000Y-104600000D02*
G75*
G02*
X98250000Y-104400000I0J200000D01*
G01*
X104500000Y-94000000D02*
G75*
G02*
X105200000Y-94700000I0J-700000D01*
G01*
X104500000Y-104600000D02*
G75*
G02*
X105200000Y-105300000I0J-700000D01*
G01*
X105200000Y-94700000D02*
G75*
G02*
X104500000Y-95400000I-700000J0D01*
G01*
X105200000Y-105300000D02*
G75*
G02*
X104500000Y-106000000I-700000J0D01*
G01*
M02*
