%TF.GenerationSoftware,KiCad,Pcbnew,9.0.8+dfsg-1*%
%TF.CreationDate,2026-07-04T15:01:52+02:00*%
%TF.ProjectId,codemyriad-protogon,636f6465-6d79-4726-9961-642d70726f74,rev?*%
%TF.SameCoordinates,Original*%
%TF.FileFunction,Legend,Top*%
%TF.FilePolarity,Positive*%
%FSLAX46Y46*%
G04 Gerber Fmt 4.6, Leading zero omitted, Abs format (unit mm)*
G04 Created by KiCad (PCBNEW 9.0.8+dfsg-1) date 2026-07-04 15:01:52*
%MOMM*%
%LPD*%
G01*
G04 APERTURE LIST*
G04 Aperture macros list*
%AMRoundRect*
0 Rectangle with rounded corners*
0 $1 Rounding radius*
0 $2 $3 $4 $5 $6 $7 $8 $9 X,Y pos of 4 corners*
0 Add a 4 corners polygon primitive as box body*
4,1,4,$2,$3,$4,$5,$6,$7,$8,$9,$2,$3,0*
0 Add four circle primitives for the rounded corners*
1,1,$1+$1,$2,$3*
1,1,$1+$1,$4,$5*
1,1,$1+$1,$6,$7*
1,1,$1+$1,$8,$9*
0 Add four rect primitives between the rounded corners*
20,1,$1+$1,$2,$3,$4,$5,0*
20,1,$1+$1,$4,$5,$6,$7,0*
20,1,$1+$1,$6,$7,$8,$9,0*
20,1,$1+$1,$8,$9,$2,$3,0*%
G04 Aperture macros list end*
%ADD10C,0.120000*%
%ADD11C,0.150000*%
%ADD12C,0.160000*%
%ADD13C,0.170000*%
%ADD14C,0.130000*%
%ADD15C,0.203200*%
%ADD16C,0.203000*%
%ADD17C,0.254001*%
%ADD18RoundRect,0.150000X1.600000X0.150000X-1.600000X0.150000X-1.600000X-0.150000X1.600000X-0.150000X0*%
%ADD19RoundRect,0.150000X1.200000X0.150000X-1.200000X0.150000X-1.200000X-0.150000X1.200000X-0.150000X0*%
%ADD20RoundRect,0.237500X-0.300000X-0.237500X0.300000X-0.237500X0.300000X0.237500X-0.300000X0.237500X0*%
%ADD21O,1.650000X1.650000*%
%ADD22C,1.650000*%
%ADD23RoundRect,0.200000X0.200000X0.275000X-0.200000X0.275000X-0.200000X-0.275000X0.200000X-0.275000X0*%
%ADD24R,1.700000X1.700000*%
%ADD25O,1.700000X1.700000*%
%ADD26R,2.000000X2.000000*%
%ADD27C,2.000000*%
%ADD28RoundRect,0.237500X-0.237500X0.250000X-0.237500X-0.250000X0.237500X-0.250000X0.237500X0.250000X0*%
%ADD29R,1.550013X0.600000*%
%ADD30R,1.800000X1.200000*%
%ADD31C,0.700000*%
%ADD32C,4.400000*%
%ADD33O,0.353010X1.454001*%
%ADD34RoundRect,0.243750X-0.243750X-0.456250X0.243750X-0.456250X0.243750X0.456250X-0.243750X0.456250X0*%
G04 APERTURE END LIST*
D10*
X108029950Y-100103030D02*
X107191314Y-100103030D01*
X107191314Y-99536488D01*
X108029950Y-99536488D01*
X108029950Y-100103030D01*
G36*
X108029950Y-100103030D02*
G01*
X107191314Y-100103030D01*
X107191314Y-99536488D01*
X108029950Y-99536488D01*
X108029950Y-100103030D01*
G37*
X110222324Y-102652479D02*
X109663227Y-102652479D01*
X109663227Y-101802678D01*
X110222324Y-101802678D01*
X110222324Y-102652479D01*
G36*
X110222324Y-102652479D02*
G01*
X109663227Y-102652479D01*
X109663227Y-101802678D01*
X110222324Y-101802678D01*
X110222324Y-102652479D01*
G37*
X110222368Y-97836853D02*
X109663272Y-97836853D01*
X109663272Y-96987034D01*
X110222368Y-96987034D01*
X110222368Y-97836853D01*
G36*
X110222368Y-97836853D02*
G01*
X109663272Y-97836853D01*
X109663272Y-96987034D01*
X110222368Y-96987034D01*
X110222368Y-97836853D01*
G37*
X112728850Y-100103030D02*
X111890217Y-100103030D01*
X111890217Y-99536488D01*
X112728850Y-99536488D01*
X112728850Y-100103030D01*
G36*
X112728850Y-100103030D02*
G01*
X111890217Y-100103030D01*
X111890217Y-99536488D01*
X112728850Y-99536488D01*
X112728850Y-100103030D01*
G37*
X148881000Y-114023000D02*
X148461000Y-114023000D01*
X148461000Y-113740000D01*
X148881000Y-113740000D01*
X148881000Y-114023000D01*
G36*
X148881000Y-114023000D02*
G01*
X148461000Y-114023000D01*
X148461000Y-113740000D01*
X148881000Y-113740000D01*
X148881000Y-114023000D01*
G37*
X149977000Y-115298000D02*
X149697000Y-115298000D01*
X149697000Y-114873000D01*
X149977000Y-114873000D01*
X149977000Y-115298000D01*
G36*
X149977000Y-115298000D02*
G01*
X149697000Y-115298000D01*
X149697000Y-114873000D01*
X149977000Y-114873000D01*
X149977000Y-115298000D01*
G37*
X149977000Y-112890000D02*
X149697000Y-112890000D01*
X149697000Y-112465000D01*
X149977000Y-112465000D01*
X149977000Y-112890000D01*
G36*
X149977000Y-112890000D02*
G01*
X149697000Y-112890000D01*
X149697000Y-112465000D01*
X149977000Y-112465000D01*
X149977000Y-112890000D01*
G37*
X151230000Y-114023000D02*
X150811000Y-114023000D01*
X150811000Y-113740000D01*
X151230000Y-113740000D01*
X151230000Y-114023000D01*
G36*
X151230000Y-114023000D02*
G01*
X150811000Y-114023000D01*
X150811000Y-113740000D01*
X151230000Y-113740000D01*
X151230000Y-114023000D01*
G37*
X108125560Y-96944279D02*
X106502088Y-99796156D01*
X108105534Y-102612875D01*
X107614163Y-102900575D01*
X105846947Y-99796156D01*
X107634178Y-96656550D01*
X108125560Y-96944279D01*
G36*
X108125560Y-96944279D02*
G01*
X106502088Y-99796156D01*
X108105534Y-102612875D01*
X107614163Y-102900575D01*
X105846947Y-99796156D01*
X107634178Y-96656550D01*
X108125560Y-96944279D01*
G37*
X114046947Y-99796156D02*
X112259726Y-102935761D01*
X111768378Y-102648061D01*
X113391778Y-99796156D01*
X111768378Y-96944292D01*
X112259726Y-96656562D01*
X114046947Y-99796156D01*
G36*
X114046947Y-99796156D02*
G01*
X112259726Y-102935761D01*
X111768378Y-102648061D01*
X113391778Y-99796156D01*
X111768378Y-96944292D01*
X112259726Y-96656562D01*
X114046947Y-99796156D01*
G37*
X148928000Y-112444000D02*
X148117000Y-113870000D01*
X148918000Y-115278000D01*
X148673000Y-115422000D01*
X147789000Y-113870000D01*
X148683000Y-112300000D01*
X148928000Y-112444000D01*
G36*
X148928000Y-112444000D02*
G01*
X148117000Y-113870000D01*
X148918000Y-115278000D01*
X148673000Y-115422000D01*
X147789000Y-113870000D01*
X148683000Y-112300000D01*
X148928000Y-112444000D01*
G37*
X151889000Y-113870000D02*
X150995000Y-115440000D01*
X150750000Y-115296000D01*
X151561000Y-113870000D01*
X150750000Y-112444000D01*
X150995000Y-112300000D01*
X151889000Y-113870000D01*
G36*
X151889000Y-113870000D02*
G01*
X150995000Y-115440000D01*
X150750000Y-115296000D01*
X151561000Y-113870000D01*
X150750000Y-112444000D01*
X150995000Y-112300000D01*
X151889000Y-113870000D01*
G37*
X110738991Y-99772564D02*
X110738991Y-100055823D01*
X110655455Y-100055823D01*
X110298975Y-100055823D01*
X109594963Y-100055823D01*
X109238483Y-100055823D01*
X109154902Y-100055823D01*
X109154902Y-99772564D01*
X109154902Y-99489281D01*
X109238483Y-99489281D01*
X109594963Y-99489281D01*
X110298975Y-99489281D01*
X110655455Y-99489281D01*
X110738991Y-99489281D01*
X110738991Y-99772564D01*
G36*
X110738991Y-99772564D02*
G01*
X110738991Y-100055823D01*
X110655455Y-100055823D01*
X110298975Y-100055823D01*
X109594963Y-100055823D01*
X109238483Y-100055823D01*
X109154902Y-100055823D01*
X109154902Y-99772564D01*
X109154902Y-99489281D01*
X109238483Y-99489281D01*
X109594963Y-99489281D01*
X110298975Y-99489281D01*
X110655455Y-99489281D01*
X110738991Y-99489281D01*
X110738991Y-99772564D01*
G37*
X150235000Y-113858000D02*
X150235000Y-114000000D01*
X150193000Y-114000000D01*
X150015000Y-114000000D01*
X149663000Y-114000000D01*
X149485000Y-114000000D01*
X149443000Y-114000000D01*
X149443000Y-113858000D01*
X149443000Y-113716000D01*
X149485000Y-113716000D01*
X149663000Y-113716000D01*
X150015000Y-113716000D01*
X150193000Y-113716000D01*
X150235000Y-113716000D01*
X150235000Y-113858000D01*
G36*
X150235000Y-113858000D02*
G01*
X150235000Y-114000000D01*
X150193000Y-114000000D01*
X150015000Y-114000000D01*
X149663000Y-114000000D01*
X149485000Y-114000000D01*
X149443000Y-114000000D01*
X149443000Y-113858000D01*
X149443000Y-113716000D01*
X149485000Y-113716000D01*
X149663000Y-113716000D01*
X150015000Y-113716000D01*
X150193000Y-113716000D01*
X150235000Y-113716000D01*
X150235000Y-113858000D01*
G37*
X110084496Y-98125761D02*
X110218995Y-98142372D01*
X110350000Y-98169522D01*
X110477080Y-98206775D01*
X110599802Y-98253692D01*
X110717736Y-98309836D01*
X110830450Y-98374771D01*
X110937511Y-98448057D01*
X111038488Y-98529259D01*
X111132949Y-98617938D01*
X111220464Y-98713658D01*
X111300599Y-98815980D01*
X111372923Y-98924468D01*
X111437004Y-99038683D01*
X111492412Y-99158189D01*
X111538713Y-99282549D01*
X111575477Y-99411324D01*
X111602271Y-99544077D01*
X111618665Y-99680372D01*
X111624225Y-99819770D01*
X111618665Y-99959165D01*
X111602271Y-100095457D01*
X111575477Y-100228209D01*
X111538713Y-100356982D01*
X111492412Y-100481340D01*
X111437004Y-100600845D01*
X111372923Y-100715059D01*
X111300599Y-100823546D01*
X111220464Y-100925867D01*
X111132949Y-101021586D01*
X111038488Y-101110264D01*
X110937511Y-101191466D01*
X110830450Y-101264752D01*
X110717736Y-101329686D01*
X110599802Y-101385830D01*
X110477080Y-101432747D01*
X110350000Y-101470000D01*
X110218995Y-101497150D01*
X110084496Y-101513761D01*
X109946935Y-101519395D01*
X109809375Y-101513761D01*
X109674876Y-101497150D01*
X109543872Y-101470000D01*
X109416793Y-101432747D01*
X109294072Y-101385830D01*
X109176139Y-101329686D01*
X109063427Y-101264752D01*
X108956368Y-101191466D01*
X108855392Y-101110264D01*
X108760932Y-101021586D01*
X108673420Y-100925867D01*
X108593287Y-100823546D01*
X108520964Y-100715059D01*
X108456884Y-100600845D01*
X108401478Y-100481340D01*
X108355177Y-100356982D01*
X108318415Y-100228209D01*
X108291621Y-100095457D01*
X108275228Y-99959165D01*
X108269668Y-99819770D01*
X108828765Y-99819770D01*
X108832471Y-99912698D01*
X108843400Y-100003558D01*
X108861262Y-100092058D01*
X108885771Y-100177906D01*
X108916638Y-100260810D01*
X108953575Y-100340480D01*
X108996295Y-100416623D01*
X109044510Y-100488947D01*
X109097932Y-100557162D01*
X109156273Y-100620975D01*
X109219246Y-100680095D01*
X109286563Y-100734229D01*
X109357935Y-100783088D01*
X109433076Y-100826378D01*
X109511697Y-100863808D01*
X109593511Y-100895087D01*
X109678229Y-100919922D01*
X109765565Y-100938023D01*
X109855229Y-100949097D01*
X109946935Y-100952854D01*
X110038644Y-100949097D01*
X110128312Y-100938023D01*
X110215650Y-100919922D01*
X110300371Y-100895087D01*
X110382186Y-100863808D01*
X110460809Y-100826378D01*
X110535951Y-100783088D01*
X110607325Y-100734229D01*
X110674643Y-100680095D01*
X110737617Y-100620975D01*
X110795959Y-100557162D01*
X110849382Y-100488947D01*
X110897597Y-100416623D01*
X110940318Y-100340480D01*
X110977255Y-100260810D01*
X111008122Y-100177906D01*
X111032631Y-100092058D01*
X111050493Y-100003558D01*
X111061422Y-99912698D01*
X111065128Y-99819770D01*
X111061422Y-99726838D01*
X111050493Y-99635976D01*
X111032631Y-99547474D01*
X111008122Y-99461624D01*
X110977255Y-99378718D01*
X110940318Y-99299047D01*
X110897597Y-99222903D01*
X110849382Y-99150577D01*
X110795959Y-99082362D01*
X110737617Y-99018549D01*
X110674643Y-98959429D01*
X110607325Y-98905294D01*
X110535951Y-98856435D01*
X110460809Y-98813145D01*
X110382186Y-98775715D01*
X110300371Y-98744437D01*
X110215650Y-98719601D01*
X110128312Y-98701501D01*
X110038644Y-98690427D01*
X109946935Y-98686670D01*
X109855229Y-98690427D01*
X109765565Y-98701501D01*
X109678229Y-98719601D01*
X109593511Y-98744437D01*
X109511697Y-98775715D01*
X109433076Y-98813145D01*
X109357935Y-98856435D01*
X109286563Y-98905294D01*
X109219246Y-98959429D01*
X109156273Y-99018549D01*
X109097932Y-99082362D01*
X109044510Y-99150577D01*
X108996295Y-99222903D01*
X108953575Y-99299047D01*
X108916638Y-99378718D01*
X108885771Y-99461624D01*
X108861262Y-99547474D01*
X108843400Y-99635976D01*
X108832471Y-99726838D01*
X108828765Y-99819770D01*
X108269668Y-99819770D01*
X108275228Y-99680372D01*
X108291621Y-99544077D01*
X108318415Y-99411324D01*
X108355177Y-99282549D01*
X108401478Y-99158189D01*
X108456884Y-99038683D01*
X108520964Y-98924468D01*
X108593287Y-98815980D01*
X108673420Y-98713658D01*
X108760932Y-98617938D01*
X108855392Y-98529259D01*
X108956368Y-98448057D01*
X109063427Y-98374771D01*
X109176139Y-98309836D01*
X109294072Y-98253692D01*
X109416793Y-98206775D01*
X109543872Y-98169522D01*
X109674876Y-98142372D01*
X109809375Y-98125761D01*
X109946935Y-98120126D01*
X110084496Y-98125761D01*
G36*
X110084496Y-98125761D02*
G01*
X110218995Y-98142372D01*
X110350000Y-98169522D01*
X110477080Y-98206775D01*
X110599802Y-98253692D01*
X110717736Y-98309836D01*
X110830450Y-98374771D01*
X110937511Y-98448057D01*
X111038488Y-98529259D01*
X111132949Y-98617938D01*
X111220464Y-98713658D01*
X111300599Y-98815980D01*
X111372923Y-98924468D01*
X111437004Y-99038683D01*
X111492412Y-99158189D01*
X111538713Y-99282549D01*
X111575477Y-99411324D01*
X111602271Y-99544077D01*
X111618665Y-99680372D01*
X111624225Y-99819770D01*
X111618665Y-99959165D01*
X111602271Y-100095457D01*
X111575477Y-100228209D01*
X111538713Y-100356982D01*
X111492412Y-100481340D01*
X111437004Y-100600845D01*
X111372923Y-100715059D01*
X111300599Y-100823546D01*
X111220464Y-100925867D01*
X111132949Y-101021586D01*
X111038488Y-101110264D01*
X110937511Y-101191466D01*
X110830450Y-101264752D01*
X110717736Y-101329686D01*
X110599802Y-101385830D01*
X110477080Y-101432747D01*
X110350000Y-101470000D01*
X110218995Y-101497150D01*
X110084496Y-101513761D01*
X109946935Y-101519395D01*
X109809375Y-101513761D01*
X109674876Y-101497150D01*
X109543872Y-101470000D01*
X109416793Y-101432747D01*
X109294072Y-101385830D01*
X109176139Y-101329686D01*
X109063427Y-101264752D01*
X108956368Y-101191466D01*
X108855392Y-101110264D01*
X108760932Y-101021586D01*
X108673420Y-100925867D01*
X108593287Y-100823546D01*
X108520964Y-100715059D01*
X108456884Y-100600845D01*
X108401478Y-100481340D01*
X108355177Y-100356982D01*
X108318415Y-100228209D01*
X108291621Y-100095457D01*
X108275228Y-99959165D01*
X108269668Y-99819770D01*
X108828765Y-99819770D01*
X108832471Y-99912698D01*
X108843400Y-100003558D01*
X108861262Y-100092058D01*
X108885771Y-100177906D01*
X108916638Y-100260810D01*
X108953575Y-100340480D01*
X108996295Y-100416623D01*
X109044510Y-100488947D01*
X109097932Y-100557162D01*
X109156273Y-100620975D01*
X109219246Y-100680095D01*
X109286563Y-100734229D01*
X109357935Y-100783088D01*
X109433076Y-100826378D01*
X109511697Y-100863808D01*
X109593511Y-100895087D01*
X109678229Y-100919922D01*
X109765565Y-100938023D01*
X109855229Y-100949097D01*
X109946935Y-100952854D01*
X110038644Y-100949097D01*
X110128312Y-100938023D01*
X110215650Y-100919922D01*
X110300371Y-100895087D01*
X110382186Y-100863808D01*
X110460809Y-100826378D01*
X110535951Y-100783088D01*
X110607325Y-100734229D01*
X110674643Y-100680095D01*
X110737617Y-100620975D01*
X110795959Y-100557162D01*
X110849382Y-100488947D01*
X110897597Y-100416623D01*
X110940318Y-100340480D01*
X110977255Y-100260810D01*
X111008122Y-100177906D01*
X111032631Y-100092058D01*
X111050493Y-100003558D01*
X111061422Y-99912698D01*
X111065128Y-99819770D01*
X111061422Y-99726838D01*
X111050493Y-99635976D01*
X111032631Y-99547474D01*
X111008122Y-99461624D01*
X110977255Y-99378718D01*
X110940318Y-99299047D01*
X110897597Y-99222903D01*
X110849382Y-99150577D01*
X110795959Y-99082362D01*
X110737617Y-99018549D01*
X110674643Y-98959429D01*
X110607325Y-98905294D01*
X110535951Y-98856435D01*
X110460809Y-98813145D01*
X110382186Y-98775715D01*
X110300371Y-98744437D01*
X110215650Y-98719601D01*
X110128312Y-98701501D01*
X110038644Y-98690427D01*
X109946935Y-98686670D01*
X109855229Y-98690427D01*
X109765565Y-98701501D01*
X109678229Y-98719601D01*
X109593511Y-98744437D01*
X109511697Y-98775715D01*
X109433076Y-98813145D01*
X109357935Y-98856435D01*
X109286563Y-98905294D01*
X109219246Y-98959429D01*
X109156273Y-99018549D01*
X109097932Y-99082362D01*
X109044510Y-99150577D01*
X108996295Y-99222903D01*
X108953575Y-99299047D01*
X108916638Y-99378718D01*
X108885771Y-99461624D01*
X108861262Y-99547474D01*
X108843400Y-99635976D01*
X108832471Y-99726838D01*
X108828765Y-99819770D01*
X108269668Y-99819770D01*
X108275228Y-99680372D01*
X108291621Y-99544077D01*
X108318415Y-99411324D01*
X108355177Y-99282549D01*
X108401478Y-99158189D01*
X108456884Y-99038683D01*
X108520964Y-98924468D01*
X108593287Y-98815980D01*
X108673420Y-98713658D01*
X108760932Y-98617938D01*
X108855392Y-98529259D01*
X108956368Y-98448057D01*
X109063427Y-98374771D01*
X109176139Y-98309836D01*
X109294072Y-98253692D01*
X109416793Y-98206775D01*
X109543872Y-98169522D01*
X109674876Y-98142372D01*
X109809375Y-98125761D01*
X109946935Y-98120126D01*
X110084496Y-98125761D01*
G37*
X149908000Y-113035000D02*
X149975000Y-113043000D01*
X150041000Y-113057000D01*
X150104000Y-113075000D01*
X150165000Y-113099000D01*
X150224000Y-113127000D01*
X150281000Y-113159000D01*
X150334000Y-113196000D01*
X150385000Y-113236000D01*
X150432000Y-113281000D01*
X150476000Y-113329000D01*
X150516000Y-113380000D01*
X150552000Y-113434000D01*
X150584000Y-113491000D01*
X150612000Y-113551000D01*
X150635000Y-113613000D01*
X150653000Y-113677000D01*
X150667000Y-113744000D01*
X150675000Y-113812000D01*
X150678000Y-113882000D01*
X150675000Y-113951000D01*
X150667000Y-114019000D01*
X150653000Y-114086000D01*
X150635000Y-114150000D01*
X150612000Y-114212000D01*
X150584000Y-114272000D01*
X150552000Y-114329000D01*
X150516000Y-114384000D01*
X150476000Y-114435000D01*
X150432000Y-114483000D01*
X150385000Y-114527000D01*
X150334000Y-114567000D01*
X150281000Y-114604000D01*
X150224000Y-114637000D01*
X150165000Y-114665000D01*
X150104000Y-114688000D01*
X150041000Y-114707000D01*
X149975000Y-114720000D01*
X149908000Y-114729000D01*
X149839000Y-114731000D01*
X149770000Y-114729000D01*
X149703000Y-114720000D01*
X149638000Y-114707000D01*
X149574000Y-114688000D01*
X149513000Y-114665000D01*
X149454000Y-114637000D01*
X149397000Y-114604000D01*
X149344000Y-114567000D01*
X149293000Y-114527000D01*
X149246000Y-114483000D01*
X149202000Y-114435000D01*
X149162000Y-114384000D01*
X149126000Y-114329000D01*
X149094000Y-114272000D01*
X149066000Y-114212000D01*
X149043000Y-114150000D01*
X149025000Y-114086000D01*
X149011000Y-114019000D01*
X149003000Y-113951000D01*
X149000000Y-113882000D01*
X149280000Y-113882000D01*
X149282000Y-113928000D01*
X149287000Y-113974000D01*
X149296000Y-114018000D01*
X149308000Y-114061000D01*
X149324000Y-114102000D01*
X149342000Y-114142000D01*
X149364000Y-114180000D01*
X149388000Y-114216000D01*
X149415000Y-114250000D01*
X149444000Y-114282000D01*
X149475000Y-114312000D01*
X149509000Y-114339000D01*
X149545000Y-114363000D01*
X149582000Y-114385000D01*
X149621000Y-114404000D01*
X149662000Y-114419000D01*
X149705000Y-114432000D01*
X149748000Y-114441000D01*
X149793000Y-114446000D01*
X149839000Y-114448000D01*
X149885000Y-114446000D01*
X149930000Y-114441000D01*
X149973000Y-114432000D01*
X150016000Y-114419000D01*
X150057000Y-114404000D01*
X150096000Y-114385000D01*
X150134000Y-114363000D01*
X150169000Y-114339000D01*
X150203000Y-114312000D01*
X150234000Y-114282000D01*
X150264000Y-114250000D01*
X150290000Y-114216000D01*
X150314000Y-114180000D01*
X150336000Y-114142000D01*
X150354000Y-114102000D01*
X150370000Y-114061000D01*
X150382000Y-114018000D01*
X150391000Y-113974000D01*
X150396000Y-113928000D01*
X150398000Y-113882000D01*
X150396000Y-113835000D01*
X150391000Y-113790000D01*
X150382000Y-113745000D01*
X150370000Y-113703000D01*
X150354000Y-113661000D01*
X150336000Y-113621000D01*
X150314000Y-113583000D01*
X150290000Y-113547000D01*
X150264000Y-113513000D01*
X150234000Y-113481000D01*
X150203000Y-113451000D01*
X150169000Y-113424000D01*
X150134000Y-113400000D01*
X150096000Y-113378000D01*
X150057000Y-113360000D01*
X150016000Y-113344000D01*
X149973000Y-113332000D01*
X149930000Y-113323000D01*
X149885000Y-113317000D01*
X149839000Y-113315000D01*
X149793000Y-113317000D01*
X149748000Y-113323000D01*
X149705000Y-113332000D01*
X149662000Y-113344000D01*
X149621000Y-113360000D01*
X149582000Y-113378000D01*
X149545000Y-113400000D01*
X149509000Y-113424000D01*
X149475000Y-113451000D01*
X149444000Y-113481000D01*
X149415000Y-113513000D01*
X149388000Y-113547000D01*
X149364000Y-113583000D01*
X149342000Y-113621000D01*
X149324000Y-113661000D01*
X149308000Y-113703000D01*
X149296000Y-113745000D01*
X149287000Y-113790000D01*
X149282000Y-113835000D01*
X149280000Y-113882000D01*
X149000000Y-113882000D01*
X149003000Y-113812000D01*
X149011000Y-113744000D01*
X149025000Y-113677000D01*
X149043000Y-113613000D01*
X149066000Y-113551000D01*
X149094000Y-113491000D01*
X149126000Y-113434000D01*
X149162000Y-113380000D01*
X149202000Y-113329000D01*
X149246000Y-113281000D01*
X149293000Y-113236000D01*
X149344000Y-113196000D01*
X149397000Y-113159000D01*
X149454000Y-113127000D01*
X149513000Y-113099000D01*
X149574000Y-113075000D01*
X149638000Y-113057000D01*
X149703000Y-113043000D01*
X149770000Y-113035000D01*
X149839000Y-113032000D01*
X149908000Y-113035000D01*
G36*
X149908000Y-113035000D02*
G01*
X149975000Y-113043000D01*
X150041000Y-113057000D01*
X150104000Y-113075000D01*
X150165000Y-113099000D01*
X150224000Y-113127000D01*
X150281000Y-113159000D01*
X150334000Y-113196000D01*
X150385000Y-113236000D01*
X150432000Y-113281000D01*
X150476000Y-113329000D01*
X150516000Y-113380000D01*
X150552000Y-113434000D01*
X150584000Y-113491000D01*
X150612000Y-113551000D01*
X150635000Y-113613000D01*
X150653000Y-113677000D01*
X150667000Y-113744000D01*
X150675000Y-113812000D01*
X150678000Y-113882000D01*
X150675000Y-113951000D01*
X150667000Y-114019000D01*
X150653000Y-114086000D01*
X150635000Y-114150000D01*
X150612000Y-114212000D01*
X150584000Y-114272000D01*
X150552000Y-114329000D01*
X150516000Y-114384000D01*
X150476000Y-114435000D01*
X150432000Y-114483000D01*
X150385000Y-114527000D01*
X150334000Y-114567000D01*
X150281000Y-114604000D01*
X150224000Y-114637000D01*
X150165000Y-114665000D01*
X150104000Y-114688000D01*
X150041000Y-114707000D01*
X149975000Y-114720000D01*
X149908000Y-114729000D01*
X149839000Y-114731000D01*
X149770000Y-114729000D01*
X149703000Y-114720000D01*
X149638000Y-114707000D01*
X149574000Y-114688000D01*
X149513000Y-114665000D01*
X149454000Y-114637000D01*
X149397000Y-114604000D01*
X149344000Y-114567000D01*
X149293000Y-114527000D01*
X149246000Y-114483000D01*
X149202000Y-114435000D01*
X149162000Y-114384000D01*
X149126000Y-114329000D01*
X149094000Y-114272000D01*
X149066000Y-114212000D01*
X149043000Y-114150000D01*
X149025000Y-114086000D01*
X149011000Y-114019000D01*
X149003000Y-113951000D01*
X149000000Y-113882000D01*
X149280000Y-113882000D01*
X149282000Y-113928000D01*
X149287000Y-113974000D01*
X149296000Y-114018000D01*
X149308000Y-114061000D01*
X149324000Y-114102000D01*
X149342000Y-114142000D01*
X149364000Y-114180000D01*
X149388000Y-114216000D01*
X149415000Y-114250000D01*
X149444000Y-114282000D01*
X149475000Y-114312000D01*
X149509000Y-114339000D01*
X149545000Y-114363000D01*
X149582000Y-114385000D01*
X149621000Y-114404000D01*
X149662000Y-114419000D01*
X149705000Y-114432000D01*
X149748000Y-114441000D01*
X149793000Y-114446000D01*
X149839000Y-114448000D01*
X149885000Y-114446000D01*
X149930000Y-114441000D01*
X149973000Y-114432000D01*
X150016000Y-114419000D01*
X150057000Y-114404000D01*
X150096000Y-114385000D01*
X150134000Y-114363000D01*
X150169000Y-114339000D01*
X150203000Y-114312000D01*
X150234000Y-114282000D01*
X150264000Y-114250000D01*
X150290000Y-114216000D01*
X150314000Y-114180000D01*
X150336000Y-114142000D01*
X150354000Y-114102000D01*
X150370000Y-114061000D01*
X150382000Y-114018000D01*
X150391000Y-113974000D01*
X150396000Y-113928000D01*
X150398000Y-113882000D01*
X150396000Y-113835000D01*
X150391000Y-113790000D01*
X150382000Y-113745000D01*
X150370000Y-113703000D01*
X150354000Y-113661000D01*
X150336000Y-113621000D01*
X150314000Y-113583000D01*
X150290000Y-113547000D01*
X150264000Y-113513000D01*
X150234000Y-113481000D01*
X150203000Y-113451000D01*
X150169000Y-113424000D01*
X150134000Y-113400000D01*
X150096000Y-113378000D01*
X150057000Y-113360000D01*
X150016000Y-113344000D01*
X149973000Y-113332000D01*
X149930000Y-113323000D01*
X149885000Y-113317000D01*
X149839000Y-113315000D01*
X149793000Y-113317000D01*
X149748000Y-113323000D01*
X149705000Y-113332000D01*
X149662000Y-113344000D01*
X149621000Y-113360000D01*
X149582000Y-113378000D01*
X149545000Y-113400000D01*
X149509000Y-113424000D01*
X149475000Y-113451000D01*
X149444000Y-113481000D01*
X149415000Y-113513000D01*
X149388000Y-113547000D01*
X149364000Y-113583000D01*
X149342000Y-113621000D01*
X149324000Y-113661000D01*
X149308000Y-113703000D01*
X149296000Y-113745000D01*
X149287000Y-113790000D01*
X149282000Y-113835000D01*
X149280000Y-113882000D01*
X149000000Y-113882000D01*
X149003000Y-113812000D01*
X149011000Y-113744000D01*
X149025000Y-113677000D01*
X149043000Y-113613000D01*
X149066000Y-113551000D01*
X149094000Y-113491000D01*
X149126000Y-113434000D01*
X149162000Y-113380000D01*
X149202000Y-113329000D01*
X149246000Y-113281000D01*
X149293000Y-113236000D01*
X149344000Y-113196000D01*
X149397000Y-113159000D01*
X149454000Y-113127000D01*
X149513000Y-113099000D01*
X149574000Y-113075000D01*
X149638000Y-113057000D01*
X149703000Y-113043000D01*
X149770000Y-113035000D01*
X149839000Y-113032000D01*
X149908000Y-113035000D01*
G37*
D11*
X116972744Y-88150390D02*
X116896554Y-88112295D01*
X116896554Y-88112295D02*
X116782268Y-88112295D01*
X116782268Y-88112295D02*
X116667982Y-88150390D01*
X116667982Y-88150390D02*
X116591792Y-88226580D01*
X116591792Y-88226580D02*
X116553697Y-88302771D01*
X116553697Y-88302771D02*
X116515601Y-88455152D01*
X116515601Y-88455152D02*
X116515601Y-88569438D01*
X116515601Y-88569438D02*
X116553697Y-88721819D01*
X116553697Y-88721819D02*
X116591792Y-88798009D01*
X116591792Y-88798009D02*
X116667982Y-88874200D01*
X116667982Y-88874200D02*
X116782268Y-88912295D01*
X116782268Y-88912295D02*
X116858459Y-88912295D01*
X116858459Y-88912295D02*
X116972744Y-88874200D01*
X116972744Y-88874200D02*
X117010840Y-88836104D01*
X117010840Y-88836104D02*
X117010840Y-88569438D01*
X117010840Y-88569438D02*
X116858459Y-88569438D01*
X117353697Y-88912295D02*
X117353697Y-88112295D01*
X117353697Y-88112295D02*
X117810840Y-88912295D01*
X117810840Y-88912295D02*
X117810840Y-88112295D01*
X118191792Y-88912295D02*
X118191792Y-88112295D01*
X118191792Y-88112295D02*
X118382268Y-88112295D01*
X118382268Y-88112295D02*
X118496554Y-88150390D01*
X118496554Y-88150390D02*
X118572744Y-88226580D01*
X118572744Y-88226580D02*
X118610839Y-88302771D01*
X118610839Y-88302771D02*
X118648935Y-88455152D01*
X118648935Y-88455152D02*
X118648935Y-88569438D01*
X118648935Y-88569438D02*
X118610839Y-88721819D01*
X118610839Y-88721819D02*
X118572744Y-88798009D01*
X118572744Y-88798009D02*
X118496554Y-88874200D01*
X118496554Y-88874200D02*
X118382268Y-88912295D01*
X118382268Y-88912295D02*
X118191792Y-88912295D01*
X116096554Y-91452295D02*
X116096554Y-90652295D01*
X116096554Y-91033247D02*
X116553697Y-91033247D01*
X116553697Y-91452295D02*
X116553697Y-90652295D01*
X116896553Y-91414200D02*
X117010839Y-91452295D01*
X117010839Y-91452295D02*
X117201315Y-91452295D01*
X117201315Y-91452295D02*
X117277506Y-91414200D01*
X117277506Y-91414200D02*
X117315601Y-91376104D01*
X117315601Y-91376104D02*
X117353696Y-91299914D01*
X117353696Y-91299914D02*
X117353696Y-91223723D01*
X117353696Y-91223723D02*
X117315601Y-91147533D01*
X117315601Y-91147533D02*
X117277506Y-91109438D01*
X117277506Y-91109438D02*
X117201315Y-91071342D01*
X117201315Y-91071342D02*
X117048934Y-91033247D01*
X117048934Y-91033247D02*
X116972744Y-90995152D01*
X116972744Y-90995152D02*
X116934649Y-90957057D01*
X116934649Y-90957057D02*
X116896553Y-90880866D01*
X116896553Y-90880866D02*
X116896553Y-90804676D01*
X116896553Y-90804676D02*
X116934649Y-90728485D01*
X116934649Y-90728485D02*
X116972744Y-90690390D01*
X116972744Y-90690390D02*
X117048934Y-90652295D01*
X117048934Y-90652295D02*
X117239411Y-90652295D01*
X117239411Y-90652295D02*
X117353696Y-90690390D01*
X117506078Y-91528485D02*
X118115601Y-91528485D01*
X118572744Y-91033247D02*
X118306078Y-91033247D01*
X118306078Y-91452295D02*
X118306078Y-90652295D01*
X118306078Y-90652295D02*
X118687030Y-90652295D01*
X115982268Y-93992295D02*
X115982268Y-93192295D01*
X115982268Y-93573247D02*
X116439411Y-93573247D01*
X116439411Y-93992295D02*
X116439411Y-93192295D01*
X116782267Y-93954200D02*
X116896553Y-93992295D01*
X116896553Y-93992295D02*
X117087029Y-93992295D01*
X117087029Y-93992295D02*
X117163220Y-93954200D01*
X117163220Y-93954200D02*
X117201315Y-93916104D01*
X117201315Y-93916104D02*
X117239410Y-93839914D01*
X117239410Y-93839914D02*
X117239410Y-93763723D01*
X117239410Y-93763723D02*
X117201315Y-93687533D01*
X117201315Y-93687533D02*
X117163220Y-93649438D01*
X117163220Y-93649438D02*
X117087029Y-93611342D01*
X117087029Y-93611342D02*
X116934648Y-93573247D01*
X116934648Y-93573247D02*
X116858458Y-93535152D01*
X116858458Y-93535152D02*
X116820363Y-93497057D01*
X116820363Y-93497057D02*
X116782267Y-93420866D01*
X116782267Y-93420866D02*
X116782267Y-93344676D01*
X116782267Y-93344676D02*
X116820363Y-93268485D01*
X116820363Y-93268485D02*
X116858458Y-93230390D01*
X116858458Y-93230390D02*
X116934648Y-93192295D01*
X116934648Y-93192295D02*
X117125125Y-93192295D01*
X117125125Y-93192295D02*
X117239410Y-93230390D01*
X117391792Y-94068485D02*
X118001315Y-94068485D01*
X118610839Y-93230390D02*
X118534649Y-93192295D01*
X118534649Y-93192295D02*
X118420363Y-93192295D01*
X118420363Y-93192295D02*
X118306077Y-93230390D01*
X118306077Y-93230390D02*
X118229887Y-93306580D01*
X118229887Y-93306580D02*
X118191792Y-93382771D01*
X118191792Y-93382771D02*
X118153696Y-93535152D01*
X118153696Y-93535152D02*
X118153696Y-93649438D01*
X118153696Y-93649438D02*
X118191792Y-93801819D01*
X118191792Y-93801819D02*
X118229887Y-93878009D01*
X118229887Y-93878009D02*
X118306077Y-93954200D01*
X118306077Y-93954200D02*
X118420363Y-93992295D01*
X118420363Y-93992295D02*
X118496554Y-93992295D01*
X118496554Y-93992295D02*
X118610839Y-93954200D01*
X118610839Y-93954200D02*
X118648935Y-93916104D01*
X118648935Y-93916104D02*
X118648935Y-93649438D01*
X118648935Y-93649438D02*
X118496554Y-93649438D01*
X116972744Y-95770390D02*
X116896554Y-95732295D01*
X116896554Y-95732295D02*
X116782268Y-95732295D01*
X116782268Y-95732295D02*
X116667982Y-95770390D01*
X116667982Y-95770390D02*
X116591792Y-95846580D01*
X116591792Y-95846580D02*
X116553697Y-95922771D01*
X116553697Y-95922771D02*
X116515601Y-96075152D01*
X116515601Y-96075152D02*
X116515601Y-96189438D01*
X116515601Y-96189438D02*
X116553697Y-96341819D01*
X116553697Y-96341819D02*
X116591792Y-96418009D01*
X116591792Y-96418009D02*
X116667982Y-96494200D01*
X116667982Y-96494200D02*
X116782268Y-96532295D01*
X116782268Y-96532295D02*
X116858459Y-96532295D01*
X116858459Y-96532295D02*
X116972744Y-96494200D01*
X116972744Y-96494200D02*
X117010840Y-96456104D01*
X117010840Y-96456104D02*
X117010840Y-96189438D01*
X117010840Y-96189438D02*
X116858459Y-96189438D01*
X117353697Y-96532295D02*
X117353697Y-95732295D01*
X117353697Y-95732295D02*
X117810840Y-96532295D01*
X117810840Y-96532295D02*
X117810840Y-95732295D01*
X118191792Y-96532295D02*
X118191792Y-95732295D01*
X118191792Y-95732295D02*
X118382268Y-95732295D01*
X118382268Y-95732295D02*
X118496554Y-95770390D01*
X118496554Y-95770390D02*
X118572744Y-95846580D01*
X118572744Y-95846580D02*
X118610839Y-95922771D01*
X118610839Y-95922771D02*
X118648935Y-96075152D01*
X118648935Y-96075152D02*
X118648935Y-96189438D01*
X118648935Y-96189438D02*
X118610839Y-96341819D01*
X118610839Y-96341819D02*
X118572744Y-96418009D01*
X118572744Y-96418009D02*
X118496554Y-96494200D01*
X118496554Y-96494200D02*
X118382268Y-96532295D01*
X118382268Y-96532295D02*
X118191792Y-96532295D01*
X116706077Y-98272295D02*
X117201315Y-98272295D01*
X117201315Y-98272295D02*
X116934649Y-98577057D01*
X116934649Y-98577057D02*
X117048934Y-98577057D01*
X117048934Y-98577057D02*
X117125125Y-98615152D01*
X117125125Y-98615152D02*
X117163220Y-98653247D01*
X117163220Y-98653247D02*
X117201315Y-98729438D01*
X117201315Y-98729438D02*
X117201315Y-98919914D01*
X117201315Y-98919914D02*
X117163220Y-98996104D01*
X117163220Y-98996104D02*
X117125125Y-99034200D01*
X117125125Y-99034200D02*
X117048934Y-99072295D01*
X117048934Y-99072295D02*
X116820363Y-99072295D01*
X116820363Y-99072295D02*
X116744172Y-99034200D01*
X116744172Y-99034200D02*
X116706077Y-98996104D01*
X117429887Y-98272295D02*
X117696554Y-99072295D01*
X117696554Y-99072295D02*
X117963220Y-98272295D01*
X118153696Y-98272295D02*
X118648934Y-98272295D01*
X118648934Y-98272295D02*
X118382268Y-98577057D01*
X118382268Y-98577057D02*
X118496553Y-98577057D01*
X118496553Y-98577057D02*
X118572744Y-98615152D01*
X118572744Y-98615152D02*
X118610839Y-98653247D01*
X118610839Y-98653247D02*
X118648934Y-98729438D01*
X118648934Y-98729438D02*
X118648934Y-98919914D01*
X118648934Y-98919914D02*
X118610839Y-98996104D01*
X118610839Y-98996104D02*
X118572744Y-99034200D01*
X118572744Y-99034200D02*
X118496553Y-99072295D01*
X118496553Y-99072295D02*
X118267982Y-99072295D01*
X118267982Y-99072295D02*
X118191791Y-99034200D01*
X118191791Y-99034200D02*
X118153696Y-98996104D01*
X116706077Y-100812295D02*
X117201315Y-100812295D01*
X117201315Y-100812295D02*
X116934649Y-101117057D01*
X116934649Y-101117057D02*
X117048934Y-101117057D01*
X117048934Y-101117057D02*
X117125125Y-101155152D01*
X117125125Y-101155152D02*
X117163220Y-101193247D01*
X117163220Y-101193247D02*
X117201315Y-101269438D01*
X117201315Y-101269438D02*
X117201315Y-101459914D01*
X117201315Y-101459914D02*
X117163220Y-101536104D01*
X117163220Y-101536104D02*
X117125125Y-101574200D01*
X117125125Y-101574200D02*
X117048934Y-101612295D01*
X117048934Y-101612295D02*
X116820363Y-101612295D01*
X116820363Y-101612295D02*
X116744172Y-101574200D01*
X116744172Y-101574200D02*
X116706077Y-101536104D01*
X117429887Y-100812295D02*
X117696554Y-101612295D01*
X117696554Y-101612295D02*
X117963220Y-100812295D01*
X118153696Y-100812295D02*
X118648934Y-100812295D01*
X118648934Y-100812295D02*
X118382268Y-101117057D01*
X118382268Y-101117057D02*
X118496553Y-101117057D01*
X118496553Y-101117057D02*
X118572744Y-101155152D01*
X118572744Y-101155152D02*
X118610839Y-101193247D01*
X118610839Y-101193247D02*
X118648934Y-101269438D01*
X118648934Y-101269438D02*
X118648934Y-101459914D01*
X118648934Y-101459914D02*
X118610839Y-101536104D01*
X118610839Y-101536104D02*
X118572744Y-101574200D01*
X118572744Y-101574200D02*
X118496553Y-101612295D01*
X118496553Y-101612295D02*
X118267982Y-101612295D01*
X118267982Y-101612295D02*
X118191791Y-101574200D01*
X118191791Y-101574200D02*
X118153696Y-101536104D01*
X116972744Y-103390390D02*
X116896554Y-103352295D01*
X116896554Y-103352295D02*
X116782268Y-103352295D01*
X116782268Y-103352295D02*
X116667982Y-103390390D01*
X116667982Y-103390390D02*
X116591792Y-103466580D01*
X116591792Y-103466580D02*
X116553697Y-103542771D01*
X116553697Y-103542771D02*
X116515601Y-103695152D01*
X116515601Y-103695152D02*
X116515601Y-103809438D01*
X116515601Y-103809438D02*
X116553697Y-103961819D01*
X116553697Y-103961819D02*
X116591792Y-104038009D01*
X116591792Y-104038009D02*
X116667982Y-104114200D01*
X116667982Y-104114200D02*
X116782268Y-104152295D01*
X116782268Y-104152295D02*
X116858459Y-104152295D01*
X116858459Y-104152295D02*
X116972744Y-104114200D01*
X116972744Y-104114200D02*
X117010840Y-104076104D01*
X117010840Y-104076104D02*
X117010840Y-103809438D01*
X117010840Y-103809438D02*
X116858459Y-103809438D01*
X117353697Y-104152295D02*
X117353697Y-103352295D01*
X117353697Y-103352295D02*
X117810840Y-104152295D01*
X117810840Y-104152295D02*
X117810840Y-103352295D01*
X118191792Y-104152295D02*
X118191792Y-103352295D01*
X118191792Y-103352295D02*
X118382268Y-103352295D01*
X118382268Y-103352295D02*
X118496554Y-103390390D01*
X118496554Y-103390390D02*
X118572744Y-103466580D01*
X118572744Y-103466580D02*
X118610839Y-103542771D01*
X118610839Y-103542771D02*
X118648935Y-103695152D01*
X118648935Y-103695152D02*
X118648935Y-103809438D01*
X118648935Y-103809438D02*
X118610839Y-103961819D01*
X118610839Y-103961819D02*
X118572744Y-104038009D01*
X118572744Y-104038009D02*
X118496554Y-104114200D01*
X118496554Y-104114200D02*
X118382268Y-104152295D01*
X118382268Y-104152295D02*
X118191792Y-104152295D01*
X115944173Y-106692295D02*
X115944173Y-105892295D01*
X115944173Y-106273247D02*
X116401316Y-106273247D01*
X116401316Y-106692295D02*
X116401316Y-105892295D01*
X116744172Y-106654200D02*
X116858458Y-106692295D01*
X116858458Y-106692295D02*
X117048934Y-106692295D01*
X117048934Y-106692295D02*
X117125125Y-106654200D01*
X117125125Y-106654200D02*
X117163220Y-106616104D01*
X117163220Y-106616104D02*
X117201315Y-106539914D01*
X117201315Y-106539914D02*
X117201315Y-106463723D01*
X117201315Y-106463723D02*
X117163220Y-106387533D01*
X117163220Y-106387533D02*
X117125125Y-106349438D01*
X117125125Y-106349438D02*
X117048934Y-106311342D01*
X117048934Y-106311342D02*
X116896553Y-106273247D01*
X116896553Y-106273247D02*
X116820363Y-106235152D01*
X116820363Y-106235152D02*
X116782268Y-106197057D01*
X116782268Y-106197057D02*
X116744172Y-106120866D01*
X116744172Y-106120866D02*
X116744172Y-106044676D01*
X116744172Y-106044676D02*
X116782268Y-105968485D01*
X116782268Y-105968485D02*
X116820363Y-105930390D01*
X116820363Y-105930390D02*
X116896553Y-105892295D01*
X116896553Y-105892295D02*
X117087030Y-105892295D01*
X117087030Y-105892295D02*
X117201315Y-105930390D01*
X117353697Y-106768485D02*
X117963220Y-106768485D01*
X118153697Y-106692295D02*
X118153697Y-105892295D01*
X118153697Y-106273247D02*
X118610840Y-106273247D01*
X118610840Y-106692295D02*
X118610840Y-105892295D01*
X116401316Y-109232295D02*
X116401316Y-108432295D01*
X116401316Y-108813247D02*
X116858459Y-108813247D01*
X116858459Y-109232295D02*
X116858459Y-108432295D01*
X117201315Y-109194200D02*
X117315601Y-109232295D01*
X117315601Y-109232295D02*
X117506077Y-109232295D01*
X117506077Y-109232295D02*
X117582268Y-109194200D01*
X117582268Y-109194200D02*
X117620363Y-109156104D01*
X117620363Y-109156104D02*
X117658458Y-109079914D01*
X117658458Y-109079914D02*
X117658458Y-109003723D01*
X117658458Y-109003723D02*
X117620363Y-108927533D01*
X117620363Y-108927533D02*
X117582268Y-108889438D01*
X117582268Y-108889438D02*
X117506077Y-108851342D01*
X117506077Y-108851342D02*
X117353696Y-108813247D01*
X117353696Y-108813247D02*
X117277506Y-108775152D01*
X117277506Y-108775152D02*
X117239411Y-108737057D01*
X117239411Y-108737057D02*
X117201315Y-108660866D01*
X117201315Y-108660866D02*
X117201315Y-108584676D01*
X117201315Y-108584676D02*
X117239411Y-108508485D01*
X117239411Y-108508485D02*
X117277506Y-108470390D01*
X117277506Y-108470390D02*
X117353696Y-108432295D01*
X117353696Y-108432295D02*
X117544173Y-108432295D01*
X117544173Y-108432295D02*
X117658458Y-108470390D01*
X117810840Y-109308485D02*
X118420363Y-109308485D01*
X118610840Y-109232295D02*
X118610840Y-108432295D01*
X116972744Y-111010390D02*
X116896554Y-110972295D01*
X116896554Y-110972295D02*
X116782268Y-110972295D01*
X116782268Y-110972295D02*
X116667982Y-111010390D01*
X116667982Y-111010390D02*
X116591792Y-111086580D01*
X116591792Y-111086580D02*
X116553697Y-111162771D01*
X116553697Y-111162771D02*
X116515601Y-111315152D01*
X116515601Y-111315152D02*
X116515601Y-111429438D01*
X116515601Y-111429438D02*
X116553697Y-111581819D01*
X116553697Y-111581819D02*
X116591792Y-111658009D01*
X116591792Y-111658009D02*
X116667982Y-111734200D01*
X116667982Y-111734200D02*
X116782268Y-111772295D01*
X116782268Y-111772295D02*
X116858459Y-111772295D01*
X116858459Y-111772295D02*
X116972744Y-111734200D01*
X116972744Y-111734200D02*
X117010840Y-111696104D01*
X117010840Y-111696104D02*
X117010840Y-111429438D01*
X117010840Y-111429438D02*
X116858459Y-111429438D01*
X117353697Y-111772295D02*
X117353697Y-110972295D01*
X117353697Y-110972295D02*
X117810840Y-111772295D01*
X117810840Y-111772295D02*
X117810840Y-110972295D01*
X118191792Y-111772295D02*
X118191792Y-110972295D01*
X118191792Y-110972295D02*
X118382268Y-110972295D01*
X118382268Y-110972295D02*
X118496554Y-111010390D01*
X118496554Y-111010390D02*
X118572744Y-111086580D01*
X118572744Y-111086580D02*
X118610839Y-111162771D01*
X118610839Y-111162771D02*
X118648935Y-111315152D01*
X118648935Y-111315152D02*
X118648935Y-111429438D01*
X118648935Y-111429438D02*
X118610839Y-111581819D01*
X118610839Y-111581819D02*
X118572744Y-111658009D01*
X118572744Y-111658009D02*
X118496554Y-111734200D01*
X118496554Y-111734200D02*
X118382268Y-111772295D01*
X118382268Y-111772295D02*
X118191792Y-111772295D01*
D12*
X145849498Y-83081775D02*
X146344736Y-83081775D01*
X146344736Y-83081775D02*
X146078070Y-83386537D01*
X146078070Y-83386537D02*
X146192355Y-83386537D01*
X146192355Y-83386537D02*
X146268546Y-83424632D01*
X146268546Y-83424632D02*
X146306641Y-83462727D01*
X146306641Y-83462727D02*
X146344736Y-83538918D01*
X146344736Y-83538918D02*
X146344736Y-83729394D01*
X146344736Y-83729394D02*
X146306641Y-83805584D01*
X146306641Y-83805584D02*
X146268546Y-83843680D01*
X146268546Y-83843680D02*
X146192355Y-83881775D01*
X146192355Y-83881775D02*
X145963784Y-83881775D01*
X145963784Y-83881775D02*
X145887593Y-83843680D01*
X145887593Y-83843680D02*
X145849498Y-83805584D01*
X146573308Y-83081775D02*
X146839975Y-83881775D01*
X146839975Y-83881775D02*
X147106641Y-83081775D01*
X147297117Y-83081775D02*
X147792355Y-83081775D01*
X147792355Y-83081775D02*
X147525689Y-83386537D01*
X147525689Y-83386537D02*
X147639974Y-83386537D01*
X147639974Y-83386537D02*
X147716165Y-83424632D01*
X147716165Y-83424632D02*
X147754260Y-83462727D01*
X147754260Y-83462727D02*
X147792355Y-83538918D01*
X147792355Y-83538918D02*
X147792355Y-83729394D01*
X147792355Y-83729394D02*
X147754260Y-83805584D01*
X147754260Y-83805584D02*
X147716165Y-83843680D01*
X147716165Y-83843680D02*
X147639974Y-83881775D01*
X147639974Y-83881775D02*
X147411403Y-83881775D01*
X147411403Y-83881775D02*
X147335212Y-83843680D01*
X147335212Y-83843680D02*
X147297117Y-83805584D01*
X146266165Y-115899870D02*
X146189975Y-115861775D01*
X146189975Y-115861775D02*
X146075689Y-115861775D01*
X146075689Y-115861775D02*
X145961403Y-115899870D01*
X145961403Y-115899870D02*
X145885213Y-115976060D01*
X145885213Y-115976060D02*
X145847118Y-116052251D01*
X145847118Y-116052251D02*
X145809022Y-116204632D01*
X145809022Y-116204632D02*
X145809022Y-116318918D01*
X145809022Y-116318918D02*
X145847118Y-116471299D01*
X145847118Y-116471299D02*
X145885213Y-116547489D01*
X145885213Y-116547489D02*
X145961403Y-116623680D01*
X145961403Y-116623680D02*
X146075689Y-116661775D01*
X146075689Y-116661775D02*
X146151880Y-116661775D01*
X146151880Y-116661775D02*
X146266165Y-116623680D01*
X146266165Y-116623680D02*
X146304261Y-116585584D01*
X146304261Y-116585584D02*
X146304261Y-116318918D01*
X146304261Y-116318918D02*
X146151880Y-116318918D01*
X146647118Y-116661775D02*
X146647118Y-115861775D01*
X146647118Y-115861775D02*
X147104261Y-116661775D01*
X147104261Y-116661775D02*
X147104261Y-115861775D01*
X147485213Y-116661775D02*
X147485213Y-115861775D01*
X147485213Y-115861775D02*
X147675689Y-115861775D01*
X147675689Y-115861775D02*
X147789975Y-115899870D01*
X147789975Y-115899870D02*
X147866165Y-115976060D01*
X147866165Y-115976060D02*
X147904260Y-116052251D01*
X147904260Y-116052251D02*
X147942356Y-116204632D01*
X147942356Y-116204632D02*
X147942356Y-116318918D01*
X147942356Y-116318918D02*
X147904260Y-116471299D01*
X147904260Y-116471299D02*
X147866165Y-116547489D01*
X147866165Y-116547489D02*
X147789975Y-116623680D01*
X147789975Y-116623680D02*
X147675689Y-116661775D01*
X147675689Y-116661775D02*
X147485213Y-116661775D01*
D13*
X101997970Y-108875216D02*
X101907625Y-108869793D01*
X101907625Y-108869793D02*
X101767411Y-108788841D01*
X101767411Y-108788841D02*
X101717543Y-108713311D01*
X101717543Y-108713311D02*
X101702727Y-108658020D01*
X101702727Y-108658020D02*
X101708150Y-108567675D01*
X101708150Y-108567675D02*
X101829579Y-108357354D01*
X101829579Y-108357354D02*
X101905108Y-108307486D01*
X101905108Y-108307486D02*
X101960400Y-108292670D01*
X101960400Y-108292670D02*
X102050745Y-108298093D01*
X102050745Y-108298093D02*
X102190958Y-108379045D01*
X102190958Y-108379045D02*
X102240827Y-108454575D01*
X102398372Y-109153126D02*
X102348504Y-109077597D01*
X102348504Y-109077597D02*
X102333688Y-109022305D01*
X102333688Y-109022305D02*
X102339111Y-108931960D01*
X102339111Y-108931960D02*
X102460540Y-108721640D01*
X102460540Y-108721640D02*
X102536069Y-108671771D01*
X102536069Y-108671771D02*
X102591361Y-108656956D01*
X102591361Y-108656956D02*
X102681706Y-108662379D01*
X102681706Y-108662379D02*
X102786866Y-108723093D01*
X102786866Y-108723093D02*
X102836735Y-108798622D01*
X102836735Y-108798622D02*
X102851550Y-108853914D01*
X102851550Y-108853914D02*
X102846127Y-108944259D01*
X102846127Y-108944259D02*
X102724699Y-109154579D01*
X102724699Y-109154579D02*
X102649169Y-109204448D01*
X102649169Y-109204448D02*
X102593878Y-109219263D01*
X102593878Y-109219263D02*
X102503533Y-109213841D01*
X102503533Y-109213841D02*
X102398372Y-109153126D01*
X103274708Y-109659079D02*
X103699708Y-108922957D01*
X103294946Y-109624025D02*
X103204601Y-109618603D01*
X103204601Y-109618603D02*
X103064387Y-109537650D01*
X103064387Y-109537650D02*
X103014519Y-109462121D01*
X103014519Y-109462121D02*
X102999703Y-109406829D01*
X102999703Y-109406829D02*
X103005126Y-109316484D01*
X103005126Y-109316484D02*
X103126555Y-109106164D01*
X103126555Y-109106164D02*
X103202084Y-109056295D01*
X103202084Y-109056295D02*
X103257376Y-109041480D01*
X103257376Y-109041480D02*
X103347721Y-109046903D01*
X103347721Y-109046903D02*
X103487934Y-109127855D01*
X103487934Y-109127855D02*
X103537803Y-109203385D01*
X103925908Y-109988311D02*
X103835563Y-109982889D01*
X103835563Y-109982889D02*
X103695349Y-109901936D01*
X103695349Y-109901936D02*
X103645480Y-109826407D01*
X103645480Y-109826407D02*
X103650903Y-109736062D01*
X103650903Y-109736062D02*
X103812808Y-109455634D01*
X103812808Y-109455634D02*
X103888338Y-109405766D01*
X103888338Y-109405766D02*
X103978682Y-109411189D01*
X103978682Y-109411189D02*
X104118896Y-109492141D01*
X104118896Y-109492141D02*
X104168765Y-109567670D01*
X104168765Y-109567670D02*
X104163342Y-109658015D01*
X104163342Y-109658015D02*
X104122866Y-109728122D01*
X104122866Y-109728122D02*
X103731856Y-109595848D01*
X104256203Y-110225746D02*
X104539537Y-109734998D01*
X104499060Y-109805105D02*
X104554352Y-109790289D01*
X104554352Y-109790289D02*
X104644697Y-109795712D01*
X104644697Y-109795712D02*
X104749857Y-109856426D01*
X104749857Y-109856426D02*
X104799726Y-109931956D01*
X104799726Y-109931956D02*
X104794303Y-110022301D01*
X104794303Y-110022301D02*
X104571684Y-110407888D01*
X104794303Y-110022301D02*
X104869833Y-109972432D01*
X104869833Y-109972432D02*
X104960178Y-109977855D01*
X104960178Y-109977855D02*
X105065338Y-110038569D01*
X105065338Y-110038569D02*
X105115207Y-110114099D01*
X105115207Y-110114099D02*
X105109784Y-110204444D01*
X105109784Y-110204444D02*
X104887165Y-110590031D01*
X105450925Y-110261188D02*
X105342859Y-110853126D01*
X105801459Y-110463569D02*
X105342859Y-110853126D01*
X105342859Y-110853126D02*
X105171561Y-110987917D01*
X105171561Y-110987917D02*
X105116270Y-111002733D01*
X105116270Y-111002733D02*
X105025925Y-110997310D01*
X105798553Y-111116222D02*
X106081886Y-110625474D01*
X106000934Y-110765687D02*
X106076464Y-110715819D01*
X106076464Y-110715819D02*
X106131755Y-110701003D01*
X106131755Y-110701003D02*
X106222100Y-110706426D01*
X106222100Y-110706426D02*
X106292207Y-110746902D01*
X106254247Y-111379317D02*
X106537580Y-110888569D01*
X106679247Y-110643195D02*
X106623955Y-110658010D01*
X106623955Y-110658010D02*
X106638771Y-110713302D01*
X106638771Y-110713302D02*
X106694062Y-110698486D01*
X106694062Y-110698486D02*
X106679247Y-110643195D01*
X106679247Y-110643195D02*
X106638771Y-110713302D01*
X106920262Y-111763840D02*
X107142881Y-111378253D01*
X107142881Y-111378253D02*
X107148304Y-111287908D01*
X107148304Y-111287908D02*
X107098435Y-111212378D01*
X107098435Y-111212378D02*
X106958221Y-111131426D01*
X106958221Y-111131426D02*
X106867876Y-111126003D01*
X106940500Y-111728787D02*
X106850155Y-111723364D01*
X106850155Y-111723364D02*
X106674888Y-111622174D01*
X106674888Y-111622174D02*
X106625019Y-111546644D01*
X106625019Y-111546644D02*
X106630442Y-111456299D01*
X106630442Y-111456299D02*
X106670918Y-111386192D01*
X106670918Y-111386192D02*
X106746448Y-111336324D01*
X106746448Y-111336324D02*
X106836793Y-111341746D01*
X106836793Y-111341746D02*
X107012060Y-111442937D01*
X107012060Y-111442937D02*
X107102405Y-111448360D01*
X107586277Y-112148364D02*
X108011277Y-111412243D01*
X107606515Y-112113311D02*
X107516170Y-112107888D01*
X107516170Y-112107888D02*
X107375956Y-112026936D01*
X107375956Y-112026936D02*
X107326088Y-111951406D01*
X107326088Y-111951406D02*
X107311272Y-111896115D01*
X107311272Y-111896115D02*
X107316695Y-111805770D01*
X107316695Y-111805770D02*
X107438124Y-111595449D01*
X107438124Y-111595449D02*
X107513653Y-111545581D01*
X107513653Y-111545581D02*
X107568945Y-111530765D01*
X107568945Y-111530765D02*
X107659290Y-111536188D01*
X107659290Y-111536188D02*
X107799503Y-111617140D01*
X107799503Y-111617140D02*
X107849372Y-111692670D01*
X107977287Y-112280639D02*
X107992103Y-112335930D01*
X107992103Y-112335930D02*
X107936811Y-112350746D01*
X107936811Y-112350746D02*
X107921996Y-112295454D01*
X107921996Y-112295454D02*
X107977287Y-112280639D01*
X107977287Y-112280639D02*
X107936811Y-112350746D01*
X108287345Y-112553127D02*
X108570679Y-112062379D01*
X108712345Y-111817005D02*
X108657054Y-111831820D01*
X108657054Y-111831820D02*
X108671869Y-111887112D01*
X108671869Y-111887112D02*
X108727161Y-111872296D01*
X108727161Y-111872296D02*
X108712345Y-111817005D01*
X108712345Y-111817005D02*
X108671869Y-111887112D01*
X108743040Y-112816222D02*
X108693171Y-112740692D01*
X108693171Y-112740692D02*
X108678356Y-112685401D01*
X108678356Y-112685401D02*
X108683779Y-112595056D01*
X108683779Y-112595056D02*
X108805207Y-112384735D01*
X108805207Y-112384735D02*
X108880737Y-112334867D01*
X108880737Y-112334867D02*
X108936028Y-112320051D01*
X108936028Y-112320051D02*
X109026373Y-112325474D01*
X109026373Y-112325474D02*
X109131533Y-112386188D01*
X109131533Y-112386188D02*
X109181402Y-112461718D01*
X109181402Y-112461718D02*
X109196217Y-112517009D01*
X109196217Y-112517009D02*
X109190795Y-112607354D01*
X109190795Y-112607354D02*
X109069366Y-112817675D01*
X109069366Y-112817675D02*
X108993837Y-112867544D01*
X108993837Y-112867544D02*
X108938545Y-112882359D01*
X108938545Y-112882359D02*
X108848200Y-112876936D01*
X108848200Y-112876936D02*
X108743040Y-112816222D01*
D14*
X148650000Y-94317073D02*
X148816666Y-95017073D01*
X148816666Y-95017073D02*
X148950000Y-94517073D01*
X148950000Y-94517073D02*
X149083333Y-95017073D01*
X149083333Y-95017073D02*
X149250000Y-94317073D01*
X149516666Y-95017073D02*
X149516666Y-94317073D01*
X149516666Y-94317073D02*
X149783333Y-94317073D01*
X149783333Y-94317073D02*
X149850000Y-94350406D01*
X149850000Y-94350406D02*
X149883333Y-94383740D01*
X149883333Y-94383740D02*
X149916666Y-94450406D01*
X149916666Y-94450406D02*
X149916666Y-94550406D01*
X149916666Y-94550406D02*
X149883333Y-94617073D01*
X149883333Y-94617073D02*
X149850000Y-94650406D01*
X149850000Y-94650406D02*
X149783333Y-94683740D01*
X149783333Y-94683740D02*
X149516666Y-94683740D01*
X150210000Y-107250406D02*
X150210000Y-107950406D01*
X150210000Y-107683740D02*
X150143334Y-107717073D01*
X150143334Y-107717073D02*
X150010000Y-107717073D01*
X150010000Y-107717073D02*
X149943334Y-107683740D01*
X149943334Y-107683740D02*
X149910000Y-107650406D01*
X149910000Y-107650406D02*
X149876667Y-107583740D01*
X149876667Y-107583740D02*
X149876667Y-107383740D01*
X149876667Y-107383740D02*
X149910000Y-107317073D01*
X149910000Y-107317073D02*
X149943334Y-107283740D01*
X149943334Y-107283740D02*
X150010000Y-107250406D01*
X150010000Y-107250406D02*
X150143334Y-107250406D01*
X150143334Y-107250406D02*
X150210000Y-107283740D01*
X150476667Y-107250406D02*
X150610000Y-107717073D01*
X150610000Y-107717073D02*
X150743333Y-107383740D01*
X150743333Y-107383740D02*
X150876667Y-107717073D01*
X150876667Y-107717073D02*
X151010000Y-107250406D01*
X151276666Y-107717073D02*
X151276666Y-107250406D01*
X151276666Y-107017073D02*
X151243333Y-107050406D01*
X151243333Y-107050406D02*
X151276666Y-107083740D01*
X151276666Y-107083740D02*
X151310000Y-107050406D01*
X151310000Y-107050406D02*
X151276666Y-107017073D01*
X151276666Y-107017073D02*
X151276666Y-107083740D01*
X151609999Y-107717073D02*
X151609999Y-107250406D01*
X151609999Y-107017073D02*
X151576666Y-107050406D01*
X151576666Y-107050406D02*
X151609999Y-107083740D01*
X151609999Y-107083740D02*
X151643333Y-107050406D01*
X151643333Y-107050406D02*
X151609999Y-107017073D01*
X151609999Y-107017073D02*
X151609999Y-107083740D01*
X152243332Y-107683740D02*
X152176666Y-107717073D01*
X152176666Y-107717073D02*
X152043332Y-107717073D01*
X152043332Y-107717073D02*
X151976666Y-107683740D01*
X151976666Y-107683740D02*
X151943332Y-107650406D01*
X151943332Y-107650406D02*
X151909999Y-107583740D01*
X151909999Y-107583740D02*
X151909999Y-107383740D01*
X151909999Y-107383740D02*
X151943332Y-107317073D01*
X151943332Y-107317073D02*
X151976666Y-107283740D01*
X151976666Y-107283740D02*
X152043332Y-107250406D01*
X152043332Y-107250406D02*
X152176666Y-107250406D01*
X152176666Y-107250406D02*
X152243332Y-107283740D01*
D11*
X147016779Y-108743152D02*
X147016779Y-109743152D01*
X147016779Y-108790771D02*
X147112017Y-108743152D01*
X147112017Y-108743152D02*
X147302493Y-108743152D01*
X147302493Y-108743152D02*
X147397731Y-108790771D01*
X147397731Y-108790771D02*
X147445350Y-108838390D01*
X147445350Y-108838390D02*
X147492969Y-108933628D01*
X147492969Y-108933628D02*
X147492969Y-109219342D01*
X147492969Y-109219342D02*
X147445350Y-109314580D01*
X147445350Y-109314580D02*
X147397731Y-109362200D01*
X147397731Y-109362200D02*
X147302493Y-109409819D01*
X147302493Y-109409819D02*
X147112017Y-109409819D01*
X147112017Y-109409819D02*
X147016779Y-109362200D01*
X147921541Y-109409819D02*
X147921541Y-108743152D01*
X147921541Y-108933628D02*
X147969160Y-108838390D01*
X147969160Y-108838390D02*
X148016779Y-108790771D01*
X148016779Y-108790771D02*
X148112017Y-108743152D01*
X148112017Y-108743152D02*
X148207255Y-108743152D01*
X148683446Y-109409819D02*
X148588208Y-109362200D01*
X148588208Y-109362200D02*
X148540589Y-109314580D01*
X148540589Y-109314580D02*
X148492970Y-109219342D01*
X148492970Y-109219342D02*
X148492970Y-108933628D01*
X148492970Y-108933628D02*
X148540589Y-108838390D01*
X148540589Y-108838390D02*
X148588208Y-108790771D01*
X148588208Y-108790771D02*
X148683446Y-108743152D01*
X148683446Y-108743152D02*
X148826303Y-108743152D01*
X148826303Y-108743152D02*
X148921541Y-108790771D01*
X148921541Y-108790771D02*
X148969160Y-108838390D01*
X148969160Y-108838390D02*
X149016779Y-108933628D01*
X149016779Y-108933628D02*
X149016779Y-109219342D01*
X149016779Y-109219342D02*
X148969160Y-109314580D01*
X148969160Y-109314580D02*
X148921541Y-109362200D01*
X148921541Y-109362200D02*
X148826303Y-109409819D01*
X148826303Y-109409819D02*
X148683446Y-109409819D01*
X149302494Y-108743152D02*
X149683446Y-108743152D01*
X149445351Y-108409819D02*
X149445351Y-109266961D01*
X149445351Y-109266961D02*
X149492970Y-109362200D01*
X149492970Y-109362200D02*
X149588208Y-109409819D01*
X149588208Y-109409819D02*
X149683446Y-109409819D01*
X150159637Y-109409819D02*
X150064399Y-109362200D01*
X150064399Y-109362200D02*
X150016780Y-109314580D01*
X150016780Y-109314580D02*
X149969161Y-109219342D01*
X149969161Y-109219342D02*
X149969161Y-108933628D01*
X149969161Y-108933628D02*
X150016780Y-108838390D01*
X150016780Y-108838390D02*
X150064399Y-108790771D01*
X150064399Y-108790771D02*
X150159637Y-108743152D01*
X150159637Y-108743152D02*
X150302494Y-108743152D01*
X150302494Y-108743152D02*
X150397732Y-108790771D01*
X150397732Y-108790771D02*
X150445351Y-108838390D01*
X150445351Y-108838390D02*
X150492970Y-108933628D01*
X150492970Y-108933628D02*
X150492970Y-109219342D01*
X150492970Y-109219342D02*
X150445351Y-109314580D01*
X150445351Y-109314580D02*
X150397732Y-109362200D01*
X150397732Y-109362200D02*
X150302494Y-109409819D01*
X150302494Y-109409819D02*
X150159637Y-109409819D01*
X151350113Y-108743152D02*
X151350113Y-109552676D01*
X151350113Y-109552676D02*
X151302494Y-109647914D01*
X151302494Y-109647914D02*
X151254875Y-109695533D01*
X151254875Y-109695533D02*
X151159637Y-109743152D01*
X151159637Y-109743152D02*
X151016780Y-109743152D01*
X151016780Y-109743152D02*
X150921542Y-109695533D01*
X151350113Y-109362200D02*
X151254875Y-109409819D01*
X151254875Y-109409819D02*
X151064399Y-109409819D01*
X151064399Y-109409819D02*
X150969161Y-109362200D01*
X150969161Y-109362200D02*
X150921542Y-109314580D01*
X150921542Y-109314580D02*
X150873923Y-109219342D01*
X150873923Y-109219342D02*
X150873923Y-108933628D01*
X150873923Y-108933628D02*
X150921542Y-108838390D01*
X150921542Y-108838390D02*
X150969161Y-108790771D01*
X150969161Y-108790771D02*
X151064399Y-108743152D01*
X151064399Y-108743152D02*
X151254875Y-108743152D01*
X151254875Y-108743152D02*
X151350113Y-108790771D01*
X151969161Y-109409819D02*
X151873923Y-109362200D01*
X151873923Y-109362200D02*
X151826304Y-109314580D01*
X151826304Y-109314580D02*
X151778685Y-109219342D01*
X151778685Y-109219342D02*
X151778685Y-108933628D01*
X151778685Y-108933628D02*
X151826304Y-108838390D01*
X151826304Y-108838390D02*
X151873923Y-108790771D01*
X151873923Y-108790771D02*
X151969161Y-108743152D01*
X151969161Y-108743152D02*
X152112018Y-108743152D01*
X152112018Y-108743152D02*
X152207256Y-108790771D01*
X152207256Y-108790771D02*
X152254875Y-108838390D01*
X152254875Y-108838390D02*
X152302494Y-108933628D01*
X152302494Y-108933628D02*
X152302494Y-109219342D01*
X152302494Y-109219342D02*
X152254875Y-109314580D01*
X152254875Y-109314580D02*
X152207256Y-109362200D01*
X152207256Y-109362200D02*
X152112018Y-109409819D01*
X152112018Y-109409819D02*
X151969161Y-109409819D01*
X152731066Y-108743152D02*
X152731066Y-109409819D01*
X152731066Y-108838390D02*
X152778685Y-108790771D01*
X152778685Y-108790771D02*
X152873923Y-108743152D01*
X152873923Y-108743152D02*
X153016780Y-108743152D01*
X153016780Y-108743152D02*
X153112018Y-108790771D01*
X153112018Y-108790771D02*
X153159637Y-108886009D01*
X153159637Y-108886009D02*
X153159637Y-109409819D01*
X148963333Y-84579580D02*
X148915714Y-84627200D01*
X148915714Y-84627200D02*
X148772857Y-84674819D01*
X148772857Y-84674819D02*
X148677619Y-84674819D01*
X148677619Y-84674819D02*
X148534762Y-84627200D01*
X148534762Y-84627200D02*
X148439524Y-84531961D01*
X148439524Y-84531961D02*
X148391905Y-84436723D01*
X148391905Y-84436723D02*
X148344286Y-84246247D01*
X148344286Y-84246247D02*
X148344286Y-84103390D01*
X148344286Y-84103390D02*
X148391905Y-83912914D01*
X148391905Y-83912914D02*
X148439524Y-83817676D01*
X148439524Y-83817676D02*
X148534762Y-83722438D01*
X148534762Y-83722438D02*
X148677619Y-83674819D01*
X148677619Y-83674819D02*
X148772857Y-83674819D01*
X148772857Y-83674819D02*
X148915714Y-83722438D01*
X148915714Y-83722438D02*
X148963333Y-83770057D01*
X149915714Y-84674819D02*
X149344286Y-84674819D01*
X149630000Y-84674819D02*
X149630000Y-83674819D01*
X149630000Y-83674819D02*
X149534762Y-83817676D01*
X149534762Y-83817676D02*
X149439524Y-83912914D01*
X149439524Y-83912914D02*
X149344286Y-83960533D01*
X115463333Y-83714819D02*
X115130000Y-83238628D01*
X114891905Y-83714819D02*
X114891905Y-82714819D01*
X114891905Y-82714819D02*
X115272857Y-82714819D01*
X115272857Y-82714819D02*
X115368095Y-82762438D01*
X115368095Y-82762438D02*
X115415714Y-82810057D01*
X115415714Y-82810057D02*
X115463333Y-82905295D01*
X115463333Y-82905295D02*
X115463333Y-83048152D01*
X115463333Y-83048152D02*
X115415714Y-83143390D01*
X115415714Y-83143390D02*
X115368095Y-83191009D01*
X115368095Y-83191009D02*
X115272857Y-83238628D01*
X115272857Y-83238628D02*
X114891905Y-83238628D01*
X116415714Y-83714819D02*
X115844286Y-83714819D01*
X116130000Y-83714819D02*
X116130000Y-82714819D01*
X116130000Y-82714819D02*
X116034762Y-82857676D01*
X116034762Y-82857676D02*
X115939524Y-82952914D01*
X115939524Y-82952914D02*
X115844286Y-83000533D01*
X150811905Y-99754819D02*
X150811905Y-98754819D01*
X150811905Y-98754819D02*
X151192857Y-98754819D01*
X151192857Y-98754819D02*
X151288095Y-98802438D01*
X151288095Y-98802438D02*
X151335714Y-98850057D01*
X151335714Y-98850057D02*
X151383333Y-98945295D01*
X151383333Y-98945295D02*
X151383333Y-99088152D01*
X151383333Y-99088152D02*
X151335714Y-99183390D01*
X151335714Y-99183390D02*
X151288095Y-99231009D01*
X151288095Y-99231009D02*
X151192857Y-99278628D01*
X151192857Y-99278628D02*
X150811905Y-99278628D01*
X152335714Y-99754819D02*
X151764286Y-99754819D01*
X152050000Y-99754819D02*
X152050000Y-98754819D01*
X152050000Y-98754819D02*
X151954762Y-98897676D01*
X151954762Y-98897676D02*
X151859524Y-98992914D01*
X151859524Y-98992914D02*
X151764286Y-99040533D01*
X153604819Y-93806666D02*
X153128628Y-94139999D01*
X153604819Y-94378094D02*
X152604819Y-94378094D01*
X152604819Y-94378094D02*
X152604819Y-93997142D01*
X152604819Y-93997142D02*
X152652438Y-93901904D01*
X152652438Y-93901904D02*
X152700057Y-93854285D01*
X152700057Y-93854285D02*
X152795295Y-93806666D01*
X152795295Y-93806666D02*
X152938152Y-93806666D01*
X152938152Y-93806666D02*
X153033390Y-93854285D01*
X153033390Y-93854285D02*
X153081009Y-93901904D01*
X153081009Y-93901904D02*
X153128628Y-93997142D01*
X153128628Y-93997142D02*
X153128628Y-94378094D01*
X152938152Y-92949523D02*
X153604819Y-92949523D01*
X152557200Y-93187618D02*
X153271485Y-93425713D01*
X153271485Y-93425713D02*
X153271485Y-92806666D01*
X146574298Y-104331876D02*
X147383821Y-104331876D01*
X147383821Y-104331876D02*
X147479059Y-104284257D01*
X147479059Y-104284257D02*
X147526679Y-104236638D01*
X147526679Y-104236638D02*
X147574298Y-104141400D01*
X147574298Y-104141400D02*
X147574298Y-103950924D01*
X147574298Y-103950924D02*
X147526679Y-103855686D01*
X147526679Y-103855686D02*
X147479059Y-103808067D01*
X147479059Y-103808067D02*
X147383821Y-103760448D01*
X147383821Y-103760448D02*
X146574298Y-103760448D01*
X146669536Y-103331876D02*
X146621917Y-103284257D01*
X146621917Y-103284257D02*
X146574298Y-103189019D01*
X146574298Y-103189019D02*
X146574298Y-102950924D01*
X146574298Y-102950924D02*
X146621917Y-102855686D01*
X146621917Y-102855686D02*
X146669536Y-102808067D01*
X146669536Y-102808067D02*
X146764774Y-102760448D01*
X146764774Y-102760448D02*
X146860012Y-102760448D01*
X146860012Y-102760448D02*
X147002869Y-102808067D01*
X147002869Y-102808067D02*
X147574298Y-103379495D01*
X147574298Y-103379495D02*
X147574298Y-102760448D01*
X145780532Y-89704884D02*
X146590055Y-89704884D01*
X146590055Y-89704884D02*
X146685293Y-89657265D01*
X146685293Y-89657265D02*
X146732913Y-89609646D01*
X146732913Y-89609646D02*
X146780532Y-89514408D01*
X146780532Y-89514408D02*
X146780532Y-89323932D01*
X146780532Y-89323932D02*
X146732913Y-89228694D01*
X146732913Y-89228694D02*
X146685293Y-89181075D01*
X146685293Y-89181075D02*
X146590055Y-89133456D01*
X146590055Y-89133456D02*
X145780532Y-89133456D01*
X146780532Y-88133456D02*
X146780532Y-88704884D01*
X146780532Y-88419170D02*
X145780532Y-88419170D01*
X145780532Y-88419170D02*
X145923389Y-88514408D01*
X145923389Y-88514408D02*
X146018627Y-88609646D01*
X146018627Y-88609646D02*
X146066246Y-88704884D01*
X147434819Y-99666666D02*
X146958628Y-99999999D01*
X147434819Y-100238094D02*
X146434819Y-100238094D01*
X146434819Y-100238094D02*
X146434819Y-99857142D01*
X146434819Y-99857142D02*
X146482438Y-99761904D01*
X146482438Y-99761904D02*
X146530057Y-99714285D01*
X146530057Y-99714285D02*
X146625295Y-99666666D01*
X146625295Y-99666666D02*
X146768152Y-99666666D01*
X146768152Y-99666666D02*
X146863390Y-99714285D01*
X146863390Y-99714285D02*
X146911009Y-99761904D01*
X146911009Y-99761904D02*
X146958628Y-99857142D01*
X146958628Y-99857142D02*
X146958628Y-100238094D01*
X146434819Y-99333332D02*
X146434819Y-98714285D01*
X146434819Y-98714285D02*
X146815771Y-99047618D01*
X146815771Y-99047618D02*
X146815771Y-98904761D01*
X146815771Y-98904761D02*
X146863390Y-98809523D01*
X146863390Y-98809523D02*
X146911009Y-98761904D01*
X146911009Y-98761904D02*
X147006247Y-98714285D01*
X147006247Y-98714285D02*
X147244342Y-98714285D01*
X147244342Y-98714285D02*
X147339580Y-98761904D01*
X147339580Y-98761904D02*
X147387200Y-98809523D01*
X147387200Y-98809523D02*
X147434819Y-98904761D01*
X147434819Y-98904761D02*
X147434819Y-99190475D01*
X147434819Y-99190475D02*
X147387200Y-99285713D01*
X147387200Y-99285713D02*
X147339580Y-99333332D01*
X114731905Y-85664819D02*
X114731905Y-84664819D01*
X114731905Y-84664819D02*
X114970000Y-84664819D01*
X114970000Y-84664819D02*
X115112857Y-84712438D01*
X115112857Y-84712438D02*
X115208095Y-84807676D01*
X115208095Y-84807676D02*
X115255714Y-84902914D01*
X115255714Y-84902914D02*
X115303333Y-85093390D01*
X115303333Y-85093390D02*
X115303333Y-85236247D01*
X115303333Y-85236247D02*
X115255714Y-85426723D01*
X115255714Y-85426723D02*
X115208095Y-85521961D01*
X115208095Y-85521961D02*
X115112857Y-85617200D01*
X115112857Y-85617200D02*
X114970000Y-85664819D01*
X114970000Y-85664819D02*
X114731905Y-85664819D01*
X116255714Y-85664819D02*
X115684286Y-85664819D01*
X115970000Y-85664819D02*
X115970000Y-84664819D01*
X115970000Y-84664819D02*
X115874762Y-84807676D01*
X115874762Y-84807676D02*
X115779524Y-84902914D01*
X115779524Y-84902914D02*
X115684286Y-84950533D01*
X152164819Y-93716666D02*
X151688628Y-94049999D01*
X152164819Y-94288094D02*
X151164819Y-94288094D01*
X151164819Y-94288094D02*
X151164819Y-93907142D01*
X151164819Y-93907142D02*
X151212438Y-93811904D01*
X151212438Y-93811904D02*
X151260057Y-93764285D01*
X151260057Y-93764285D02*
X151355295Y-93716666D01*
X151355295Y-93716666D02*
X151498152Y-93716666D01*
X151498152Y-93716666D02*
X151593390Y-93764285D01*
X151593390Y-93764285D02*
X151641009Y-93811904D01*
X151641009Y-93811904D02*
X151688628Y-93907142D01*
X151688628Y-93907142D02*
X151688628Y-94288094D01*
X151260057Y-93335713D02*
X151212438Y-93288094D01*
X151212438Y-93288094D02*
X151164819Y-93192856D01*
X151164819Y-93192856D02*
X151164819Y-92954761D01*
X151164819Y-92954761D02*
X151212438Y-92859523D01*
X151212438Y-92859523D02*
X151260057Y-92811904D01*
X151260057Y-92811904D02*
X151355295Y-92764285D01*
X151355295Y-92764285D02*
X151450533Y-92764285D01*
X151450533Y-92764285D02*
X151593390Y-92811904D01*
X151593390Y-92811904D02*
X152164819Y-93383332D01*
X152164819Y-93383332D02*
X152164819Y-92764285D01*
D10*
X149113733Y-85190000D02*
X149406267Y-85190000D01*
X149113733Y-86210000D02*
X149406267Y-86210000D01*
X118487258Y-82697500D02*
X118012742Y-82697500D01*
X118487258Y-83742500D02*
X118012742Y-83742500D01*
X120360000Y-112740000D02*
X120360000Y-87220000D01*
X122960000Y-110140000D02*
X122960000Y-112740000D01*
X122960000Y-112740000D02*
X120360000Y-112740000D01*
X125560000Y-87220000D02*
X120360000Y-87220000D01*
X125560000Y-110140000D02*
X122960000Y-110140000D01*
X125560000Y-110140000D02*
X125560000Y-87220000D01*
X125560000Y-111410000D02*
X125560000Y-112740000D01*
X125560000Y-112740000D02*
X124230000Y-112740000D01*
D15*
X148619995Y-95619997D02*
X150524999Y-95619997D01*
X148619995Y-98160003D02*
X148619995Y-95619997D01*
D16*
X153700005Y-95619997D02*
X150524999Y-95619997D01*
D15*
X153700005Y-95619997D02*
X153700005Y-98160003D01*
X153700005Y-98160003D02*
X148619995Y-98160003D01*
D10*
X152707500Y-90605276D02*
X152707500Y-91114724D01*
X153752500Y-90605276D02*
X153752500Y-91114724D01*
D17*
X149257528Y-100579980D02*
X151864310Y-100579980D01*
X149257528Y-101499995D02*
X149257528Y-100579980D01*
X149257528Y-105480030D02*
X149257528Y-106559964D01*
X149257528Y-106559964D02*
X151857478Y-106559964D01*
X153517473Y-105559964D02*
X153517473Y-101659990D01*
X149870050Y-106039365D02*
G75*
G02*
X149620114Y-106039365I-124968J0D01*
G01*
X149620114Y-106039365D02*
G75*
G02*
X149870050Y-106039365I124968J0D01*
G01*
X147348857Y-90521999D02*
X147348857Y-89064112D01*
X147350000Y-89064112D02*
X150350000Y-89064112D01*
X147350000Y-91538001D02*
X147350000Y-92968202D01*
X147350000Y-92968202D02*
X150350000Y-92968202D01*
X150350000Y-89064112D02*
X150350000Y-92968202D01*
X147349999Y-91538001D02*
G75*
G02*
X147348857Y-90521999I-571J508001D01*
G01*
D10*
X148040223Y-91900627D02*
X148116360Y-91923847D01*
X148186466Y-91961543D01*
X148247822Y-92012253D01*
X148298044Y-92074009D01*
X148335183Y-92144412D01*
X148357798Y-92220731D01*
X148365011Y-92300003D01*
X148357798Y-92379274D01*
X148335183Y-92455593D01*
X148298044Y-92525996D01*
X148247822Y-92587752D01*
X148186466Y-92638462D01*
X148116360Y-92676158D01*
X148040223Y-92699378D01*
X147961011Y-92707219D01*
X147881799Y-92699378D01*
X147805662Y-92676158D01*
X147735555Y-92638462D01*
X147674200Y-92587752D01*
X147623978Y-92525996D01*
X147586839Y-92455593D01*
X147564223Y-92379274D01*
X147557010Y-92300003D01*
X147564223Y-92220731D01*
X147586839Y-92144412D01*
X147623978Y-92074009D01*
X147674200Y-92012253D01*
X147735555Y-91961543D01*
X147805662Y-91923847D01*
X147881799Y-91900627D01*
X147961011Y-91892786D01*
X148040223Y-91900627D01*
G36*
X148040223Y-91900627D02*
G01*
X148116360Y-91923847D01*
X148186466Y-91961543D01*
X148247822Y-92012253D01*
X148298044Y-92074009D01*
X148335183Y-92144412D01*
X148357798Y-92220731D01*
X148365011Y-92300003D01*
X148357798Y-92379274D01*
X148335183Y-92455593D01*
X148298044Y-92525996D01*
X148247822Y-92587752D01*
X148186466Y-92638462D01*
X148116360Y-92676158D01*
X148040223Y-92699378D01*
X147961011Y-92707219D01*
X147881799Y-92699378D01*
X147805662Y-92676158D01*
X147735555Y-92638462D01*
X147674200Y-92587752D01*
X147623978Y-92525996D01*
X147586839Y-92455593D01*
X147564223Y-92379274D01*
X147557010Y-92300003D01*
X147564223Y-92220731D01*
X147586839Y-92144412D01*
X147623978Y-92074009D01*
X147674200Y-92012253D01*
X147735555Y-91961543D01*
X147805662Y-91923847D01*
X147881799Y-91900627D01*
X147961011Y-91892786D01*
X148040223Y-91900627D01*
G37*
X146477500Y-96585276D02*
X146477500Y-97094724D01*
X147522500Y-96585276D02*
X147522500Y-97094724D01*
X116505000Y-84440000D02*
X116505000Y-86360000D01*
X116505000Y-86360000D02*
X119190000Y-86360000D01*
X119190000Y-84440000D02*
X116505000Y-84440000D01*
X151017500Y-90595276D02*
X151017500Y-91104724D01*
X152062500Y-90595276D02*
X152062500Y-91104724D01*
%LPC*%
D18*
X100500000Y-96600000D03*
D19*
X100900000Y-97400000D03*
X100900000Y-98200000D03*
D18*
X100500000Y-99000000D03*
D19*
X100900000Y-99800000D03*
X100900000Y-100600000D03*
D18*
X100500000Y-101400000D03*
D19*
X100900000Y-102200000D03*
X100900000Y-103000000D03*
D18*
X100500000Y-103800000D03*
D20*
X148397500Y-85700000D03*
X150122500Y-85700000D03*
D21*
X121690000Y-83470000D03*
X124230000Y-83470000D03*
X126770000Y-83470000D03*
X129310000Y-83470000D03*
X131850000Y-83470000D03*
X134390000Y-83470000D03*
X136930000Y-83470000D03*
X139470000Y-83470000D03*
X142010000Y-83470000D03*
X144550000Y-83470000D03*
D22*
X121690000Y-86010000D03*
X124230000Y-86010000D03*
X126770000Y-86010000D03*
X129310000Y-86010000D03*
X131850000Y-86010000D03*
X134390000Y-86010000D03*
X136930000Y-86010000D03*
X139470000Y-86010000D03*
X142010000Y-86010000D03*
X144550000Y-86010000D03*
X126770000Y-88550000D03*
X129310000Y-88550000D03*
X131850000Y-88550000D03*
X134390000Y-88550000D03*
X136930000Y-88550000D03*
X139470000Y-88550000D03*
X142010000Y-88550000D03*
X144550000Y-88550000D03*
X126770000Y-91090000D03*
X129310000Y-91090000D03*
X131850000Y-91090000D03*
X134390000Y-91090000D03*
X136930000Y-91090000D03*
X139470000Y-91090000D03*
X142010000Y-91090000D03*
X144550000Y-91090000D03*
X126770000Y-93630000D03*
X129310000Y-93630000D03*
X131850000Y-93630000D03*
X134390000Y-93630000D03*
X136930000Y-93630000D03*
X139470000Y-93630000D03*
X142010000Y-93630000D03*
X144550000Y-93630000D03*
X126770000Y-96170000D03*
X129310000Y-96170000D03*
X131850000Y-96170000D03*
X134390000Y-96170000D03*
X136930000Y-96170000D03*
X139470000Y-96170000D03*
X142010000Y-96170000D03*
X144550000Y-96170000D03*
X126770000Y-98710000D03*
X129310000Y-98710000D03*
X131850000Y-98710000D03*
X134390000Y-98710000D03*
X136930000Y-98710000D03*
X139470000Y-98710000D03*
X142010000Y-98710000D03*
X144550000Y-98710000D03*
X126770000Y-101250000D03*
X129310000Y-101250000D03*
X131850000Y-101250000D03*
X134390000Y-101250000D03*
X136930000Y-101250000D03*
X139470000Y-101250000D03*
X142010000Y-101250000D03*
X144550000Y-101250000D03*
X126770000Y-103789999D03*
X129310000Y-103789999D03*
X131850000Y-103789999D03*
X134390000Y-103789999D03*
X136930000Y-103789999D03*
X139470000Y-103789999D03*
X142010000Y-103789999D03*
X144550000Y-103789999D03*
X126770000Y-106330000D03*
X129310000Y-106330000D03*
X131850000Y-106330000D03*
X134390000Y-106330000D03*
X136930000Y-106330000D03*
X139470000Y-106330000D03*
X142010000Y-106330000D03*
X144550000Y-106330000D03*
X126770000Y-108870000D03*
X129310000Y-108870000D03*
X131850000Y-108870000D03*
X134390000Y-108870000D03*
X136930000Y-108870000D03*
X139470000Y-108870000D03*
X142010000Y-108870000D03*
X144550000Y-108870000D03*
X126770000Y-111410000D03*
X129310000Y-111410000D03*
X131850000Y-111410000D03*
X134390000Y-111410000D03*
X136930000Y-111410000D03*
X139470000Y-111410000D03*
X142010000Y-111410000D03*
X144550000Y-111410000D03*
X121690000Y-113950000D03*
X124230000Y-113950000D03*
X126770000Y-113950000D03*
X129310000Y-113950000D03*
X131850000Y-113950000D03*
X134390000Y-113950000D03*
X136930000Y-113950000D03*
X139470000Y-113950000D03*
X142010000Y-113950000D03*
X144550000Y-113950000D03*
D21*
X121690000Y-116490000D03*
X124230000Y-116490000D03*
X126770000Y-116490000D03*
X129310000Y-116490000D03*
X131850000Y-116490000D03*
X134390000Y-116490000D03*
X136930000Y-116490000D03*
X139470000Y-116490000D03*
X142010000Y-116490000D03*
X144550000Y-116490000D03*
D23*
X119075000Y-83220000D03*
X117425000Y-83220000D03*
D24*
X124230000Y-111410000D03*
D25*
X121690000Y-111410000D03*
X124230000Y-108870000D03*
X121690000Y-108870000D03*
X124230000Y-106330000D03*
X121690000Y-106330000D03*
X124230000Y-103790000D03*
X121690000Y-103790000D03*
X124230000Y-101250000D03*
X121690000Y-101250000D03*
X124230000Y-98710000D03*
X121690000Y-98710000D03*
X124230000Y-96170000D03*
X121690000Y-96170000D03*
X124230000Y-93630000D03*
X121690000Y-93630000D03*
X124230000Y-91090000D03*
X121690000Y-91090000D03*
X124230000Y-88550000D03*
X121690000Y-88550000D03*
D26*
X149889997Y-96890000D03*
D27*
X152430003Y-96890000D03*
D28*
X153230000Y-89947500D03*
X153230000Y-91772500D03*
D29*
X149119479Y-105039873D03*
X149119479Y-104039873D03*
X149119987Y-103039619D03*
X149119987Y-102039619D03*
D30*
X152995527Y-100739898D03*
X152995019Y-106340102D03*
D31*
X110760000Y-87430000D03*
X111243274Y-86263274D03*
X111243274Y-88596726D03*
X112410000Y-85780000D03*
D32*
X112410000Y-87430000D03*
D31*
X112410000Y-89080000D03*
X113576726Y-86263274D03*
X113576726Y-88596726D03*
X114060000Y-87430000D03*
D33*
X147874892Y-93957102D03*
X148525133Y-93957102D03*
X149175121Y-93957102D03*
X149825108Y-93957102D03*
X149825108Y-88102898D03*
X149175121Y-88102898D03*
X148525133Y-88102898D03*
X147874892Y-88102898D03*
D28*
X147000000Y-95927500D03*
X147000000Y-97752500D03*
D34*
X117252500Y-85400000D03*
X119127500Y-85400000D03*
D28*
X151540000Y-89937500D03*
X151540000Y-91762500D03*
D31*
X110760000Y-112500000D03*
X111243274Y-111333274D03*
X111243274Y-113666726D03*
X112410000Y-110850000D03*
D32*
X112410000Y-112500000D03*
D31*
X112410000Y-114150000D03*
X113576726Y-111333274D03*
X113576726Y-113666726D03*
X114060000Y-112500000D03*
%LPD*%
M02*
