%TF.GenerationSoftware,KiCad,Pcbnew,9.0.8+dfsg-1*%
%TF.CreationDate,2026-06-30T15:07:57+02:00*%
%TF.ProjectId,codemyriad-protogon,636f6465-6d79-4726-9961-642d70726f74,rev?*%
%TF.SameCoordinates,Original*%
%TF.FileFunction,Legend,Top*%
%TF.FilePolarity,Positive*%
%FSLAX46Y46*%
G04 Gerber Fmt 4.6, Leading zero omitted, Abs format (unit mm)*
G04 Created by KiCad (PCBNEW 9.0.8+dfsg-1) date 2026-06-30 15:07:57*
%MOMM*%
%LPD*%
G01*
G04 APERTURE LIST*
%ADD10C,0.120000*%
%ADD11C,0.150000*%
%ADD12C,0.180000*%
%ADD13C,0.160000*%
%ADD14C,0.170000*%
%ADD15C,0.203200*%
%ADD16C,0.203000*%
%ADD17C,0.254001*%
G04 APERTURE END LIST*
D10*
X110084496Y-98125761D02*
X110218995Y-98142372D01*
X110350000Y-98169522D01*
X110477080Y-98206775D01*
X110599802Y-98253692D01*
X110717736Y-98309836D01*
X110830450Y-98374771D01*
X110937511Y-98448057D01*
X111038488Y-98529259D01*
X111132949Y-98617938D01*
X111220464Y-98713658D01*
X111300599Y-98815980D01*
X111372923Y-98924468D01*
X111437004Y-99038683D01*
X111492412Y-99158189D01*
X111538713Y-99282549D01*
X111575477Y-99411324D01*
X111602271Y-99544077D01*
X111618665Y-99680372D01*
X111624225Y-99819770D01*
X111618665Y-99959165D01*
X111602271Y-100095457D01*
X111575477Y-100228209D01*
X111538713Y-100356982D01*
X111492412Y-100481340D01*
X111437004Y-100600845D01*
X111372923Y-100715059D01*
X111300599Y-100823546D01*
X111220464Y-100925867D01*
X111132949Y-101021586D01*
X111038488Y-101110264D01*
X110937511Y-101191466D01*
X110830450Y-101264752D01*
X110717736Y-101329686D01*
X110599802Y-101385830D01*
X110477080Y-101432747D01*
X110350000Y-101470000D01*
X110218995Y-101497150D01*
X110084496Y-101513761D01*
X109946935Y-101519395D01*
X109809375Y-101513761D01*
X109674876Y-101497150D01*
X109543872Y-101470000D01*
X109416793Y-101432747D01*
X109294072Y-101385830D01*
X109176139Y-101329686D01*
X109063427Y-101264752D01*
X108956368Y-101191466D01*
X108855392Y-101110264D01*
X108760932Y-101021586D01*
X108673420Y-100925867D01*
X108593287Y-100823546D01*
X108520964Y-100715059D01*
X108456884Y-100600845D01*
X108401478Y-100481340D01*
X108355177Y-100356982D01*
X108318415Y-100228209D01*
X108291621Y-100095457D01*
X108275228Y-99959165D01*
X108269668Y-99819770D01*
X108828765Y-99819770D01*
X108832471Y-99912698D01*
X108843400Y-100003558D01*
X108861262Y-100092058D01*
X108885771Y-100177906D01*
X108916638Y-100260810D01*
X108953575Y-100340480D01*
X108996295Y-100416623D01*
X109044510Y-100488947D01*
X109097932Y-100557162D01*
X109156273Y-100620975D01*
X109219246Y-100680095D01*
X109286563Y-100734229D01*
X109357935Y-100783088D01*
X109433076Y-100826378D01*
X109511697Y-100863808D01*
X109593511Y-100895087D01*
X109678229Y-100919922D01*
X109765565Y-100938023D01*
X109855229Y-100949097D01*
X109946935Y-100952854D01*
X110038644Y-100949097D01*
X110128312Y-100938023D01*
X110215650Y-100919922D01*
X110300371Y-100895087D01*
X110382186Y-100863808D01*
X110460809Y-100826378D01*
X110535951Y-100783088D01*
X110607325Y-100734229D01*
X110674643Y-100680095D01*
X110737617Y-100620975D01*
X110795959Y-100557162D01*
X110849382Y-100488947D01*
X110897597Y-100416623D01*
X110940318Y-100340480D01*
X110977255Y-100260810D01*
X111008122Y-100177906D01*
X111032631Y-100092058D01*
X111050493Y-100003558D01*
X111061422Y-99912698D01*
X111065128Y-99819770D01*
X111061422Y-99726838D01*
X111050493Y-99635976D01*
X111032631Y-99547474D01*
X111008122Y-99461624D01*
X110977255Y-99378718D01*
X110940318Y-99299047D01*
X110897597Y-99222903D01*
X110849382Y-99150577D01*
X110795959Y-99082362D01*
X110737617Y-99018549D01*
X110674643Y-98959429D01*
X110607325Y-98905294D01*
X110535951Y-98856435D01*
X110460809Y-98813145D01*
X110382186Y-98775715D01*
X110300371Y-98744437D01*
X110215650Y-98719601D01*
X110128312Y-98701501D01*
X110038644Y-98690427D01*
X109946935Y-98686670D01*
X109855229Y-98690427D01*
X109765565Y-98701501D01*
X109678229Y-98719601D01*
X109593511Y-98744437D01*
X109511697Y-98775715D01*
X109433076Y-98813145D01*
X109357935Y-98856435D01*
X109286563Y-98905294D01*
X109219246Y-98959429D01*
X109156273Y-99018549D01*
X109097932Y-99082362D01*
X109044510Y-99150577D01*
X108996295Y-99222903D01*
X108953575Y-99299047D01*
X108916638Y-99378718D01*
X108885771Y-99461624D01*
X108861262Y-99547474D01*
X108843400Y-99635976D01*
X108832471Y-99726838D01*
X108828765Y-99819770D01*
X108269668Y-99819770D01*
X108275228Y-99680372D01*
X108291621Y-99544077D01*
X108318415Y-99411324D01*
X108355177Y-99282549D01*
X108401478Y-99158189D01*
X108456884Y-99038683D01*
X108520964Y-98924468D01*
X108593287Y-98815980D01*
X108673420Y-98713658D01*
X108760932Y-98617938D01*
X108855392Y-98529259D01*
X108956368Y-98448057D01*
X109063427Y-98374771D01*
X109176139Y-98309836D01*
X109294072Y-98253692D01*
X109416793Y-98206775D01*
X109543872Y-98169522D01*
X109674876Y-98142372D01*
X109809375Y-98125761D01*
X109946935Y-98120126D01*
X110084496Y-98125761D01*
G36*
X110084496Y-98125761D02*
G01*
X110218995Y-98142372D01*
X110350000Y-98169522D01*
X110477080Y-98206775D01*
X110599802Y-98253692D01*
X110717736Y-98309836D01*
X110830450Y-98374771D01*
X110937511Y-98448057D01*
X111038488Y-98529259D01*
X111132949Y-98617938D01*
X111220464Y-98713658D01*
X111300599Y-98815980D01*
X111372923Y-98924468D01*
X111437004Y-99038683D01*
X111492412Y-99158189D01*
X111538713Y-99282549D01*
X111575477Y-99411324D01*
X111602271Y-99544077D01*
X111618665Y-99680372D01*
X111624225Y-99819770D01*
X111618665Y-99959165D01*
X111602271Y-100095457D01*
X111575477Y-100228209D01*
X111538713Y-100356982D01*
X111492412Y-100481340D01*
X111437004Y-100600845D01*
X111372923Y-100715059D01*
X111300599Y-100823546D01*
X111220464Y-100925867D01*
X111132949Y-101021586D01*
X111038488Y-101110264D01*
X110937511Y-101191466D01*
X110830450Y-101264752D01*
X110717736Y-101329686D01*
X110599802Y-101385830D01*
X110477080Y-101432747D01*
X110350000Y-101470000D01*
X110218995Y-101497150D01*
X110084496Y-101513761D01*
X109946935Y-101519395D01*
X109809375Y-101513761D01*
X109674876Y-101497150D01*
X109543872Y-101470000D01*
X109416793Y-101432747D01*
X109294072Y-101385830D01*
X109176139Y-101329686D01*
X109063427Y-101264752D01*
X108956368Y-101191466D01*
X108855392Y-101110264D01*
X108760932Y-101021586D01*
X108673420Y-100925867D01*
X108593287Y-100823546D01*
X108520964Y-100715059D01*
X108456884Y-100600845D01*
X108401478Y-100481340D01*
X108355177Y-100356982D01*
X108318415Y-100228209D01*
X108291621Y-100095457D01*
X108275228Y-99959165D01*
X108269668Y-99819770D01*
X108828765Y-99819770D01*
X108832471Y-99912698D01*
X108843400Y-100003558D01*
X108861262Y-100092058D01*
X108885771Y-100177906D01*
X108916638Y-100260810D01*
X108953575Y-100340480D01*
X108996295Y-100416623D01*
X109044510Y-100488947D01*
X109097932Y-100557162D01*
X109156273Y-100620975D01*
X109219246Y-100680095D01*
X109286563Y-100734229D01*
X109357935Y-100783088D01*
X109433076Y-100826378D01*
X109511697Y-100863808D01*
X109593511Y-100895087D01*
X109678229Y-100919922D01*
X109765565Y-100938023D01*
X109855229Y-100949097D01*
X109946935Y-100952854D01*
X110038644Y-100949097D01*
X110128312Y-100938023D01*
X110215650Y-100919922D01*
X110300371Y-100895087D01*
X110382186Y-100863808D01*
X110460809Y-100826378D01*
X110535951Y-100783088D01*
X110607325Y-100734229D01*
X110674643Y-100680095D01*
X110737617Y-100620975D01*
X110795959Y-100557162D01*
X110849382Y-100488947D01*
X110897597Y-100416623D01*
X110940318Y-100340480D01*
X110977255Y-100260810D01*
X111008122Y-100177906D01*
X111032631Y-100092058D01*
X111050493Y-100003558D01*
X111061422Y-99912698D01*
X111065128Y-99819770D01*
X111061422Y-99726838D01*
X111050493Y-99635976D01*
X111032631Y-99547474D01*
X111008122Y-99461624D01*
X110977255Y-99378718D01*
X110940318Y-99299047D01*
X110897597Y-99222903D01*
X110849382Y-99150577D01*
X110795959Y-99082362D01*
X110737617Y-99018549D01*
X110674643Y-98959429D01*
X110607325Y-98905294D01*
X110535951Y-98856435D01*
X110460809Y-98813145D01*
X110382186Y-98775715D01*
X110300371Y-98744437D01*
X110215650Y-98719601D01*
X110128312Y-98701501D01*
X110038644Y-98690427D01*
X109946935Y-98686670D01*
X109855229Y-98690427D01*
X109765565Y-98701501D01*
X109678229Y-98719601D01*
X109593511Y-98744437D01*
X109511697Y-98775715D01*
X109433076Y-98813145D01*
X109357935Y-98856435D01*
X109286563Y-98905294D01*
X109219246Y-98959429D01*
X109156273Y-99018549D01*
X109097932Y-99082362D01*
X109044510Y-99150577D01*
X108996295Y-99222903D01*
X108953575Y-99299047D01*
X108916638Y-99378718D01*
X108885771Y-99461624D01*
X108861262Y-99547474D01*
X108843400Y-99635976D01*
X108832471Y-99726838D01*
X108828765Y-99819770D01*
X108269668Y-99819770D01*
X108275228Y-99680372D01*
X108291621Y-99544077D01*
X108318415Y-99411324D01*
X108355177Y-99282549D01*
X108401478Y-99158189D01*
X108456884Y-99038683D01*
X108520964Y-98924468D01*
X108593287Y-98815980D01*
X108673420Y-98713658D01*
X108760932Y-98617938D01*
X108855392Y-98529259D01*
X108956368Y-98448057D01*
X109063427Y-98374771D01*
X109176139Y-98309836D01*
X109294072Y-98253692D01*
X109416793Y-98206775D01*
X109543872Y-98169522D01*
X109674876Y-98142372D01*
X109809375Y-98125761D01*
X109946935Y-98120126D01*
X110084496Y-98125761D01*
G37*
X151297823Y-113824636D02*
X151365073Y-113832942D01*
X151430575Y-113846517D01*
X151494115Y-113865143D01*
X151555476Y-113888602D01*
X151614443Y-113916674D01*
X151670800Y-113949141D01*
X151724331Y-113985784D01*
X151774819Y-114026385D01*
X151822050Y-114070725D01*
X151865807Y-114118585D01*
X151905875Y-114169746D01*
X151942037Y-114223990D01*
X151974077Y-114281097D01*
X152001781Y-114340850D01*
X152024932Y-114403030D01*
X152043314Y-114467418D01*
X152056711Y-114533794D01*
X152064908Y-114601942D01*
X152067688Y-114671640D01*
X152064908Y-114741338D01*
X152056711Y-114809484D01*
X152043314Y-114875860D01*
X152024932Y-114940246D01*
X152001781Y-115002425D01*
X151974077Y-115062178D01*
X151942037Y-115119285D01*
X151905875Y-115173528D01*
X151865807Y-115224689D01*
X151822050Y-115272548D01*
X151774819Y-115316887D01*
X151724331Y-115357488D01*
X151670800Y-115394131D01*
X151614443Y-115426598D01*
X151555476Y-115454670D01*
X151494115Y-115478129D01*
X151430575Y-115496755D01*
X151365073Y-115510330D01*
X151297823Y-115518636D01*
X151229043Y-115521453D01*
X151160263Y-115518636D01*
X151093014Y-115510330D01*
X151027512Y-115496755D01*
X150963972Y-115478129D01*
X150902612Y-115454670D01*
X150843645Y-115426598D01*
X150787289Y-115394131D01*
X150733760Y-115357488D01*
X150683272Y-115316887D01*
X150636042Y-115272548D01*
X150592286Y-115224689D01*
X150552219Y-115173528D01*
X150516058Y-115119285D01*
X150484018Y-115062178D01*
X150456315Y-115002425D01*
X150433164Y-114940246D01*
X150414783Y-114875860D01*
X150401386Y-114809484D01*
X150393190Y-114741338D01*
X150390410Y-114671640D01*
X150669958Y-114671640D01*
X150671811Y-114718104D01*
X150677276Y-114763534D01*
X150686207Y-114807784D01*
X150698461Y-114850708D01*
X150713895Y-114892160D01*
X150732363Y-114931995D01*
X150753723Y-114970067D01*
X150777831Y-115006229D01*
X150804542Y-115040336D01*
X150833712Y-115072243D01*
X150865199Y-115101803D01*
X150898857Y-115128870D01*
X150934543Y-115153299D01*
X150972114Y-115174944D01*
X151011424Y-115193659D01*
X151052331Y-115209299D01*
X151094690Y-115221716D01*
X151138358Y-115230767D01*
X151183190Y-115236304D01*
X151229043Y-115238182D01*
X151274897Y-115236304D01*
X151319731Y-115230767D01*
X151363400Y-115221716D01*
X151405761Y-115209299D01*
X151446668Y-115193659D01*
X151485980Y-115174944D01*
X151523551Y-115153299D01*
X151559238Y-115128870D01*
X151592897Y-115101803D01*
X151624384Y-115072243D01*
X151653555Y-115040336D01*
X151680266Y-115006229D01*
X151704374Y-114970067D01*
X151725734Y-114931995D01*
X151744203Y-114892160D01*
X151759636Y-114850708D01*
X151771891Y-114807784D01*
X151780822Y-114763534D01*
X151786286Y-114718104D01*
X151788139Y-114671640D01*
X151786286Y-114625175D01*
X151780822Y-114579744D01*
X151771891Y-114535493D01*
X151759636Y-114492568D01*
X151744203Y-114451115D01*
X151725734Y-114411279D01*
X151704374Y-114373207D01*
X151680266Y-114337044D01*
X151653555Y-114302937D01*
X151624384Y-114271030D01*
X151592897Y-114241470D01*
X151559238Y-114214403D01*
X151523551Y-114189973D01*
X151485980Y-114168328D01*
X151446668Y-114149613D01*
X151405761Y-114133974D01*
X151363400Y-114121556D01*
X151319731Y-114112506D01*
X151274897Y-114106969D01*
X151229043Y-114105091D01*
X151183190Y-114106969D01*
X151138358Y-114112506D01*
X151094690Y-114121556D01*
X151052331Y-114133974D01*
X151011424Y-114149613D01*
X150972114Y-114168328D01*
X150934543Y-114189973D01*
X150898857Y-114214403D01*
X150865199Y-114241470D01*
X150833712Y-114271030D01*
X150804542Y-114302937D01*
X150777831Y-114337044D01*
X150753723Y-114373207D01*
X150732363Y-114411279D01*
X150713895Y-114451115D01*
X150698461Y-114492568D01*
X150686207Y-114535493D01*
X150677276Y-114579744D01*
X150671811Y-114625175D01*
X150669958Y-114671640D01*
X150390410Y-114671640D01*
X150393190Y-114601942D01*
X150401386Y-114533794D01*
X150414783Y-114467418D01*
X150433164Y-114403030D01*
X150456315Y-114340850D01*
X150484018Y-114281097D01*
X150516058Y-114223990D01*
X150552219Y-114169746D01*
X150592286Y-114118585D01*
X150636042Y-114070725D01*
X150683272Y-114026385D01*
X150733760Y-113985784D01*
X150787289Y-113949141D01*
X150843645Y-113916674D01*
X150902612Y-113888602D01*
X150963972Y-113865143D01*
X151027512Y-113846517D01*
X151093014Y-113832942D01*
X151160263Y-113824636D01*
X151229043Y-113821819D01*
X151297823Y-113824636D01*
G36*
X151297823Y-113824636D02*
G01*
X151365073Y-113832942D01*
X151430575Y-113846517D01*
X151494115Y-113865143D01*
X151555476Y-113888602D01*
X151614443Y-113916674D01*
X151670800Y-113949141D01*
X151724331Y-113985784D01*
X151774819Y-114026385D01*
X151822050Y-114070725D01*
X151865807Y-114118585D01*
X151905875Y-114169746D01*
X151942037Y-114223990D01*
X151974077Y-114281097D01*
X152001781Y-114340850D01*
X152024932Y-114403030D01*
X152043314Y-114467418D01*
X152056711Y-114533794D01*
X152064908Y-114601942D01*
X152067688Y-114671640D01*
X152064908Y-114741338D01*
X152056711Y-114809484D01*
X152043314Y-114875860D01*
X152024932Y-114940246D01*
X152001781Y-115002425D01*
X151974077Y-115062178D01*
X151942037Y-115119285D01*
X151905875Y-115173528D01*
X151865807Y-115224689D01*
X151822050Y-115272548D01*
X151774819Y-115316887D01*
X151724331Y-115357488D01*
X151670800Y-115394131D01*
X151614443Y-115426598D01*
X151555476Y-115454670D01*
X151494115Y-115478129D01*
X151430575Y-115496755D01*
X151365073Y-115510330D01*
X151297823Y-115518636D01*
X151229043Y-115521453D01*
X151160263Y-115518636D01*
X151093014Y-115510330D01*
X151027512Y-115496755D01*
X150963972Y-115478129D01*
X150902612Y-115454670D01*
X150843645Y-115426598D01*
X150787289Y-115394131D01*
X150733760Y-115357488D01*
X150683272Y-115316887D01*
X150636042Y-115272548D01*
X150592286Y-115224689D01*
X150552219Y-115173528D01*
X150516058Y-115119285D01*
X150484018Y-115062178D01*
X150456315Y-115002425D01*
X150433164Y-114940246D01*
X150414783Y-114875860D01*
X150401386Y-114809484D01*
X150393190Y-114741338D01*
X150390410Y-114671640D01*
X150669958Y-114671640D01*
X150671811Y-114718104D01*
X150677276Y-114763534D01*
X150686207Y-114807784D01*
X150698461Y-114850708D01*
X150713895Y-114892160D01*
X150732363Y-114931995D01*
X150753723Y-114970067D01*
X150777831Y-115006229D01*
X150804542Y-115040336D01*
X150833712Y-115072243D01*
X150865199Y-115101803D01*
X150898857Y-115128870D01*
X150934543Y-115153299D01*
X150972114Y-115174944D01*
X151011424Y-115193659D01*
X151052331Y-115209299D01*
X151094690Y-115221716D01*
X151138358Y-115230767D01*
X151183190Y-115236304D01*
X151229043Y-115238182D01*
X151274897Y-115236304D01*
X151319731Y-115230767D01*
X151363400Y-115221716D01*
X151405761Y-115209299D01*
X151446668Y-115193659D01*
X151485980Y-115174944D01*
X151523551Y-115153299D01*
X151559238Y-115128870D01*
X151592897Y-115101803D01*
X151624384Y-115072243D01*
X151653555Y-115040336D01*
X151680266Y-115006229D01*
X151704374Y-114970067D01*
X151725734Y-114931995D01*
X151744203Y-114892160D01*
X151759636Y-114850708D01*
X151771891Y-114807784D01*
X151780822Y-114763534D01*
X151786286Y-114718104D01*
X151788139Y-114671640D01*
X151786286Y-114625175D01*
X151780822Y-114579744D01*
X151771891Y-114535493D01*
X151759636Y-114492568D01*
X151744203Y-114451115D01*
X151725734Y-114411279D01*
X151704374Y-114373207D01*
X151680266Y-114337044D01*
X151653555Y-114302937D01*
X151624384Y-114271030D01*
X151592897Y-114241470D01*
X151559238Y-114214403D01*
X151523551Y-114189973D01*
X151485980Y-114168328D01*
X151446668Y-114149613D01*
X151405761Y-114133974D01*
X151363400Y-114121556D01*
X151319731Y-114112506D01*
X151274897Y-114106969D01*
X151229043Y-114105091D01*
X151183190Y-114106969D01*
X151138358Y-114112506D01*
X151094690Y-114121556D01*
X151052331Y-114133974D01*
X151011424Y-114149613D01*
X150972114Y-114168328D01*
X150934543Y-114189973D01*
X150898857Y-114214403D01*
X150865199Y-114241470D01*
X150833712Y-114271030D01*
X150804542Y-114302937D01*
X150777831Y-114337044D01*
X150753723Y-114373207D01*
X150732363Y-114411279D01*
X150713895Y-114451115D01*
X150698461Y-114492568D01*
X150686207Y-114535493D01*
X150677276Y-114579744D01*
X150671811Y-114625175D01*
X150669958Y-114671640D01*
X150390410Y-114671640D01*
X150393190Y-114601942D01*
X150401386Y-114533794D01*
X150414783Y-114467418D01*
X150433164Y-114403030D01*
X150456315Y-114340850D01*
X150484018Y-114281097D01*
X150516058Y-114223990D01*
X150552219Y-114169746D01*
X150592286Y-114118585D01*
X150636042Y-114070725D01*
X150683272Y-114026385D01*
X150733760Y-113985784D01*
X150787289Y-113949141D01*
X150843645Y-113916674D01*
X150902612Y-113888602D01*
X150963972Y-113865143D01*
X151027512Y-113846517D01*
X151093014Y-113832942D01*
X151160263Y-113824636D01*
X151229043Y-113821819D01*
X151297823Y-113824636D01*
G37*
X151625071Y-114648038D02*
X151625071Y-114789667D01*
X151583303Y-114789667D01*
X151405063Y-114789667D01*
X151053057Y-114789667D01*
X150874817Y-114789667D01*
X150833027Y-114789667D01*
X150833027Y-114648038D01*
X150833027Y-114506396D01*
X150874817Y-114506396D01*
X151053057Y-114506396D01*
X151405063Y-114506396D01*
X151583303Y-114506396D01*
X151625071Y-114506396D01*
X151625071Y-114648038D01*
G36*
X151625071Y-114648038D02*
G01*
X151625071Y-114789667D01*
X151583303Y-114789667D01*
X151405063Y-114789667D01*
X151053057Y-114789667D01*
X150874817Y-114789667D01*
X150833027Y-114789667D01*
X150833027Y-114648038D01*
X150833027Y-114506396D01*
X150874817Y-114506396D01*
X151053057Y-114506396D01*
X151405063Y-114506396D01*
X151583303Y-114506396D01*
X151625071Y-114506396D01*
X151625071Y-114648038D01*
G37*
X110738991Y-99772564D02*
X110738991Y-100055823D01*
X110655455Y-100055823D01*
X110298975Y-100055823D01*
X109594963Y-100055823D01*
X109238483Y-100055823D01*
X109154902Y-100055823D01*
X109154902Y-99772564D01*
X109154902Y-99489281D01*
X109238483Y-99489281D01*
X109594963Y-99489281D01*
X110298975Y-99489281D01*
X110655455Y-99489281D01*
X110738991Y-99489281D01*
X110738991Y-99772564D01*
G36*
X110738991Y-99772564D02*
G01*
X110738991Y-100055823D01*
X110655455Y-100055823D01*
X110298975Y-100055823D01*
X109594963Y-100055823D01*
X109238483Y-100055823D01*
X109154902Y-100055823D01*
X109154902Y-99772564D01*
X109154902Y-99489281D01*
X109238483Y-99489281D01*
X109594963Y-99489281D01*
X110298975Y-99489281D01*
X110655455Y-99489281D01*
X110738991Y-99489281D01*
X110738991Y-99772564D01*
G37*
X110222324Y-102652479D02*
X109663227Y-102652479D01*
X109663227Y-101802678D01*
X110222324Y-101802678D01*
X110222324Y-102652479D01*
G36*
X110222324Y-102652479D02*
G01*
X109663227Y-102652479D01*
X109663227Y-101802678D01*
X110222324Y-101802678D01*
X110222324Y-102652479D01*
G37*
X150318356Y-113233895D02*
X149506620Y-114659833D01*
X150308343Y-116068193D01*
X150062657Y-116212043D01*
X149179049Y-114659833D01*
X150072665Y-113090031D01*
X150318356Y-113233895D01*
G36*
X150318356Y-113233895D02*
G01*
X149506620Y-114659833D01*
X150308343Y-116068193D01*
X150062657Y-116212043D01*
X149179049Y-114659833D01*
X150072665Y-113090031D01*
X150318356Y-113233895D01*
G37*
X153279049Y-114659833D02*
X152385438Y-116229636D01*
X152139764Y-116085786D01*
X152951464Y-114659833D01*
X152139764Y-113233902D01*
X152385438Y-113090037D01*
X153279049Y-114659833D01*
G36*
X153279049Y-114659833D02*
G01*
X152385438Y-116229636D01*
X152139764Y-116085786D01*
X152951464Y-114659833D01*
X152139764Y-113233902D01*
X152385438Y-113090037D01*
X153279049Y-114659833D01*
G37*
X151366737Y-116087995D02*
X151087189Y-116087995D01*
X151087189Y-115663094D01*
X151366737Y-115663094D01*
X151366737Y-116087995D01*
G36*
X151366737Y-116087995D02*
G01*
X151087189Y-116087995D01*
X151087189Y-115663094D01*
X151366737Y-115663094D01*
X151366737Y-116087995D01*
G37*
X108029950Y-100103030D02*
X107191314Y-100103030D01*
X107191314Y-99536488D01*
X108029950Y-99536488D01*
X108029950Y-100103030D01*
G36*
X108029950Y-100103030D02*
G01*
X107191314Y-100103030D01*
X107191314Y-99536488D01*
X108029950Y-99536488D01*
X108029950Y-100103030D01*
G37*
X112728850Y-100103030D02*
X111890217Y-100103030D01*
X111890217Y-99536488D01*
X112728850Y-99536488D01*
X112728850Y-100103030D01*
G36*
X112728850Y-100103030D02*
G01*
X111890217Y-100103030D01*
X111890217Y-99536488D01*
X112728850Y-99536488D01*
X112728850Y-100103030D01*
G37*
X108125560Y-96944279D02*
X106502088Y-99796156D01*
X108105534Y-102612875D01*
X107614163Y-102900575D01*
X105846947Y-99796156D01*
X107634178Y-96656550D01*
X108125560Y-96944279D01*
G36*
X108125560Y-96944279D02*
G01*
X106502088Y-99796156D01*
X108105534Y-102612875D01*
X107614163Y-102900575D01*
X105846947Y-99796156D01*
X107634178Y-96656550D01*
X108125560Y-96944279D01*
G37*
X152620000Y-114813270D02*
X152200684Y-114813270D01*
X152200684Y-114530000D01*
X152620000Y-114530000D01*
X152620000Y-114813270D01*
G36*
X152620000Y-114813270D02*
G01*
X152200684Y-114813270D01*
X152200684Y-114530000D01*
X152620000Y-114530000D01*
X152620000Y-114813270D01*
G37*
X151366759Y-113680182D02*
X151087212Y-113680182D01*
X151087212Y-113255273D01*
X151366759Y-113255273D01*
X151366759Y-113680182D01*
G36*
X151366759Y-113680182D02*
G01*
X151087212Y-113680182D01*
X151087212Y-113255273D01*
X151366759Y-113255273D01*
X151366759Y-113680182D01*
G37*
X150270551Y-114813270D02*
X149851233Y-114813270D01*
X149851233Y-114530000D01*
X150270551Y-114530000D01*
X150270551Y-114813270D01*
G36*
X150270551Y-114813270D02*
G01*
X149851233Y-114813270D01*
X149851233Y-114530000D01*
X150270551Y-114530000D01*
X150270551Y-114813270D01*
G37*
X110222368Y-97836853D02*
X109663272Y-97836853D01*
X109663272Y-96987034D01*
X110222368Y-96987034D01*
X110222368Y-97836853D01*
G36*
X110222368Y-97836853D02*
G01*
X109663272Y-97836853D01*
X109663272Y-96987034D01*
X110222368Y-96987034D01*
X110222368Y-97836853D01*
G37*
X114046947Y-99796156D02*
X112259726Y-102935761D01*
X111768378Y-102648061D01*
X113391778Y-99796156D01*
X111768378Y-96944292D01*
X112259726Y-96656562D01*
X114046947Y-99796156D01*
G36*
X114046947Y-99796156D02*
G01*
X112259726Y-102935761D01*
X111768378Y-102648061D01*
X113391778Y-99796156D01*
X111768378Y-96944292D01*
X112259726Y-96656562D01*
X114046947Y-99796156D01*
G37*
D11*
X116972744Y-111010390D02*
X116896554Y-110972295D01*
X116896554Y-110972295D02*
X116782268Y-110972295D01*
X116782268Y-110972295D02*
X116667982Y-111010390D01*
X116667982Y-111010390D02*
X116591792Y-111086580D01*
X116591792Y-111086580D02*
X116553697Y-111162771D01*
X116553697Y-111162771D02*
X116515601Y-111315152D01*
X116515601Y-111315152D02*
X116515601Y-111429438D01*
X116515601Y-111429438D02*
X116553697Y-111581819D01*
X116553697Y-111581819D02*
X116591792Y-111658009D01*
X116591792Y-111658009D02*
X116667982Y-111734200D01*
X116667982Y-111734200D02*
X116782268Y-111772295D01*
X116782268Y-111772295D02*
X116858459Y-111772295D01*
X116858459Y-111772295D02*
X116972744Y-111734200D01*
X116972744Y-111734200D02*
X117010840Y-111696104D01*
X117010840Y-111696104D02*
X117010840Y-111429438D01*
X117010840Y-111429438D02*
X116858459Y-111429438D01*
X117353697Y-111772295D02*
X117353697Y-110972295D01*
X117353697Y-110972295D02*
X117810840Y-111772295D01*
X117810840Y-111772295D02*
X117810840Y-110972295D01*
X118191792Y-111772295D02*
X118191792Y-110972295D01*
X118191792Y-110972295D02*
X118382268Y-110972295D01*
X118382268Y-110972295D02*
X118496554Y-111010390D01*
X118496554Y-111010390D02*
X118572744Y-111086580D01*
X118572744Y-111086580D02*
X118610839Y-111162771D01*
X118610839Y-111162771D02*
X118648935Y-111315152D01*
X118648935Y-111315152D02*
X118648935Y-111429438D01*
X118648935Y-111429438D02*
X118610839Y-111581819D01*
X118610839Y-111581819D02*
X118572744Y-111658009D01*
X118572744Y-111658009D02*
X118496554Y-111734200D01*
X118496554Y-111734200D02*
X118382268Y-111772295D01*
X118382268Y-111772295D02*
X118191792Y-111772295D01*
X115982268Y-93992295D02*
X115982268Y-93192295D01*
X115982268Y-93573247D02*
X116439411Y-93573247D01*
X116439411Y-93992295D02*
X116439411Y-93192295D01*
X116782267Y-93954200D02*
X116896553Y-93992295D01*
X116896553Y-93992295D02*
X117087029Y-93992295D01*
X117087029Y-93992295D02*
X117163220Y-93954200D01*
X117163220Y-93954200D02*
X117201315Y-93916104D01*
X117201315Y-93916104D02*
X117239410Y-93839914D01*
X117239410Y-93839914D02*
X117239410Y-93763723D01*
X117239410Y-93763723D02*
X117201315Y-93687533D01*
X117201315Y-93687533D02*
X117163220Y-93649438D01*
X117163220Y-93649438D02*
X117087029Y-93611342D01*
X117087029Y-93611342D02*
X116934648Y-93573247D01*
X116934648Y-93573247D02*
X116858458Y-93535152D01*
X116858458Y-93535152D02*
X116820363Y-93497057D01*
X116820363Y-93497057D02*
X116782267Y-93420866D01*
X116782267Y-93420866D02*
X116782267Y-93344676D01*
X116782267Y-93344676D02*
X116820363Y-93268485D01*
X116820363Y-93268485D02*
X116858458Y-93230390D01*
X116858458Y-93230390D02*
X116934648Y-93192295D01*
X116934648Y-93192295D02*
X117125125Y-93192295D01*
X117125125Y-93192295D02*
X117239410Y-93230390D01*
X117391792Y-94068485D02*
X118001315Y-94068485D01*
X118610839Y-93230390D02*
X118534649Y-93192295D01*
X118534649Y-93192295D02*
X118420363Y-93192295D01*
X118420363Y-93192295D02*
X118306077Y-93230390D01*
X118306077Y-93230390D02*
X118229887Y-93306580D01*
X118229887Y-93306580D02*
X118191792Y-93382771D01*
X118191792Y-93382771D02*
X118153696Y-93535152D01*
X118153696Y-93535152D02*
X118153696Y-93649438D01*
X118153696Y-93649438D02*
X118191792Y-93801819D01*
X118191792Y-93801819D02*
X118229887Y-93878009D01*
X118229887Y-93878009D02*
X118306077Y-93954200D01*
X118306077Y-93954200D02*
X118420363Y-93992295D01*
X118420363Y-93992295D02*
X118496554Y-93992295D01*
X118496554Y-93992295D02*
X118610839Y-93954200D01*
X118610839Y-93954200D02*
X118648935Y-93916104D01*
X118648935Y-93916104D02*
X118648935Y-93649438D01*
X118648935Y-93649438D02*
X118496554Y-93649438D01*
X116401316Y-109232295D02*
X116401316Y-108432295D01*
X116401316Y-108813247D02*
X116858459Y-108813247D01*
X116858459Y-109232295D02*
X116858459Y-108432295D01*
X117201315Y-109194200D02*
X117315601Y-109232295D01*
X117315601Y-109232295D02*
X117506077Y-109232295D01*
X117506077Y-109232295D02*
X117582268Y-109194200D01*
X117582268Y-109194200D02*
X117620363Y-109156104D01*
X117620363Y-109156104D02*
X117658458Y-109079914D01*
X117658458Y-109079914D02*
X117658458Y-109003723D01*
X117658458Y-109003723D02*
X117620363Y-108927533D01*
X117620363Y-108927533D02*
X117582268Y-108889438D01*
X117582268Y-108889438D02*
X117506077Y-108851342D01*
X117506077Y-108851342D02*
X117353696Y-108813247D01*
X117353696Y-108813247D02*
X117277506Y-108775152D01*
X117277506Y-108775152D02*
X117239411Y-108737057D01*
X117239411Y-108737057D02*
X117201315Y-108660866D01*
X117201315Y-108660866D02*
X117201315Y-108584676D01*
X117201315Y-108584676D02*
X117239411Y-108508485D01*
X117239411Y-108508485D02*
X117277506Y-108470390D01*
X117277506Y-108470390D02*
X117353696Y-108432295D01*
X117353696Y-108432295D02*
X117544173Y-108432295D01*
X117544173Y-108432295D02*
X117658458Y-108470390D01*
X117810840Y-109308485D02*
X118420363Y-109308485D01*
X118610840Y-109232295D02*
X118610840Y-108432295D01*
X116972744Y-95770390D02*
X116896554Y-95732295D01*
X116896554Y-95732295D02*
X116782268Y-95732295D01*
X116782268Y-95732295D02*
X116667982Y-95770390D01*
X116667982Y-95770390D02*
X116591792Y-95846580D01*
X116591792Y-95846580D02*
X116553697Y-95922771D01*
X116553697Y-95922771D02*
X116515601Y-96075152D01*
X116515601Y-96075152D02*
X116515601Y-96189438D01*
X116515601Y-96189438D02*
X116553697Y-96341819D01*
X116553697Y-96341819D02*
X116591792Y-96418009D01*
X116591792Y-96418009D02*
X116667982Y-96494200D01*
X116667982Y-96494200D02*
X116782268Y-96532295D01*
X116782268Y-96532295D02*
X116858459Y-96532295D01*
X116858459Y-96532295D02*
X116972744Y-96494200D01*
X116972744Y-96494200D02*
X117010840Y-96456104D01*
X117010840Y-96456104D02*
X117010840Y-96189438D01*
X117010840Y-96189438D02*
X116858459Y-96189438D01*
X117353697Y-96532295D02*
X117353697Y-95732295D01*
X117353697Y-95732295D02*
X117810840Y-96532295D01*
X117810840Y-96532295D02*
X117810840Y-95732295D01*
X118191792Y-96532295D02*
X118191792Y-95732295D01*
X118191792Y-95732295D02*
X118382268Y-95732295D01*
X118382268Y-95732295D02*
X118496554Y-95770390D01*
X118496554Y-95770390D02*
X118572744Y-95846580D01*
X118572744Y-95846580D02*
X118610839Y-95922771D01*
X118610839Y-95922771D02*
X118648935Y-96075152D01*
X118648935Y-96075152D02*
X118648935Y-96189438D01*
X118648935Y-96189438D02*
X118610839Y-96341819D01*
X118610839Y-96341819D02*
X118572744Y-96418009D01*
X118572744Y-96418009D02*
X118496554Y-96494200D01*
X118496554Y-96494200D02*
X118382268Y-96532295D01*
X118382268Y-96532295D02*
X118191792Y-96532295D01*
X116706077Y-100812295D02*
X117201315Y-100812295D01*
X117201315Y-100812295D02*
X116934649Y-101117057D01*
X116934649Y-101117057D02*
X117048934Y-101117057D01*
X117048934Y-101117057D02*
X117125125Y-101155152D01*
X117125125Y-101155152D02*
X117163220Y-101193247D01*
X117163220Y-101193247D02*
X117201315Y-101269438D01*
X117201315Y-101269438D02*
X117201315Y-101459914D01*
X117201315Y-101459914D02*
X117163220Y-101536104D01*
X117163220Y-101536104D02*
X117125125Y-101574200D01*
X117125125Y-101574200D02*
X117048934Y-101612295D01*
X117048934Y-101612295D02*
X116820363Y-101612295D01*
X116820363Y-101612295D02*
X116744172Y-101574200D01*
X116744172Y-101574200D02*
X116706077Y-101536104D01*
X117429887Y-100812295D02*
X117696554Y-101612295D01*
X117696554Y-101612295D02*
X117963220Y-100812295D01*
X118153696Y-100812295D02*
X118648934Y-100812295D01*
X118648934Y-100812295D02*
X118382268Y-101117057D01*
X118382268Y-101117057D02*
X118496553Y-101117057D01*
X118496553Y-101117057D02*
X118572744Y-101155152D01*
X118572744Y-101155152D02*
X118610839Y-101193247D01*
X118610839Y-101193247D02*
X118648934Y-101269438D01*
X118648934Y-101269438D02*
X118648934Y-101459914D01*
X118648934Y-101459914D02*
X118610839Y-101536104D01*
X118610839Y-101536104D02*
X118572744Y-101574200D01*
X118572744Y-101574200D02*
X118496553Y-101612295D01*
X118496553Y-101612295D02*
X118267982Y-101612295D01*
X118267982Y-101612295D02*
X118191791Y-101574200D01*
X118191791Y-101574200D02*
X118153696Y-101536104D01*
X116096554Y-91452295D02*
X116096554Y-90652295D01*
X116096554Y-91033247D02*
X116553697Y-91033247D01*
X116553697Y-91452295D02*
X116553697Y-90652295D01*
X116896553Y-91414200D02*
X117010839Y-91452295D01*
X117010839Y-91452295D02*
X117201315Y-91452295D01*
X117201315Y-91452295D02*
X117277506Y-91414200D01*
X117277506Y-91414200D02*
X117315601Y-91376104D01*
X117315601Y-91376104D02*
X117353696Y-91299914D01*
X117353696Y-91299914D02*
X117353696Y-91223723D01*
X117353696Y-91223723D02*
X117315601Y-91147533D01*
X117315601Y-91147533D02*
X117277506Y-91109438D01*
X117277506Y-91109438D02*
X117201315Y-91071342D01*
X117201315Y-91071342D02*
X117048934Y-91033247D01*
X117048934Y-91033247D02*
X116972744Y-90995152D01*
X116972744Y-90995152D02*
X116934649Y-90957057D01*
X116934649Y-90957057D02*
X116896553Y-90880866D01*
X116896553Y-90880866D02*
X116896553Y-90804676D01*
X116896553Y-90804676D02*
X116934649Y-90728485D01*
X116934649Y-90728485D02*
X116972744Y-90690390D01*
X116972744Y-90690390D02*
X117048934Y-90652295D01*
X117048934Y-90652295D02*
X117239411Y-90652295D01*
X117239411Y-90652295D02*
X117353696Y-90690390D01*
X117506078Y-91528485D02*
X118115601Y-91528485D01*
X118572744Y-91033247D02*
X118306078Y-91033247D01*
X118306078Y-91452295D02*
X118306078Y-90652295D01*
X118306078Y-90652295D02*
X118687030Y-90652295D01*
D12*
X105757142Y-94064140D02*
X106442857Y-94064140D01*
X106099999Y-94406997D02*
X106099999Y-93721282D01*
D11*
X115944173Y-106692295D02*
X115944173Y-105892295D01*
X115944173Y-106273247D02*
X116401316Y-106273247D01*
X116401316Y-106692295D02*
X116401316Y-105892295D01*
X116744172Y-106654200D02*
X116858458Y-106692295D01*
X116858458Y-106692295D02*
X117048934Y-106692295D01*
X117048934Y-106692295D02*
X117125125Y-106654200D01*
X117125125Y-106654200D02*
X117163220Y-106616104D01*
X117163220Y-106616104D02*
X117201315Y-106539914D01*
X117201315Y-106539914D02*
X117201315Y-106463723D01*
X117201315Y-106463723D02*
X117163220Y-106387533D01*
X117163220Y-106387533D02*
X117125125Y-106349438D01*
X117125125Y-106349438D02*
X117048934Y-106311342D01*
X117048934Y-106311342D02*
X116896553Y-106273247D01*
X116896553Y-106273247D02*
X116820363Y-106235152D01*
X116820363Y-106235152D02*
X116782268Y-106197057D01*
X116782268Y-106197057D02*
X116744172Y-106120866D01*
X116744172Y-106120866D02*
X116744172Y-106044676D01*
X116744172Y-106044676D02*
X116782268Y-105968485D01*
X116782268Y-105968485D02*
X116820363Y-105930390D01*
X116820363Y-105930390D02*
X116896553Y-105892295D01*
X116896553Y-105892295D02*
X117087030Y-105892295D01*
X117087030Y-105892295D02*
X117201315Y-105930390D01*
X117353697Y-106768485D02*
X117963220Y-106768485D01*
X118153697Y-106692295D02*
X118153697Y-105892295D01*
X118153697Y-106273247D02*
X118610840Y-106273247D01*
X118610840Y-106692295D02*
X118610840Y-105892295D01*
D13*
X146266165Y-115899870D02*
X146189975Y-115861775D01*
X146189975Y-115861775D02*
X146075689Y-115861775D01*
X146075689Y-115861775D02*
X145961403Y-115899870D01*
X145961403Y-115899870D02*
X145885213Y-115976060D01*
X145885213Y-115976060D02*
X145847118Y-116052251D01*
X145847118Y-116052251D02*
X145809022Y-116204632D01*
X145809022Y-116204632D02*
X145809022Y-116318918D01*
X145809022Y-116318918D02*
X145847118Y-116471299D01*
X145847118Y-116471299D02*
X145885213Y-116547489D01*
X145885213Y-116547489D02*
X145961403Y-116623680D01*
X145961403Y-116623680D02*
X146075689Y-116661775D01*
X146075689Y-116661775D02*
X146151880Y-116661775D01*
X146151880Y-116661775D02*
X146266165Y-116623680D01*
X146266165Y-116623680D02*
X146304261Y-116585584D01*
X146304261Y-116585584D02*
X146304261Y-116318918D01*
X146304261Y-116318918D02*
X146151880Y-116318918D01*
X146647118Y-116661775D02*
X146647118Y-115861775D01*
X146647118Y-115861775D02*
X147104261Y-116661775D01*
X147104261Y-116661775D02*
X147104261Y-115861775D01*
X147485213Y-116661775D02*
X147485213Y-115861775D01*
X147485213Y-115861775D02*
X147675689Y-115861775D01*
X147675689Y-115861775D02*
X147789975Y-115899870D01*
X147789975Y-115899870D02*
X147866165Y-115976060D01*
X147866165Y-115976060D02*
X147904260Y-116052251D01*
X147904260Y-116052251D02*
X147942356Y-116204632D01*
X147942356Y-116204632D02*
X147942356Y-116318918D01*
X147942356Y-116318918D02*
X147904260Y-116471299D01*
X147904260Y-116471299D02*
X147866165Y-116547489D01*
X147866165Y-116547489D02*
X147789975Y-116623680D01*
X147789975Y-116623680D02*
X147675689Y-116661775D01*
X147675689Y-116661775D02*
X147485213Y-116661775D01*
D11*
X149561541Y-110553152D02*
X149799636Y-111219819D01*
X149799636Y-111219819D02*
X150037731Y-110553152D01*
X150942493Y-111219819D02*
X150371065Y-111219819D01*
X150656779Y-111219819D02*
X150656779Y-110219819D01*
X150656779Y-110219819D02*
X150561541Y-110362676D01*
X150561541Y-110362676D02*
X150466303Y-110457914D01*
X150466303Y-110457914D02*
X150371065Y-110505533D01*
X147016779Y-108743152D02*
X147016779Y-109743152D01*
X147016779Y-108790771D02*
X147112017Y-108743152D01*
X147112017Y-108743152D02*
X147302493Y-108743152D01*
X147302493Y-108743152D02*
X147397731Y-108790771D01*
X147397731Y-108790771D02*
X147445350Y-108838390D01*
X147445350Y-108838390D02*
X147492969Y-108933628D01*
X147492969Y-108933628D02*
X147492969Y-109219342D01*
X147492969Y-109219342D02*
X147445350Y-109314580D01*
X147445350Y-109314580D02*
X147397731Y-109362200D01*
X147397731Y-109362200D02*
X147302493Y-109409819D01*
X147302493Y-109409819D02*
X147112017Y-109409819D01*
X147112017Y-109409819D02*
X147016779Y-109362200D01*
X147921541Y-109409819D02*
X147921541Y-108743152D01*
X147921541Y-108933628D02*
X147969160Y-108838390D01*
X147969160Y-108838390D02*
X148016779Y-108790771D01*
X148016779Y-108790771D02*
X148112017Y-108743152D01*
X148112017Y-108743152D02*
X148207255Y-108743152D01*
X148683446Y-109409819D02*
X148588208Y-109362200D01*
X148588208Y-109362200D02*
X148540589Y-109314580D01*
X148540589Y-109314580D02*
X148492970Y-109219342D01*
X148492970Y-109219342D02*
X148492970Y-108933628D01*
X148492970Y-108933628D02*
X148540589Y-108838390D01*
X148540589Y-108838390D02*
X148588208Y-108790771D01*
X148588208Y-108790771D02*
X148683446Y-108743152D01*
X148683446Y-108743152D02*
X148826303Y-108743152D01*
X148826303Y-108743152D02*
X148921541Y-108790771D01*
X148921541Y-108790771D02*
X148969160Y-108838390D01*
X148969160Y-108838390D02*
X149016779Y-108933628D01*
X149016779Y-108933628D02*
X149016779Y-109219342D01*
X149016779Y-109219342D02*
X148969160Y-109314580D01*
X148969160Y-109314580D02*
X148921541Y-109362200D01*
X148921541Y-109362200D02*
X148826303Y-109409819D01*
X148826303Y-109409819D02*
X148683446Y-109409819D01*
X149302494Y-108743152D02*
X149683446Y-108743152D01*
X149445351Y-108409819D02*
X149445351Y-109266961D01*
X149445351Y-109266961D02*
X149492970Y-109362200D01*
X149492970Y-109362200D02*
X149588208Y-109409819D01*
X149588208Y-109409819D02*
X149683446Y-109409819D01*
X150159637Y-109409819D02*
X150064399Y-109362200D01*
X150064399Y-109362200D02*
X150016780Y-109314580D01*
X150016780Y-109314580D02*
X149969161Y-109219342D01*
X149969161Y-109219342D02*
X149969161Y-108933628D01*
X149969161Y-108933628D02*
X150016780Y-108838390D01*
X150016780Y-108838390D02*
X150064399Y-108790771D01*
X150064399Y-108790771D02*
X150159637Y-108743152D01*
X150159637Y-108743152D02*
X150302494Y-108743152D01*
X150302494Y-108743152D02*
X150397732Y-108790771D01*
X150397732Y-108790771D02*
X150445351Y-108838390D01*
X150445351Y-108838390D02*
X150492970Y-108933628D01*
X150492970Y-108933628D02*
X150492970Y-109219342D01*
X150492970Y-109219342D02*
X150445351Y-109314580D01*
X150445351Y-109314580D02*
X150397732Y-109362200D01*
X150397732Y-109362200D02*
X150302494Y-109409819D01*
X150302494Y-109409819D02*
X150159637Y-109409819D01*
X151350113Y-108743152D02*
X151350113Y-109552676D01*
X151350113Y-109552676D02*
X151302494Y-109647914D01*
X151302494Y-109647914D02*
X151254875Y-109695533D01*
X151254875Y-109695533D02*
X151159637Y-109743152D01*
X151159637Y-109743152D02*
X151016780Y-109743152D01*
X151016780Y-109743152D02*
X150921542Y-109695533D01*
X151350113Y-109362200D02*
X151254875Y-109409819D01*
X151254875Y-109409819D02*
X151064399Y-109409819D01*
X151064399Y-109409819D02*
X150969161Y-109362200D01*
X150969161Y-109362200D02*
X150921542Y-109314580D01*
X150921542Y-109314580D02*
X150873923Y-109219342D01*
X150873923Y-109219342D02*
X150873923Y-108933628D01*
X150873923Y-108933628D02*
X150921542Y-108838390D01*
X150921542Y-108838390D02*
X150969161Y-108790771D01*
X150969161Y-108790771D02*
X151064399Y-108743152D01*
X151064399Y-108743152D02*
X151254875Y-108743152D01*
X151254875Y-108743152D02*
X151350113Y-108790771D01*
X151969161Y-109409819D02*
X151873923Y-109362200D01*
X151873923Y-109362200D02*
X151826304Y-109314580D01*
X151826304Y-109314580D02*
X151778685Y-109219342D01*
X151778685Y-109219342D02*
X151778685Y-108933628D01*
X151778685Y-108933628D02*
X151826304Y-108838390D01*
X151826304Y-108838390D02*
X151873923Y-108790771D01*
X151873923Y-108790771D02*
X151969161Y-108743152D01*
X151969161Y-108743152D02*
X152112018Y-108743152D01*
X152112018Y-108743152D02*
X152207256Y-108790771D01*
X152207256Y-108790771D02*
X152254875Y-108838390D01*
X152254875Y-108838390D02*
X152302494Y-108933628D01*
X152302494Y-108933628D02*
X152302494Y-109219342D01*
X152302494Y-109219342D02*
X152254875Y-109314580D01*
X152254875Y-109314580D02*
X152207256Y-109362200D01*
X152207256Y-109362200D02*
X152112018Y-109409819D01*
X152112018Y-109409819D02*
X151969161Y-109409819D01*
X152731066Y-108743152D02*
X152731066Y-109409819D01*
X152731066Y-108838390D02*
X152778685Y-108790771D01*
X152778685Y-108790771D02*
X152873923Y-108743152D01*
X152873923Y-108743152D02*
X153016780Y-108743152D01*
X153016780Y-108743152D02*
X153112018Y-108790771D01*
X153112018Y-108790771D02*
X153159637Y-108886009D01*
X153159637Y-108886009D02*
X153159637Y-109409819D01*
D14*
X103154761Y-107343911D02*
X103073809Y-107384387D01*
X103073809Y-107384387D02*
X102911904Y-107384387D01*
X102911904Y-107384387D02*
X102830952Y-107343911D01*
X102830952Y-107343911D02*
X102790475Y-107303434D01*
X102790475Y-107303434D02*
X102749999Y-107222482D01*
X102749999Y-107222482D02*
X102749999Y-106979625D01*
X102749999Y-106979625D02*
X102790475Y-106898672D01*
X102790475Y-106898672D02*
X102830952Y-106858196D01*
X102830952Y-106858196D02*
X102911904Y-106817720D01*
X102911904Y-106817720D02*
X103073809Y-106817720D01*
X103073809Y-106817720D02*
X103154761Y-106858196D01*
X103640475Y-107384387D02*
X103559523Y-107343911D01*
X103559523Y-107343911D02*
X103519046Y-107303434D01*
X103519046Y-107303434D02*
X103478570Y-107222482D01*
X103478570Y-107222482D02*
X103478570Y-106979625D01*
X103478570Y-106979625D02*
X103519046Y-106898672D01*
X103519046Y-106898672D02*
X103559523Y-106858196D01*
X103559523Y-106858196D02*
X103640475Y-106817720D01*
X103640475Y-106817720D02*
X103761904Y-106817720D01*
X103761904Y-106817720D02*
X103842856Y-106858196D01*
X103842856Y-106858196D02*
X103883332Y-106898672D01*
X103883332Y-106898672D02*
X103923808Y-106979625D01*
X103923808Y-106979625D02*
X103923808Y-107222482D01*
X103923808Y-107222482D02*
X103883332Y-107303434D01*
X103883332Y-107303434D02*
X103842856Y-107343911D01*
X103842856Y-107343911D02*
X103761904Y-107384387D01*
X103761904Y-107384387D02*
X103640475Y-107384387D01*
X104652380Y-107384387D02*
X104652380Y-106534387D01*
X104652380Y-107343911D02*
X104571428Y-107384387D01*
X104571428Y-107384387D02*
X104409523Y-107384387D01*
X104409523Y-107384387D02*
X104328571Y-107343911D01*
X104328571Y-107343911D02*
X104288094Y-107303434D01*
X104288094Y-107303434D02*
X104247618Y-107222482D01*
X104247618Y-107222482D02*
X104247618Y-106979625D01*
X104247618Y-106979625D02*
X104288094Y-106898672D01*
X104288094Y-106898672D02*
X104328571Y-106858196D01*
X104328571Y-106858196D02*
X104409523Y-106817720D01*
X104409523Y-106817720D02*
X104571428Y-106817720D01*
X104571428Y-106817720D02*
X104652380Y-106858196D01*
X105380952Y-107343911D02*
X105300000Y-107384387D01*
X105300000Y-107384387D02*
X105138095Y-107384387D01*
X105138095Y-107384387D02*
X105057142Y-107343911D01*
X105057142Y-107343911D02*
X105016666Y-107262958D01*
X105016666Y-107262958D02*
X105016666Y-106939149D01*
X105016666Y-106939149D02*
X105057142Y-106858196D01*
X105057142Y-106858196D02*
X105138095Y-106817720D01*
X105138095Y-106817720D02*
X105300000Y-106817720D01*
X105300000Y-106817720D02*
X105380952Y-106858196D01*
X105380952Y-106858196D02*
X105421428Y-106939149D01*
X105421428Y-106939149D02*
X105421428Y-107020101D01*
X105421428Y-107020101D02*
X105016666Y-107101053D01*
X105785713Y-107384387D02*
X105785713Y-106817720D01*
X105785713Y-106898672D02*
X105826190Y-106858196D01*
X105826190Y-106858196D02*
X105907142Y-106817720D01*
X105907142Y-106817720D02*
X106028571Y-106817720D01*
X106028571Y-106817720D02*
X106109523Y-106858196D01*
X106109523Y-106858196D02*
X106149999Y-106939149D01*
X106149999Y-106939149D02*
X106149999Y-107384387D01*
X106149999Y-106939149D02*
X106190475Y-106858196D01*
X106190475Y-106858196D02*
X106271428Y-106817720D01*
X106271428Y-106817720D02*
X106392856Y-106817720D01*
X106392856Y-106817720D02*
X106473809Y-106858196D01*
X106473809Y-106858196D02*
X106514285Y-106939149D01*
X106514285Y-106939149D02*
X106514285Y-107384387D01*
X106838094Y-106817720D02*
X107040475Y-107384387D01*
X107242856Y-106817720D02*
X107040475Y-107384387D01*
X107040475Y-107384387D02*
X106959523Y-107586768D01*
X106959523Y-107586768D02*
X106919046Y-107627244D01*
X106919046Y-107627244D02*
X106838094Y-107667720D01*
X107566665Y-107384387D02*
X107566665Y-106817720D01*
X107566665Y-106979625D02*
X107607142Y-106898672D01*
X107607142Y-106898672D02*
X107647618Y-106858196D01*
X107647618Y-106858196D02*
X107728570Y-106817720D01*
X107728570Y-106817720D02*
X107809523Y-106817720D01*
X108092855Y-107384387D02*
X108092855Y-106817720D01*
X108092855Y-106534387D02*
X108052379Y-106574863D01*
X108052379Y-106574863D02*
X108092855Y-106615339D01*
X108092855Y-106615339D02*
X108133332Y-106574863D01*
X108133332Y-106574863D02*
X108092855Y-106534387D01*
X108092855Y-106534387D02*
X108092855Y-106615339D01*
X108861903Y-107384387D02*
X108861903Y-106939149D01*
X108861903Y-106939149D02*
X108821427Y-106858196D01*
X108821427Y-106858196D02*
X108740475Y-106817720D01*
X108740475Y-106817720D02*
X108578570Y-106817720D01*
X108578570Y-106817720D02*
X108497617Y-106858196D01*
X108861903Y-107343911D02*
X108780951Y-107384387D01*
X108780951Y-107384387D02*
X108578570Y-107384387D01*
X108578570Y-107384387D02*
X108497617Y-107343911D01*
X108497617Y-107343911D02*
X108457141Y-107262958D01*
X108457141Y-107262958D02*
X108457141Y-107182006D01*
X108457141Y-107182006D02*
X108497617Y-107101053D01*
X108497617Y-107101053D02*
X108578570Y-107060577D01*
X108578570Y-107060577D02*
X108780951Y-107060577D01*
X108780951Y-107060577D02*
X108861903Y-107020101D01*
X109630951Y-107384387D02*
X109630951Y-106534387D01*
X109630951Y-107343911D02*
X109549999Y-107384387D01*
X109549999Y-107384387D02*
X109388094Y-107384387D01*
X109388094Y-107384387D02*
X109307142Y-107343911D01*
X109307142Y-107343911D02*
X109266665Y-107303434D01*
X109266665Y-107303434D02*
X109226189Y-107222482D01*
X109226189Y-107222482D02*
X109226189Y-106979625D01*
X109226189Y-106979625D02*
X109266665Y-106898672D01*
X109266665Y-106898672D02*
X109307142Y-106858196D01*
X109307142Y-106858196D02*
X109388094Y-106817720D01*
X109388094Y-106817720D02*
X109549999Y-106817720D01*
X109549999Y-106817720D02*
X109630951Y-106858196D01*
X110035713Y-107303434D02*
X110076190Y-107343911D01*
X110076190Y-107343911D02*
X110035713Y-107384387D01*
X110035713Y-107384387D02*
X109995237Y-107343911D01*
X109995237Y-107343911D02*
X110035713Y-107303434D01*
X110035713Y-107303434D02*
X110035713Y-107384387D01*
X110440475Y-107384387D02*
X110440475Y-106817720D01*
X110440475Y-106534387D02*
X110399999Y-106574863D01*
X110399999Y-106574863D02*
X110440475Y-106615339D01*
X110440475Y-106615339D02*
X110480952Y-106574863D01*
X110480952Y-106574863D02*
X110440475Y-106534387D01*
X110440475Y-106534387D02*
X110440475Y-106615339D01*
X110966666Y-107384387D02*
X110885714Y-107343911D01*
X110885714Y-107343911D02*
X110845237Y-107303434D01*
X110845237Y-107303434D02*
X110804761Y-107222482D01*
X110804761Y-107222482D02*
X110804761Y-106979625D01*
X110804761Y-106979625D02*
X110845237Y-106898672D01*
X110845237Y-106898672D02*
X110885714Y-106858196D01*
X110885714Y-106858196D02*
X110966666Y-106817720D01*
X110966666Y-106817720D02*
X111088095Y-106817720D01*
X111088095Y-106817720D02*
X111169047Y-106858196D01*
X111169047Y-106858196D02*
X111209523Y-106898672D01*
X111209523Y-106898672D02*
X111249999Y-106979625D01*
X111249999Y-106979625D02*
X111249999Y-107222482D01*
X111249999Y-107222482D02*
X111209523Y-107303434D01*
X111209523Y-107303434D02*
X111169047Y-107343911D01*
X111169047Y-107343911D02*
X111088095Y-107384387D01*
X111088095Y-107384387D02*
X110966666Y-107384387D01*
D11*
X116706077Y-98272295D02*
X117201315Y-98272295D01*
X117201315Y-98272295D02*
X116934649Y-98577057D01*
X116934649Y-98577057D02*
X117048934Y-98577057D01*
X117048934Y-98577057D02*
X117125125Y-98615152D01*
X117125125Y-98615152D02*
X117163220Y-98653247D01*
X117163220Y-98653247D02*
X117201315Y-98729438D01*
X117201315Y-98729438D02*
X117201315Y-98919914D01*
X117201315Y-98919914D02*
X117163220Y-98996104D01*
X117163220Y-98996104D02*
X117125125Y-99034200D01*
X117125125Y-99034200D02*
X117048934Y-99072295D01*
X117048934Y-99072295D02*
X116820363Y-99072295D01*
X116820363Y-99072295D02*
X116744172Y-99034200D01*
X116744172Y-99034200D02*
X116706077Y-98996104D01*
X117429887Y-98272295D02*
X117696554Y-99072295D01*
X117696554Y-99072295D02*
X117963220Y-98272295D01*
X118153696Y-98272295D02*
X118648934Y-98272295D01*
X118648934Y-98272295D02*
X118382268Y-98577057D01*
X118382268Y-98577057D02*
X118496553Y-98577057D01*
X118496553Y-98577057D02*
X118572744Y-98615152D01*
X118572744Y-98615152D02*
X118610839Y-98653247D01*
X118610839Y-98653247D02*
X118648934Y-98729438D01*
X118648934Y-98729438D02*
X118648934Y-98919914D01*
X118648934Y-98919914D02*
X118610839Y-98996104D01*
X118610839Y-98996104D02*
X118572744Y-99034200D01*
X118572744Y-99034200D02*
X118496553Y-99072295D01*
X118496553Y-99072295D02*
X118267982Y-99072295D01*
X118267982Y-99072295D02*
X118191791Y-99034200D01*
X118191791Y-99034200D02*
X118153696Y-98996104D01*
X116972744Y-88150390D02*
X116896554Y-88112295D01*
X116896554Y-88112295D02*
X116782268Y-88112295D01*
X116782268Y-88112295D02*
X116667982Y-88150390D01*
X116667982Y-88150390D02*
X116591792Y-88226580D01*
X116591792Y-88226580D02*
X116553697Y-88302771D01*
X116553697Y-88302771D02*
X116515601Y-88455152D01*
X116515601Y-88455152D02*
X116515601Y-88569438D01*
X116515601Y-88569438D02*
X116553697Y-88721819D01*
X116553697Y-88721819D02*
X116591792Y-88798009D01*
X116591792Y-88798009D02*
X116667982Y-88874200D01*
X116667982Y-88874200D02*
X116782268Y-88912295D01*
X116782268Y-88912295D02*
X116858459Y-88912295D01*
X116858459Y-88912295D02*
X116972744Y-88874200D01*
X116972744Y-88874200D02*
X117010840Y-88836104D01*
X117010840Y-88836104D02*
X117010840Y-88569438D01*
X117010840Y-88569438D02*
X116858459Y-88569438D01*
X117353697Y-88912295D02*
X117353697Y-88112295D01*
X117353697Y-88112295D02*
X117810840Y-88912295D01*
X117810840Y-88912295D02*
X117810840Y-88112295D01*
X118191792Y-88912295D02*
X118191792Y-88112295D01*
X118191792Y-88112295D02*
X118382268Y-88112295D01*
X118382268Y-88112295D02*
X118496554Y-88150390D01*
X118496554Y-88150390D02*
X118572744Y-88226580D01*
X118572744Y-88226580D02*
X118610839Y-88302771D01*
X118610839Y-88302771D02*
X118648935Y-88455152D01*
X118648935Y-88455152D02*
X118648935Y-88569438D01*
X118648935Y-88569438D02*
X118610839Y-88721819D01*
X118610839Y-88721819D02*
X118572744Y-88798009D01*
X118572744Y-88798009D02*
X118496554Y-88874200D01*
X118496554Y-88874200D02*
X118382268Y-88912295D01*
X118382268Y-88912295D02*
X118191792Y-88912295D01*
X116972744Y-103390390D02*
X116896554Y-103352295D01*
X116896554Y-103352295D02*
X116782268Y-103352295D01*
X116782268Y-103352295D02*
X116667982Y-103390390D01*
X116667982Y-103390390D02*
X116591792Y-103466580D01*
X116591792Y-103466580D02*
X116553697Y-103542771D01*
X116553697Y-103542771D02*
X116515601Y-103695152D01*
X116515601Y-103695152D02*
X116515601Y-103809438D01*
X116515601Y-103809438D02*
X116553697Y-103961819D01*
X116553697Y-103961819D02*
X116591792Y-104038009D01*
X116591792Y-104038009D02*
X116667982Y-104114200D01*
X116667982Y-104114200D02*
X116782268Y-104152295D01*
X116782268Y-104152295D02*
X116858459Y-104152295D01*
X116858459Y-104152295D02*
X116972744Y-104114200D01*
X116972744Y-104114200D02*
X117010840Y-104076104D01*
X117010840Y-104076104D02*
X117010840Y-103809438D01*
X117010840Y-103809438D02*
X116858459Y-103809438D01*
X117353697Y-104152295D02*
X117353697Y-103352295D01*
X117353697Y-103352295D02*
X117810840Y-104152295D01*
X117810840Y-104152295D02*
X117810840Y-103352295D01*
X118191792Y-104152295D02*
X118191792Y-103352295D01*
X118191792Y-103352295D02*
X118382268Y-103352295D01*
X118382268Y-103352295D02*
X118496554Y-103390390D01*
X118496554Y-103390390D02*
X118572744Y-103466580D01*
X118572744Y-103466580D02*
X118610839Y-103542771D01*
X118610839Y-103542771D02*
X118648935Y-103695152D01*
X118648935Y-103695152D02*
X118648935Y-103809438D01*
X118648935Y-103809438D02*
X118610839Y-103961819D01*
X118610839Y-103961819D02*
X118572744Y-104038009D01*
X118572744Y-104038009D02*
X118496554Y-104114200D01*
X118496554Y-104114200D02*
X118382268Y-104152295D01*
X118382268Y-104152295D02*
X118191792Y-104152295D01*
D13*
X145849498Y-83081775D02*
X146344736Y-83081775D01*
X146344736Y-83081775D02*
X146078070Y-83386537D01*
X146078070Y-83386537D02*
X146192355Y-83386537D01*
X146192355Y-83386537D02*
X146268546Y-83424632D01*
X146268546Y-83424632D02*
X146306641Y-83462727D01*
X146306641Y-83462727D02*
X146344736Y-83538918D01*
X146344736Y-83538918D02*
X146344736Y-83729394D01*
X146344736Y-83729394D02*
X146306641Y-83805584D01*
X146306641Y-83805584D02*
X146268546Y-83843680D01*
X146268546Y-83843680D02*
X146192355Y-83881775D01*
X146192355Y-83881775D02*
X145963784Y-83881775D01*
X145963784Y-83881775D02*
X145887593Y-83843680D01*
X145887593Y-83843680D02*
X145849498Y-83805584D01*
X146573308Y-83081775D02*
X146839975Y-83881775D01*
X146839975Y-83881775D02*
X147106641Y-83081775D01*
X147297117Y-83081775D02*
X147792355Y-83081775D01*
X147792355Y-83081775D02*
X147525689Y-83386537D01*
X147525689Y-83386537D02*
X147639974Y-83386537D01*
X147639974Y-83386537D02*
X147716165Y-83424632D01*
X147716165Y-83424632D02*
X147754260Y-83462727D01*
X147754260Y-83462727D02*
X147792355Y-83538918D01*
X147792355Y-83538918D02*
X147792355Y-83729394D01*
X147792355Y-83729394D02*
X147754260Y-83805584D01*
X147754260Y-83805584D02*
X147716165Y-83843680D01*
X147716165Y-83843680D02*
X147639974Y-83881775D01*
X147639974Y-83881775D02*
X147411403Y-83881775D01*
X147411403Y-83881775D02*
X147335212Y-83843680D01*
X147335212Y-83843680D02*
X147297117Y-83805584D01*
D11*
X148963333Y-84579580D02*
X148915714Y-84627200D01*
X148915714Y-84627200D02*
X148772857Y-84674819D01*
X148772857Y-84674819D02*
X148677619Y-84674819D01*
X148677619Y-84674819D02*
X148534762Y-84627200D01*
X148534762Y-84627200D02*
X148439524Y-84531961D01*
X148439524Y-84531961D02*
X148391905Y-84436723D01*
X148391905Y-84436723D02*
X148344286Y-84246247D01*
X148344286Y-84246247D02*
X148344286Y-84103390D01*
X148344286Y-84103390D02*
X148391905Y-83912914D01*
X148391905Y-83912914D02*
X148439524Y-83817676D01*
X148439524Y-83817676D02*
X148534762Y-83722438D01*
X148534762Y-83722438D02*
X148677619Y-83674819D01*
X148677619Y-83674819D02*
X148772857Y-83674819D01*
X148772857Y-83674819D02*
X148915714Y-83722438D01*
X148915714Y-83722438D02*
X148963333Y-83770057D01*
X149915714Y-84674819D02*
X149344286Y-84674819D01*
X149630000Y-84674819D02*
X149630000Y-83674819D01*
X149630000Y-83674819D02*
X149534762Y-83817676D01*
X149534762Y-83817676D02*
X149439524Y-83912914D01*
X149439524Y-83912914D02*
X149344286Y-83960533D01*
X-3386666Y-579726D02*
X-3386666Y690273D01*
X-3386666Y690273D02*
X-2902856Y690273D01*
X-2902856Y690273D02*
X-2781904Y629797D01*
X-2781904Y629797D02*
X-2721427Y569321D01*
X-2721427Y569321D02*
X-2660951Y448369D01*
X-2660951Y448369D02*
X-2660951Y266940D01*
X-2660951Y266940D02*
X-2721427Y145988D01*
X-2721427Y145988D02*
X-2781904Y85511D01*
X-2781904Y85511D02*
X-2902856Y25035D01*
X-2902856Y25035D02*
X-3386666Y25035D01*
X-1390951Y-579726D02*
X-1814285Y25035D01*
X-2116666Y-579726D02*
X-2116666Y690273D01*
X-2116666Y690273D02*
X-1632856Y690273D01*
X-1632856Y690273D02*
X-1511904Y629797D01*
X-1511904Y629797D02*
X-1451427Y569321D01*
X-1451427Y569321D02*
X-1390951Y448369D01*
X-1390951Y448369D02*
X-1390951Y266940D01*
X-1390951Y266940D02*
X-1451427Y145988D01*
X-1451427Y145988D02*
X-1511904Y85511D01*
X-1511904Y85511D02*
X-1632856Y25035D01*
X-1632856Y25035D02*
X-2116666Y25035D01*
X-604761Y690273D02*
X-362856Y690273D01*
X-362856Y690273D02*
X-241904Y629797D01*
X-241904Y629797D02*
X-120951Y508845D01*
X-120951Y508845D02*
X-60475Y266940D01*
X-60475Y266940D02*
X-60475Y-156392D01*
X-60475Y-156392D02*
X-120951Y-398297D01*
X-120951Y-398297D02*
X-241904Y-519250D01*
X-241904Y-519250D02*
X-362856Y-579726D01*
X-362856Y-579726D02*
X-604761Y-579726D01*
X-604761Y-579726D02*
X-725713Y-519250D01*
X-725713Y-519250D02*
X-846666Y-398297D01*
X-846666Y-398297D02*
X-907142Y-156392D01*
X-907142Y-156392D02*
X-907142Y266940D01*
X-907142Y266940D02*
X-846666Y508845D01*
X-846666Y508845D02*
X-725713Y629797D01*
X-725713Y629797D02*
X-604761Y690273D01*
X302381Y690273D02*
X1028095Y690273D01*
X665238Y-579726D02*
X665238Y690273D01*
X1693333Y690273D02*
X1935238Y690273D01*
X1935238Y690273D02*
X2056190Y629797D01*
X2056190Y629797D02*
X2177143Y508845D01*
X2177143Y508845D02*
X2237619Y266940D01*
X2237619Y266940D02*
X2237619Y-156392D01*
X2237619Y-156392D02*
X2177143Y-398297D01*
X2177143Y-398297D02*
X2056190Y-519250D01*
X2056190Y-519250D02*
X1935238Y-579726D01*
X1935238Y-579726D02*
X1693333Y-579726D01*
X1693333Y-579726D02*
X1572381Y-519250D01*
X1572381Y-519250D02*
X1451428Y-398297D01*
X1451428Y-398297D02*
X1390952Y-156392D01*
X1390952Y-156392D02*
X1390952Y266940D01*
X1390952Y266940D02*
X1451428Y508845D01*
X1451428Y508845D02*
X1572381Y629797D01*
X1572381Y629797D02*
X1693333Y690273D01*
X3447143Y-579726D02*
X2721428Y-579726D01*
X3084285Y-579726D02*
X3084285Y690273D01*
X3084285Y690273D02*
X2963333Y508845D01*
X2963333Y508845D02*
X2842381Y387892D01*
X2842381Y387892D02*
X2721428Y327416D01*
X115463333Y-83714819D02*
X115130000Y-83238628D01*
X114891905Y-83714819D02*
X114891905Y-82714819D01*
X114891905Y-82714819D02*
X115272857Y-82714819D01*
X115272857Y-82714819D02*
X115368095Y-82762438D01*
X115368095Y-82762438D02*
X115415714Y-82810057D01*
X115415714Y-82810057D02*
X115463333Y-82905295D01*
X115463333Y-82905295D02*
X115463333Y-83048152D01*
X115463333Y-83048152D02*
X115415714Y-83143390D01*
X115415714Y-83143390D02*
X115368095Y-83191009D01*
X115368095Y-83191009D02*
X115272857Y-83238628D01*
X115272857Y-83238628D02*
X114891905Y-83238628D01*
X116415714Y-83714819D02*
X115844286Y-83714819D01*
X116130000Y-83714819D02*
X116130000Y-82714819D01*
X116130000Y-82714819D02*
X116034762Y-82857676D01*
X116034762Y-82857676D02*
X115939524Y-82952914D01*
X115939524Y-82952914D02*
X115844286Y-83000533D01*
X150811905Y-99754819D02*
X150811905Y-98754819D01*
X150811905Y-98754819D02*
X151192857Y-98754819D01*
X151192857Y-98754819D02*
X151288095Y-98802438D01*
X151288095Y-98802438D02*
X151335714Y-98850057D01*
X151335714Y-98850057D02*
X151383333Y-98945295D01*
X151383333Y-98945295D02*
X151383333Y-99088152D01*
X151383333Y-99088152D02*
X151335714Y-99183390D01*
X151335714Y-99183390D02*
X151288095Y-99231009D01*
X151288095Y-99231009D02*
X151192857Y-99278628D01*
X151192857Y-99278628D02*
X150811905Y-99278628D01*
X152335714Y-99754819D02*
X151764286Y-99754819D01*
X152050000Y-99754819D02*
X152050000Y-98754819D01*
X152050000Y-98754819D02*
X151954762Y-98897676D01*
X151954762Y-98897676D02*
X151859524Y-98992914D01*
X151859524Y-98992914D02*
X151764286Y-99040533D01*
X153604819Y-93806666D02*
X153128628Y-94139999D01*
X153604819Y-94378094D02*
X152604819Y-94378094D01*
X152604819Y-94378094D02*
X152604819Y-93997142D01*
X152604819Y-93997142D02*
X152652438Y-93901904D01*
X152652438Y-93901904D02*
X152700057Y-93854285D01*
X152700057Y-93854285D02*
X152795295Y-93806666D01*
X152795295Y-93806666D02*
X152938152Y-93806666D01*
X152938152Y-93806666D02*
X153033390Y-93854285D01*
X153033390Y-93854285D02*
X153081009Y-93901904D01*
X153081009Y-93901904D02*
X153128628Y-93997142D01*
X153128628Y-93997142D02*
X153128628Y-94378094D01*
X152938152Y-92949523D02*
X153604819Y-92949523D01*
X152557200Y-93187618D02*
X153271485Y-93425713D01*
X153271485Y-93425713D02*
X153271485Y-92806666D01*
X146574298Y-104331876D02*
X147383821Y-104331876D01*
X147383821Y-104331876D02*
X147479059Y-104284257D01*
X147479059Y-104284257D02*
X147526679Y-104236638D01*
X147526679Y-104236638D02*
X147574298Y-104141400D01*
X147574298Y-104141400D02*
X147574298Y-103950924D01*
X147574298Y-103950924D02*
X147526679Y-103855686D01*
X147526679Y-103855686D02*
X147479059Y-103808067D01*
X147479059Y-103808067D02*
X147383821Y-103760448D01*
X147383821Y-103760448D02*
X146574298Y-103760448D01*
X146669536Y-103331876D02*
X146621917Y-103284257D01*
X146621917Y-103284257D02*
X146574298Y-103189019D01*
X146574298Y-103189019D02*
X146574298Y-102950924D01*
X146574298Y-102950924D02*
X146621917Y-102855686D01*
X146621917Y-102855686D02*
X146669536Y-102808067D01*
X146669536Y-102808067D02*
X146764774Y-102760448D01*
X146764774Y-102760448D02*
X146860012Y-102760448D01*
X146860012Y-102760448D02*
X147002869Y-102808067D01*
X147002869Y-102808067D02*
X147574298Y-103379495D01*
X147574298Y-103379495D02*
X147574298Y-102760448D01*
X145780532Y-89704884D02*
X146590055Y-89704884D01*
X146590055Y-89704884D02*
X146685293Y-89657265D01*
X146685293Y-89657265D02*
X146732913Y-89609646D01*
X146732913Y-89609646D02*
X146780532Y-89514408D01*
X146780532Y-89514408D02*
X146780532Y-89323932D01*
X146780532Y-89323932D02*
X146732913Y-89228694D01*
X146732913Y-89228694D02*
X146685293Y-89181075D01*
X146685293Y-89181075D02*
X146590055Y-89133456D01*
X146590055Y-89133456D02*
X145780532Y-89133456D01*
X146780532Y-88133456D02*
X146780532Y-88704884D01*
X146780532Y-88419170D02*
X145780532Y-88419170D01*
X145780532Y-88419170D02*
X145923389Y-88514408D01*
X145923389Y-88514408D02*
X146018627Y-88609646D01*
X146018627Y-88609646D02*
X146066246Y-88704884D01*
X147434819Y-99666666D02*
X146958628Y-99999999D01*
X147434819Y-100238094D02*
X146434819Y-100238094D01*
X146434819Y-100238094D02*
X146434819Y-99857142D01*
X146434819Y-99857142D02*
X146482438Y-99761904D01*
X146482438Y-99761904D02*
X146530057Y-99714285D01*
X146530057Y-99714285D02*
X146625295Y-99666666D01*
X146625295Y-99666666D02*
X146768152Y-99666666D01*
X146768152Y-99666666D02*
X146863390Y-99714285D01*
X146863390Y-99714285D02*
X146911009Y-99761904D01*
X146911009Y-99761904D02*
X146958628Y-99857142D01*
X146958628Y-99857142D02*
X146958628Y-100238094D01*
X146434819Y-99333332D02*
X146434819Y-98714285D01*
X146434819Y-98714285D02*
X146815771Y-99047618D01*
X146815771Y-99047618D02*
X146815771Y-98904761D01*
X146815771Y-98904761D02*
X146863390Y-98809523D01*
X146863390Y-98809523D02*
X146911009Y-98761904D01*
X146911009Y-98761904D02*
X147006247Y-98714285D01*
X147006247Y-98714285D02*
X147244342Y-98714285D01*
X147244342Y-98714285D02*
X147339580Y-98761904D01*
X147339580Y-98761904D02*
X147387200Y-98809523D01*
X147387200Y-98809523D02*
X147434819Y-98904761D01*
X147434819Y-98904761D02*
X147434819Y-99190475D01*
X147434819Y-99190475D02*
X147387200Y-99285713D01*
X147387200Y-99285713D02*
X147339580Y-99333332D01*
X114731905Y-85664819D02*
X114731905Y-84664819D01*
X114731905Y-84664819D02*
X114970000Y-84664819D01*
X114970000Y-84664819D02*
X115112857Y-84712438D01*
X115112857Y-84712438D02*
X115208095Y-84807676D01*
X115208095Y-84807676D02*
X115255714Y-84902914D01*
X115255714Y-84902914D02*
X115303333Y-85093390D01*
X115303333Y-85093390D02*
X115303333Y-85236247D01*
X115303333Y-85236247D02*
X115255714Y-85426723D01*
X115255714Y-85426723D02*
X115208095Y-85521961D01*
X115208095Y-85521961D02*
X115112857Y-85617200D01*
X115112857Y-85617200D02*
X114970000Y-85664819D01*
X114970000Y-85664819D02*
X114731905Y-85664819D01*
X116255714Y-85664819D02*
X115684286Y-85664819D01*
X115970000Y-85664819D02*
X115970000Y-84664819D01*
X115970000Y-84664819D02*
X115874762Y-84807676D01*
X115874762Y-84807676D02*
X115779524Y-84902914D01*
X115779524Y-84902914D02*
X115684286Y-84950533D01*
X152164819Y-93716666D02*
X151688628Y-94049999D01*
X152164819Y-94288094D02*
X151164819Y-94288094D01*
X151164819Y-94288094D02*
X151164819Y-93907142D01*
X151164819Y-93907142D02*
X151212438Y-93811904D01*
X151212438Y-93811904D02*
X151260057Y-93764285D01*
X151260057Y-93764285D02*
X151355295Y-93716666D01*
X151355295Y-93716666D02*
X151498152Y-93716666D01*
X151498152Y-93716666D02*
X151593390Y-93764285D01*
X151593390Y-93764285D02*
X151641009Y-93811904D01*
X151641009Y-93811904D02*
X151688628Y-93907142D01*
X151688628Y-93907142D02*
X151688628Y-94288094D01*
X151260057Y-93335713D02*
X151212438Y-93288094D01*
X151212438Y-93288094D02*
X151164819Y-93192856D01*
X151164819Y-93192856D02*
X151164819Y-92954761D01*
X151164819Y-92954761D02*
X151212438Y-92859523D01*
X151212438Y-92859523D02*
X151260057Y-92811904D01*
X151260057Y-92811904D02*
X151355295Y-92764285D01*
X151355295Y-92764285D02*
X151450533Y-92764285D01*
X151450533Y-92764285D02*
X151593390Y-92811904D01*
X151593390Y-92811904D02*
X152164819Y-93383332D01*
X152164819Y-93383332D02*
X152164819Y-92764285D01*
D10*
X149113733Y-85190000D02*
X149406267Y-85190000D01*
X149113733Y-86210000D02*
X149406267Y-86210000D01*
X118487258Y-82697500D02*
X118012742Y-82697500D01*
X118487258Y-83742500D02*
X118012742Y-83742500D01*
X120360000Y-112740000D02*
X120360000Y-87220000D01*
X122960000Y-110140000D02*
X122960000Y-112740000D01*
X122960000Y-112740000D02*
X120360000Y-112740000D01*
X125560000Y-87220000D02*
X120360000Y-87220000D01*
X125560000Y-110140000D02*
X122960000Y-110140000D01*
X125560000Y-110140000D02*
X125560000Y-87220000D01*
X125560000Y-111410000D02*
X125560000Y-112740000D01*
X125560000Y-112740000D02*
X124230000Y-112740000D01*
D15*
X148619995Y-95619997D02*
X150524999Y-95619997D01*
X148619995Y-98160003D02*
X148619995Y-95619997D01*
D16*
X153700005Y-95619997D02*
X150524999Y-95619997D01*
D15*
X153700005Y-95619997D02*
X153700005Y-98160003D01*
X153700005Y-98160003D02*
X148619995Y-98160003D01*
D10*
X152707500Y-90605276D02*
X152707500Y-91114724D01*
X153752500Y-90605276D02*
X153752500Y-91114724D01*
D17*
X149257528Y-100579980D02*
X151864310Y-100579980D01*
X149257528Y-101499995D02*
X149257528Y-100579980D01*
X149257528Y-105480030D02*
X149257528Y-106559964D01*
X149257528Y-106559964D02*
X151857478Y-106559964D01*
X153517473Y-105559964D02*
X153517473Y-101659990D01*
X149870050Y-106039365D02*
G75*
G02*
X149620114Y-106039365I-124968J0D01*
G01*
X149620114Y-106039365D02*
G75*
G02*
X149870050Y-106039365I124968J0D01*
G01*
X147348857Y-90521999D02*
X147348857Y-89064112D01*
X147350000Y-89064112D02*
X150350000Y-89064112D01*
X147350000Y-91538001D02*
X147350000Y-92968202D01*
X147350000Y-92968202D02*
X150350000Y-92968202D01*
X150350000Y-89064112D02*
X150350000Y-92968202D01*
X147349999Y-91538001D02*
G75*
G02*
X147348857Y-90521999I-571J508001D01*
G01*
D10*
X148040223Y-91900627D02*
X148116360Y-91923847D01*
X148186466Y-91961543D01*
X148247822Y-92012253D01*
X148298044Y-92074009D01*
X148335183Y-92144412D01*
X148357798Y-92220731D01*
X148365011Y-92300003D01*
X148357798Y-92379274D01*
X148335183Y-92455593D01*
X148298044Y-92525996D01*
X148247822Y-92587752D01*
X148186466Y-92638462D01*
X148116360Y-92676158D01*
X148040223Y-92699378D01*
X147961011Y-92707219D01*
X147881799Y-92699378D01*
X147805662Y-92676158D01*
X147735555Y-92638462D01*
X147674200Y-92587752D01*
X147623978Y-92525996D01*
X147586839Y-92455593D01*
X147564223Y-92379274D01*
X147557010Y-92300003D01*
X147564223Y-92220731D01*
X147586839Y-92144412D01*
X147623978Y-92074009D01*
X147674200Y-92012253D01*
X147735555Y-91961543D01*
X147805662Y-91923847D01*
X147881799Y-91900627D01*
X147961011Y-91892786D01*
X148040223Y-91900627D01*
G36*
X148040223Y-91900627D02*
G01*
X148116360Y-91923847D01*
X148186466Y-91961543D01*
X148247822Y-92012253D01*
X148298044Y-92074009D01*
X148335183Y-92144412D01*
X148357798Y-92220731D01*
X148365011Y-92300003D01*
X148357798Y-92379274D01*
X148335183Y-92455593D01*
X148298044Y-92525996D01*
X148247822Y-92587752D01*
X148186466Y-92638462D01*
X148116360Y-92676158D01*
X148040223Y-92699378D01*
X147961011Y-92707219D01*
X147881799Y-92699378D01*
X147805662Y-92676158D01*
X147735555Y-92638462D01*
X147674200Y-92587752D01*
X147623978Y-92525996D01*
X147586839Y-92455593D01*
X147564223Y-92379274D01*
X147557010Y-92300003D01*
X147564223Y-92220731D01*
X147586839Y-92144412D01*
X147623978Y-92074009D01*
X147674200Y-92012253D01*
X147735555Y-91961543D01*
X147805662Y-91923847D01*
X147881799Y-91900627D01*
X147961011Y-91892786D01*
X148040223Y-91900627D01*
G37*
X146477500Y-96585276D02*
X146477500Y-97094724D01*
X147522500Y-96585276D02*
X147522500Y-97094724D01*
X116505000Y-84440000D02*
X116505000Y-86360000D01*
X116505000Y-86360000D02*
X119190000Y-86360000D01*
X119190000Y-84440000D02*
X116505000Y-84440000D01*
X151017500Y-90595276D02*
X151017500Y-91104724D01*
X152062500Y-90595276D02*
X152062500Y-91104724D01*
M02*
