%TF.GenerationSoftware,KiCad,Pcbnew,9.0.8+dfsg-1*%
%TF.CreationDate,2026-06-30T10:05:16+02:00*%
%TF.ProjectId,codemyriad-protogon,636f6465-6d79-4726-9961-642d70726f74,rev?*%
%TF.SameCoordinates,Original*%
%TF.FileFunction,Legend,Bot*%
%TF.FilePolarity,Positive*%
%FSLAX46Y46*%
G04 Gerber Fmt 4.6, Leading zero omitted, Abs format (unit mm)*
G04 Created by KiCad (PCBNEW 9.0.8+dfsg-1) date 2026-06-30 10:05:16*
%MOMM*%
%LPD*%
G01*
G04 APERTURE LIST*
%ADD10C,0.120000*%
%ADD11C,0.160000*%
%ADD12C,0.170000*%
G04 APERTURE END LIST*
D10*
X108029950Y-100103030D02*
X107191314Y-100103030D01*
X107191314Y-99536488D01*
X108029950Y-99536488D01*
X108029950Y-100103030D01*
G36*
X108029950Y-100103030D02*
G01*
X107191314Y-100103030D01*
X107191314Y-99536488D01*
X108029950Y-99536488D01*
X108029950Y-100103030D01*
G37*
X153279049Y-114659833D02*
X152385438Y-116229636D01*
X152139764Y-116085786D01*
X152951464Y-114659833D01*
X152139764Y-113233902D01*
X152385438Y-113090037D01*
X153279049Y-114659833D01*
G36*
X153279049Y-114659833D02*
G01*
X152385438Y-116229636D01*
X152139764Y-116085786D01*
X152951464Y-114659833D01*
X152139764Y-113233902D01*
X152385438Y-113090037D01*
X153279049Y-114659833D01*
G37*
X150270551Y-114813270D02*
X149851233Y-114813270D01*
X149851233Y-114530000D01*
X150270551Y-114530000D01*
X150270551Y-114813270D01*
G36*
X150270551Y-114813270D02*
G01*
X149851233Y-114813270D01*
X149851233Y-114530000D01*
X150270551Y-114530000D01*
X150270551Y-114813270D01*
G37*
X110222368Y-97836853D02*
X109663272Y-97836853D01*
X109663272Y-96987034D01*
X110222368Y-96987034D01*
X110222368Y-97836853D01*
G36*
X110222368Y-97836853D02*
G01*
X109663272Y-97836853D01*
X109663272Y-96987034D01*
X110222368Y-96987034D01*
X110222368Y-97836853D01*
G37*
X152620000Y-114813270D02*
X152200684Y-114813270D01*
X152200684Y-114530000D01*
X152620000Y-114530000D01*
X152620000Y-114813270D01*
G36*
X152620000Y-114813270D02*
G01*
X152200684Y-114813270D01*
X152200684Y-114530000D01*
X152620000Y-114530000D01*
X152620000Y-114813270D01*
G37*
X110222324Y-102652479D02*
X109663227Y-102652479D01*
X109663227Y-101802678D01*
X110222324Y-101802678D01*
X110222324Y-102652479D01*
G36*
X110222324Y-102652479D02*
G01*
X109663227Y-102652479D01*
X109663227Y-101802678D01*
X110222324Y-101802678D01*
X110222324Y-102652479D01*
G37*
X151297823Y-113824636D02*
X151365073Y-113832942D01*
X151430575Y-113846517D01*
X151494115Y-113865143D01*
X151555476Y-113888602D01*
X151614443Y-113916674D01*
X151670800Y-113949141D01*
X151724331Y-113985784D01*
X151774819Y-114026385D01*
X151822050Y-114070725D01*
X151865807Y-114118585D01*
X151905875Y-114169746D01*
X151942037Y-114223990D01*
X151974077Y-114281097D01*
X152001781Y-114340850D01*
X152024932Y-114403030D01*
X152043314Y-114467418D01*
X152056711Y-114533794D01*
X152064908Y-114601942D01*
X152067688Y-114671640D01*
X152064908Y-114741338D01*
X152056711Y-114809484D01*
X152043314Y-114875860D01*
X152024932Y-114940246D01*
X152001781Y-115002425D01*
X151974077Y-115062178D01*
X151942037Y-115119285D01*
X151905875Y-115173528D01*
X151865807Y-115224689D01*
X151822050Y-115272548D01*
X151774819Y-115316887D01*
X151724331Y-115357488D01*
X151670800Y-115394131D01*
X151614443Y-115426598D01*
X151555476Y-115454670D01*
X151494115Y-115478129D01*
X151430575Y-115496755D01*
X151365073Y-115510330D01*
X151297823Y-115518636D01*
X151229043Y-115521453D01*
X151160263Y-115518636D01*
X151093014Y-115510330D01*
X151027512Y-115496755D01*
X150963972Y-115478129D01*
X150902612Y-115454670D01*
X150843645Y-115426598D01*
X150787289Y-115394131D01*
X150733760Y-115357488D01*
X150683272Y-115316887D01*
X150636042Y-115272548D01*
X150592286Y-115224689D01*
X150552219Y-115173528D01*
X150516058Y-115119285D01*
X150484018Y-115062178D01*
X150456315Y-115002425D01*
X150433164Y-114940246D01*
X150414783Y-114875860D01*
X150401386Y-114809484D01*
X150393190Y-114741338D01*
X150390410Y-114671640D01*
X150669958Y-114671640D01*
X150671811Y-114718104D01*
X150677276Y-114763534D01*
X150686207Y-114807784D01*
X150698461Y-114850708D01*
X150713895Y-114892160D01*
X150732363Y-114931995D01*
X150753723Y-114970067D01*
X150777831Y-115006229D01*
X150804542Y-115040336D01*
X150833712Y-115072243D01*
X150865199Y-115101803D01*
X150898857Y-115128870D01*
X150934543Y-115153299D01*
X150972114Y-115174944D01*
X151011424Y-115193659D01*
X151052331Y-115209299D01*
X151094690Y-115221716D01*
X151138358Y-115230767D01*
X151183190Y-115236304D01*
X151229043Y-115238182D01*
X151274897Y-115236304D01*
X151319731Y-115230767D01*
X151363400Y-115221716D01*
X151405761Y-115209299D01*
X151446668Y-115193659D01*
X151485980Y-115174944D01*
X151523551Y-115153299D01*
X151559238Y-115128870D01*
X151592897Y-115101803D01*
X151624384Y-115072243D01*
X151653555Y-115040336D01*
X151680266Y-115006229D01*
X151704374Y-114970067D01*
X151725734Y-114931995D01*
X151744203Y-114892160D01*
X151759636Y-114850708D01*
X151771891Y-114807784D01*
X151780822Y-114763534D01*
X151786286Y-114718104D01*
X151788139Y-114671640D01*
X151786286Y-114625175D01*
X151780822Y-114579744D01*
X151771891Y-114535493D01*
X151759636Y-114492568D01*
X151744203Y-114451115D01*
X151725734Y-114411279D01*
X151704374Y-114373207D01*
X151680266Y-114337044D01*
X151653555Y-114302937D01*
X151624384Y-114271030D01*
X151592897Y-114241470D01*
X151559238Y-114214403D01*
X151523551Y-114189973D01*
X151485980Y-114168328D01*
X151446668Y-114149613D01*
X151405761Y-114133974D01*
X151363400Y-114121556D01*
X151319731Y-114112506D01*
X151274897Y-114106969D01*
X151229043Y-114105091D01*
X151183190Y-114106969D01*
X151138358Y-114112506D01*
X151094690Y-114121556D01*
X151052331Y-114133974D01*
X151011424Y-114149613D01*
X150972114Y-114168328D01*
X150934543Y-114189973D01*
X150898857Y-114214403D01*
X150865199Y-114241470D01*
X150833712Y-114271030D01*
X150804542Y-114302937D01*
X150777831Y-114337044D01*
X150753723Y-114373207D01*
X150732363Y-114411279D01*
X150713895Y-114451115D01*
X150698461Y-114492568D01*
X150686207Y-114535493D01*
X150677276Y-114579744D01*
X150671811Y-114625175D01*
X150669958Y-114671640D01*
X150390410Y-114671640D01*
X150393190Y-114601942D01*
X150401386Y-114533794D01*
X150414783Y-114467418D01*
X150433164Y-114403030D01*
X150456315Y-114340850D01*
X150484018Y-114281097D01*
X150516058Y-114223990D01*
X150552219Y-114169746D01*
X150592286Y-114118585D01*
X150636042Y-114070725D01*
X150683272Y-114026385D01*
X150733760Y-113985784D01*
X150787289Y-113949141D01*
X150843645Y-113916674D01*
X150902612Y-113888602D01*
X150963972Y-113865143D01*
X151027512Y-113846517D01*
X151093014Y-113832942D01*
X151160263Y-113824636D01*
X151229043Y-113821819D01*
X151297823Y-113824636D01*
G36*
X151297823Y-113824636D02*
G01*
X151365073Y-113832942D01*
X151430575Y-113846517D01*
X151494115Y-113865143D01*
X151555476Y-113888602D01*
X151614443Y-113916674D01*
X151670800Y-113949141D01*
X151724331Y-113985784D01*
X151774819Y-114026385D01*
X151822050Y-114070725D01*
X151865807Y-114118585D01*
X151905875Y-114169746D01*
X151942037Y-114223990D01*
X151974077Y-114281097D01*
X152001781Y-114340850D01*
X152024932Y-114403030D01*
X152043314Y-114467418D01*
X152056711Y-114533794D01*
X152064908Y-114601942D01*
X152067688Y-114671640D01*
X152064908Y-114741338D01*
X152056711Y-114809484D01*
X152043314Y-114875860D01*
X152024932Y-114940246D01*
X152001781Y-115002425D01*
X151974077Y-115062178D01*
X151942037Y-115119285D01*
X151905875Y-115173528D01*
X151865807Y-115224689D01*
X151822050Y-115272548D01*
X151774819Y-115316887D01*
X151724331Y-115357488D01*
X151670800Y-115394131D01*
X151614443Y-115426598D01*
X151555476Y-115454670D01*
X151494115Y-115478129D01*
X151430575Y-115496755D01*
X151365073Y-115510330D01*
X151297823Y-115518636D01*
X151229043Y-115521453D01*
X151160263Y-115518636D01*
X151093014Y-115510330D01*
X151027512Y-115496755D01*
X150963972Y-115478129D01*
X150902612Y-115454670D01*
X150843645Y-115426598D01*
X150787289Y-115394131D01*
X150733760Y-115357488D01*
X150683272Y-115316887D01*
X150636042Y-115272548D01*
X150592286Y-115224689D01*
X150552219Y-115173528D01*
X150516058Y-115119285D01*
X150484018Y-115062178D01*
X150456315Y-115002425D01*
X150433164Y-114940246D01*
X150414783Y-114875860D01*
X150401386Y-114809484D01*
X150393190Y-114741338D01*
X150390410Y-114671640D01*
X150669958Y-114671640D01*
X150671811Y-114718104D01*
X150677276Y-114763534D01*
X150686207Y-114807784D01*
X150698461Y-114850708D01*
X150713895Y-114892160D01*
X150732363Y-114931995D01*
X150753723Y-114970067D01*
X150777831Y-115006229D01*
X150804542Y-115040336D01*
X150833712Y-115072243D01*
X150865199Y-115101803D01*
X150898857Y-115128870D01*
X150934543Y-115153299D01*
X150972114Y-115174944D01*
X151011424Y-115193659D01*
X151052331Y-115209299D01*
X151094690Y-115221716D01*
X151138358Y-115230767D01*
X151183190Y-115236304D01*
X151229043Y-115238182D01*
X151274897Y-115236304D01*
X151319731Y-115230767D01*
X151363400Y-115221716D01*
X151405761Y-115209299D01*
X151446668Y-115193659D01*
X151485980Y-115174944D01*
X151523551Y-115153299D01*
X151559238Y-115128870D01*
X151592897Y-115101803D01*
X151624384Y-115072243D01*
X151653555Y-115040336D01*
X151680266Y-115006229D01*
X151704374Y-114970067D01*
X151725734Y-114931995D01*
X151744203Y-114892160D01*
X151759636Y-114850708D01*
X151771891Y-114807784D01*
X151780822Y-114763534D01*
X151786286Y-114718104D01*
X151788139Y-114671640D01*
X151786286Y-114625175D01*
X151780822Y-114579744D01*
X151771891Y-114535493D01*
X151759636Y-114492568D01*
X151744203Y-114451115D01*
X151725734Y-114411279D01*
X151704374Y-114373207D01*
X151680266Y-114337044D01*
X151653555Y-114302937D01*
X151624384Y-114271030D01*
X151592897Y-114241470D01*
X151559238Y-114214403D01*
X151523551Y-114189973D01*
X151485980Y-114168328D01*
X151446668Y-114149613D01*
X151405761Y-114133974D01*
X151363400Y-114121556D01*
X151319731Y-114112506D01*
X151274897Y-114106969D01*
X151229043Y-114105091D01*
X151183190Y-114106969D01*
X151138358Y-114112506D01*
X151094690Y-114121556D01*
X151052331Y-114133974D01*
X151011424Y-114149613D01*
X150972114Y-114168328D01*
X150934543Y-114189973D01*
X150898857Y-114214403D01*
X150865199Y-114241470D01*
X150833712Y-114271030D01*
X150804542Y-114302937D01*
X150777831Y-114337044D01*
X150753723Y-114373207D01*
X150732363Y-114411279D01*
X150713895Y-114451115D01*
X150698461Y-114492568D01*
X150686207Y-114535493D01*
X150677276Y-114579744D01*
X150671811Y-114625175D01*
X150669958Y-114671640D01*
X150390410Y-114671640D01*
X150393190Y-114601942D01*
X150401386Y-114533794D01*
X150414783Y-114467418D01*
X150433164Y-114403030D01*
X150456315Y-114340850D01*
X150484018Y-114281097D01*
X150516058Y-114223990D01*
X150552219Y-114169746D01*
X150592286Y-114118585D01*
X150636042Y-114070725D01*
X150683272Y-114026385D01*
X150733760Y-113985784D01*
X150787289Y-113949141D01*
X150843645Y-113916674D01*
X150902612Y-113888602D01*
X150963972Y-113865143D01*
X151027512Y-113846517D01*
X151093014Y-113832942D01*
X151160263Y-113824636D01*
X151229043Y-113821819D01*
X151297823Y-113824636D01*
G37*
X110084496Y-98125761D02*
X110218995Y-98142372D01*
X110350000Y-98169522D01*
X110477080Y-98206775D01*
X110599802Y-98253692D01*
X110717736Y-98309836D01*
X110830450Y-98374771D01*
X110937511Y-98448057D01*
X111038488Y-98529259D01*
X111132949Y-98617938D01*
X111220464Y-98713658D01*
X111300599Y-98815980D01*
X111372923Y-98924468D01*
X111437004Y-99038683D01*
X111492412Y-99158189D01*
X111538713Y-99282549D01*
X111575477Y-99411324D01*
X111602271Y-99544077D01*
X111618665Y-99680372D01*
X111624225Y-99819770D01*
X111618665Y-99959165D01*
X111602271Y-100095457D01*
X111575477Y-100228209D01*
X111538713Y-100356982D01*
X111492412Y-100481340D01*
X111437004Y-100600845D01*
X111372923Y-100715059D01*
X111300599Y-100823546D01*
X111220464Y-100925867D01*
X111132949Y-101021586D01*
X111038488Y-101110264D01*
X110937511Y-101191466D01*
X110830450Y-101264752D01*
X110717736Y-101329686D01*
X110599802Y-101385830D01*
X110477080Y-101432747D01*
X110350000Y-101470000D01*
X110218995Y-101497150D01*
X110084496Y-101513761D01*
X109946935Y-101519395D01*
X109809375Y-101513761D01*
X109674876Y-101497150D01*
X109543872Y-101470000D01*
X109416793Y-101432747D01*
X109294072Y-101385830D01*
X109176139Y-101329686D01*
X109063427Y-101264752D01*
X108956368Y-101191466D01*
X108855392Y-101110264D01*
X108760932Y-101021586D01*
X108673420Y-100925867D01*
X108593287Y-100823546D01*
X108520964Y-100715059D01*
X108456884Y-100600845D01*
X108401478Y-100481340D01*
X108355177Y-100356982D01*
X108318415Y-100228209D01*
X108291621Y-100095457D01*
X108275228Y-99959165D01*
X108269668Y-99819770D01*
X108828765Y-99819770D01*
X108832471Y-99912698D01*
X108843400Y-100003558D01*
X108861262Y-100092058D01*
X108885771Y-100177906D01*
X108916638Y-100260810D01*
X108953575Y-100340480D01*
X108996295Y-100416623D01*
X109044510Y-100488947D01*
X109097932Y-100557162D01*
X109156273Y-100620975D01*
X109219246Y-100680095D01*
X109286563Y-100734229D01*
X109357935Y-100783088D01*
X109433076Y-100826378D01*
X109511697Y-100863808D01*
X109593511Y-100895087D01*
X109678229Y-100919922D01*
X109765565Y-100938023D01*
X109855229Y-100949097D01*
X109946935Y-100952854D01*
X110038644Y-100949097D01*
X110128312Y-100938023D01*
X110215650Y-100919922D01*
X110300371Y-100895087D01*
X110382186Y-100863808D01*
X110460809Y-100826378D01*
X110535951Y-100783088D01*
X110607325Y-100734229D01*
X110674643Y-100680095D01*
X110737617Y-100620975D01*
X110795959Y-100557162D01*
X110849382Y-100488947D01*
X110897597Y-100416623D01*
X110940318Y-100340480D01*
X110977255Y-100260810D01*
X111008122Y-100177906D01*
X111032631Y-100092058D01*
X111050493Y-100003558D01*
X111061422Y-99912698D01*
X111065128Y-99819770D01*
X111061422Y-99726838D01*
X111050493Y-99635976D01*
X111032631Y-99547474D01*
X111008122Y-99461624D01*
X110977255Y-99378718D01*
X110940318Y-99299047D01*
X110897597Y-99222903D01*
X110849382Y-99150577D01*
X110795959Y-99082362D01*
X110737617Y-99018549D01*
X110674643Y-98959429D01*
X110607325Y-98905294D01*
X110535951Y-98856435D01*
X110460809Y-98813145D01*
X110382186Y-98775715D01*
X110300371Y-98744437D01*
X110215650Y-98719601D01*
X110128312Y-98701501D01*
X110038644Y-98690427D01*
X109946935Y-98686670D01*
X109855229Y-98690427D01*
X109765565Y-98701501D01*
X109678229Y-98719601D01*
X109593511Y-98744437D01*
X109511697Y-98775715D01*
X109433076Y-98813145D01*
X109357935Y-98856435D01*
X109286563Y-98905294D01*
X109219246Y-98959429D01*
X109156273Y-99018549D01*
X109097932Y-99082362D01*
X109044510Y-99150577D01*
X108996295Y-99222903D01*
X108953575Y-99299047D01*
X108916638Y-99378718D01*
X108885771Y-99461624D01*
X108861262Y-99547474D01*
X108843400Y-99635976D01*
X108832471Y-99726838D01*
X108828765Y-99819770D01*
X108269668Y-99819770D01*
X108275228Y-99680372D01*
X108291621Y-99544077D01*
X108318415Y-99411324D01*
X108355177Y-99282549D01*
X108401478Y-99158189D01*
X108456884Y-99038683D01*
X108520964Y-98924468D01*
X108593287Y-98815980D01*
X108673420Y-98713658D01*
X108760932Y-98617938D01*
X108855392Y-98529259D01*
X108956368Y-98448057D01*
X109063427Y-98374771D01*
X109176139Y-98309836D01*
X109294072Y-98253692D01*
X109416793Y-98206775D01*
X109543872Y-98169522D01*
X109674876Y-98142372D01*
X109809375Y-98125761D01*
X109946935Y-98120126D01*
X110084496Y-98125761D01*
G36*
X110084496Y-98125761D02*
G01*
X110218995Y-98142372D01*
X110350000Y-98169522D01*
X110477080Y-98206775D01*
X110599802Y-98253692D01*
X110717736Y-98309836D01*
X110830450Y-98374771D01*
X110937511Y-98448057D01*
X111038488Y-98529259D01*
X111132949Y-98617938D01*
X111220464Y-98713658D01*
X111300599Y-98815980D01*
X111372923Y-98924468D01*
X111437004Y-99038683D01*
X111492412Y-99158189D01*
X111538713Y-99282549D01*
X111575477Y-99411324D01*
X111602271Y-99544077D01*
X111618665Y-99680372D01*
X111624225Y-99819770D01*
X111618665Y-99959165D01*
X111602271Y-100095457D01*
X111575477Y-100228209D01*
X111538713Y-100356982D01*
X111492412Y-100481340D01*
X111437004Y-100600845D01*
X111372923Y-100715059D01*
X111300599Y-100823546D01*
X111220464Y-100925867D01*
X111132949Y-101021586D01*
X111038488Y-101110264D01*
X110937511Y-101191466D01*
X110830450Y-101264752D01*
X110717736Y-101329686D01*
X110599802Y-101385830D01*
X110477080Y-101432747D01*
X110350000Y-101470000D01*
X110218995Y-101497150D01*
X110084496Y-101513761D01*
X109946935Y-101519395D01*
X109809375Y-101513761D01*
X109674876Y-101497150D01*
X109543872Y-101470000D01*
X109416793Y-101432747D01*
X109294072Y-101385830D01*
X109176139Y-101329686D01*
X109063427Y-101264752D01*
X108956368Y-101191466D01*
X108855392Y-101110264D01*
X108760932Y-101021586D01*
X108673420Y-100925867D01*
X108593287Y-100823546D01*
X108520964Y-100715059D01*
X108456884Y-100600845D01*
X108401478Y-100481340D01*
X108355177Y-100356982D01*
X108318415Y-100228209D01*
X108291621Y-100095457D01*
X108275228Y-99959165D01*
X108269668Y-99819770D01*
X108828765Y-99819770D01*
X108832471Y-99912698D01*
X108843400Y-100003558D01*
X108861262Y-100092058D01*
X108885771Y-100177906D01*
X108916638Y-100260810D01*
X108953575Y-100340480D01*
X108996295Y-100416623D01*
X109044510Y-100488947D01*
X109097932Y-100557162D01*
X109156273Y-100620975D01*
X109219246Y-100680095D01*
X109286563Y-100734229D01*
X109357935Y-100783088D01*
X109433076Y-100826378D01*
X109511697Y-100863808D01*
X109593511Y-100895087D01*
X109678229Y-100919922D01*
X109765565Y-100938023D01*
X109855229Y-100949097D01*
X109946935Y-100952854D01*
X110038644Y-100949097D01*
X110128312Y-100938023D01*
X110215650Y-100919922D01*
X110300371Y-100895087D01*
X110382186Y-100863808D01*
X110460809Y-100826378D01*
X110535951Y-100783088D01*
X110607325Y-100734229D01*
X110674643Y-100680095D01*
X110737617Y-100620975D01*
X110795959Y-100557162D01*
X110849382Y-100488947D01*
X110897597Y-100416623D01*
X110940318Y-100340480D01*
X110977255Y-100260810D01*
X111008122Y-100177906D01*
X111032631Y-100092058D01*
X111050493Y-100003558D01*
X111061422Y-99912698D01*
X111065128Y-99819770D01*
X111061422Y-99726838D01*
X111050493Y-99635976D01*
X111032631Y-99547474D01*
X111008122Y-99461624D01*
X110977255Y-99378718D01*
X110940318Y-99299047D01*
X110897597Y-99222903D01*
X110849382Y-99150577D01*
X110795959Y-99082362D01*
X110737617Y-99018549D01*
X110674643Y-98959429D01*
X110607325Y-98905294D01*
X110535951Y-98856435D01*
X110460809Y-98813145D01*
X110382186Y-98775715D01*
X110300371Y-98744437D01*
X110215650Y-98719601D01*
X110128312Y-98701501D01*
X110038644Y-98690427D01*
X109946935Y-98686670D01*
X109855229Y-98690427D01*
X109765565Y-98701501D01*
X109678229Y-98719601D01*
X109593511Y-98744437D01*
X109511697Y-98775715D01*
X109433076Y-98813145D01*
X109357935Y-98856435D01*
X109286563Y-98905294D01*
X109219246Y-98959429D01*
X109156273Y-99018549D01*
X109097932Y-99082362D01*
X109044510Y-99150577D01*
X108996295Y-99222903D01*
X108953575Y-99299047D01*
X108916638Y-99378718D01*
X108885771Y-99461624D01*
X108861262Y-99547474D01*
X108843400Y-99635976D01*
X108832471Y-99726838D01*
X108828765Y-99819770D01*
X108269668Y-99819770D01*
X108275228Y-99680372D01*
X108291621Y-99544077D01*
X108318415Y-99411324D01*
X108355177Y-99282549D01*
X108401478Y-99158189D01*
X108456884Y-99038683D01*
X108520964Y-98924468D01*
X108593287Y-98815980D01*
X108673420Y-98713658D01*
X108760932Y-98617938D01*
X108855392Y-98529259D01*
X108956368Y-98448057D01*
X109063427Y-98374771D01*
X109176139Y-98309836D01*
X109294072Y-98253692D01*
X109416793Y-98206775D01*
X109543872Y-98169522D01*
X109674876Y-98142372D01*
X109809375Y-98125761D01*
X109946935Y-98120126D01*
X110084496Y-98125761D01*
G37*
X151366759Y-113680182D02*
X151087212Y-113680182D01*
X151087212Y-113255273D01*
X151366759Y-113255273D01*
X151366759Y-113680182D01*
G36*
X151366759Y-113680182D02*
G01*
X151087212Y-113680182D01*
X151087212Y-113255273D01*
X151366759Y-113255273D01*
X151366759Y-113680182D01*
G37*
X151366737Y-116087995D02*
X151087189Y-116087995D01*
X151087189Y-115663094D01*
X151366737Y-115663094D01*
X151366737Y-116087995D01*
G36*
X151366737Y-116087995D02*
G01*
X151087189Y-116087995D01*
X151087189Y-115663094D01*
X151366737Y-115663094D01*
X151366737Y-116087995D01*
G37*
X110738991Y-99772564D02*
X110738991Y-100055823D01*
X110655455Y-100055823D01*
X110298975Y-100055823D01*
X109594963Y-100055823D01*
X109238483Y-100055823D01*
X109154902Y-100055823D01*
X109154902Y-99772564D01*
X109154902Y-99489281D01*
X109238483Y-99489281D01*
X109594963Y-99489281D01*
X110298975Y-99489281D01*
X110655455Y-99489281D01*
X110738991Y-99489281D01*
X110738991Y-99772564D01*
G36*
X110738991Y-99772564D02*
G01*
X110738991Y-100055823D01*
X110655455Y-100055823D01*
X110298975Y-100055823D01*
X109594963Y-100055823D01*
X109238483Y-100055823D01*
X109154902Y-100055823D01*
X109154902Y-99772564D01*
X109154902Y-99489281D01*
X109238483Y-99489281D01*
X109594963Y-99489281D01*
X110298975Y-99489281D01*
X110655455Y-99489281D01*
X110738991Y-99489281D01*
X110738991Y-99772564D01*
G37*
X151625071Y-114648038D02*
X151625071Y-114789667D01*
X151583303Y-114789667D01*
X151405063Y-114789667D01*
X151053057Y-114789667D01*
X150874817Y-114789667D01*
X150833027Y-114789667D01*
X150833027Y-114648038D01*
X150833027Y-114506396D01*
X150874817Y-114506396D01*
X151053057Y-114506396D01*
X151405063Y-114506396D01*
X151583303Y-114506396D01*
X151625071Y-114506396D01*
X151625071Y-114648038D01*
G36*
X151625071Y-114648038D02*
G01*
X151625071Y-114789667D01*
X151583303Y-114789667D01*
X151405063Y-114789667D01*
X151053057Y-114789667D01*
X150874817Y-114789667D01*
X150833027Y-114789667D01*
X150833027Y-114648038D01*
X150833027Y-114506396D01*
X150874817Y-114506396D01*
X151053057Y-114506396D01*
X151405063Y-114506396D01*
X151583303Y-114506396D01*
X151625071Y-114506396D01*
X151625071Y-114648038D01*
G37*
X112728850Y-100103030D02*
X111890217Y-100103030D01*
X111890217Y-99536488D01*
X112728850Y-99536488D01*
X112728850Y-100103030D01*
G36*
X112728850Y-100103030D02*
G01*
X111890217Y-100103030D01*
X111890217Y-99536488D01*
X112728850Y-99536488D01*
X112728850Y-100103030D01*
G37*
X108125560Y-96944279D02*
X106502088Y-99796156D01*
X108105534Y-102612875D01*
X107614163Y-102900575D01*
X105846947Y-99796156D01*
X107634178Y-96656550D01*
X108125560Y-96944279D01*
G36*
X108125560Y-96944279D02*
G01*
X106502088Y-99796156D01*
X108105534Y-102612875D01*
X107614163Y-102900575D01*
X105846947Y-99796156D01*
X107634178Y-96656550D01*
X108125560Y-96944279D01*
G37*
X150318356Y-113233895D02*
X149506620Y-114659833D01*
X150308343Y-116068193D01*
X150062657Y-116212043D01*
X149179049Y-114659833D01*
X150072665Y-113090031D01*
X150318356Y-113233895D01*
G36*
X150318356Y-113233895D02*
G01*
X149506620Y-114659833D01*
X150308343Y-116068193D01*
X150062657Y-116212043D01*
X149179049Y-114659833D01*
X150072665Y-113090031D01*
X150318356Y-113233895D01*
G37*
X114046947Y-99796156D02*
X112259726Y-102935761D01*
X111768378Y-102648061D01*
X113391778Y-99796156D01*
X111768378Y-96944292D01*
X112259726Y-96656562D01*
X114046947Y-99796156D01*
G36*
X114046947Y-99796156D02*
G01*
X112259726Y-102935761D01*
X111768378Y-102648061D01*
X113391778Y-99796156D01*
X111768378Y-96944292D01*
X112259726Y-96656562D01*
X114046947Y-99796156D01*
G37*
D11*
X109990475Y-93361775D02*
X109990475Y-92561775D01*
X109990475Y-92561775D02*
X109685713Y-92561775D01*
X109685713Y-92561775D02*
X109609523Y-92599870D01*
X109609523Y-92599870D02*
X109571428Y-92637965D01*
X109571428Y-92637965D02*
X109533332Y-92714156D01*
X109533332Y-92714156D02*
X109533332Y-92828441D01*
X109533332Y-92828441D02*
X109571428Y-92904632D01*
X109571428Y-92904632D02*
X109609523Y-92942727D01*
X109609523Y-92942727D02*
X109685713Y-92980822D01*
X109685713Y-92980822D02*
X109990475Y-92980822D01*
X108733332Y-93361775D02*
X108999999Y-92980822D01*
X109190475Y-93361775D02*
X109190475Y-92561775D01*
X109190475Y-92561775D02*
X108885713Y-92561775D01*
X108885713Y-92561775D02*
X108809523Y-92599870D01*
X108809523Y-92599870D02*
X108771428Y-92637965D01*
X108771428Y-92637965D02*
X108733332Y-92714156D01*
X108733332Y-92714156D02*
X108733332Y-92828441D01*
X108733332Y-92828441D02*
X108771428Y-92904632D01*
X108771428Y-92904632D02*
X108809523Y-92942727D01*
X108809523Y-92942727D02*
X108885713Y-92980822D01*
X108885713Y-92980822D02*
X109190475Y-92980822D01*
X108238094Y-92561775D02*
X108085713Y-92561775D01*
X108085713Y-92561775D02*
X108009523Y-92599870D01*
X108009523Y-92599870D02*
X107933332Y-92676060D01*
X107933332Y-92676060D02*
X107895237Y-92828441D01*
X107895237Y-92828441D02*
X107895237Y-93095108D01*
X107895237Y-93095108D02*
X107933332Y-93247489D01*
X107933332Y-93247489D02*
X108009523Y-93323680D01*
X108009523Y-93323680D02*
X108085713Y-93361775D01*
X108085713Y-93361775D02*
X108238094Y-93361775D01*
X108238094Y-93361775D02*
X108314285Y-93323680D01*
X108314285Y-93323680D02*
X108390475Y-93247489D01*
X108390475Y-93247489D02*
X108428571Y-93095108D01*
X108428571Y-93095108D02*
X108428571Y-92828441D01*
X108428571Y-92828441D02*
X108390475Y-92676060D01*
X108390475Y-92676060D02*
X108314285Y-92599870D01*
X108314285Y-92599870D02*
X108238094Y-92561775D01*
X107666666Y-92561775D02*
X107209523Y-92561775D01*
X107438095Y-93361775D02*
X107438095Y-92561775D01*
X106790475Y-92561775D02*
X106638094Y-92561775D01*
X106638094Y-92561775D02*
X106561904Y-92599870D01*
X106561904Y-92599870D02*
X106485713Y-92676060D01*
X106485713Y-92676060D02*
X106447618Y-92828441D01*
X106447618Y-92828441D02*
X106447618Y-93095108D01*
X106447618Y-93095108D02*
X106485713Y-93247489D01*
X106485713Y-93247489D02*
X106561904Y-93323680D01*
X106561904Y-93323680D02*
X106638094Y-93361775D01*
X106638094Y-93361775D02*
X106790475Y-93361775D01*
X106790475Y-93361775D02*
X106866666Y-93323680D01*
X106866666Y-93323680D02*
X106942856Y-93247489D01*
X106942856Y-93247489D02*
X106980952Y-93095108D01*
X106980952Y-93095108D02*
X106980952Y-92828441D01*
X106980952Y-92828441D02*
X106942856Y-92676060D01*
X106942856Y-92676060D02*
X106866666Y-92599870D01*
X106866666Y-92599870D02*
X106790475Y-92561775D01*
X105685714Y-92599870D02*
X105761904Y-92561775D01*
X105761904Y-92561775D02*
X105876190Y-92561775D01*
X105876190Y-92561775D02*
X105990476Y-92599870D01*
X105990476Y-92599870D02*
X106066666Y-92676060D01*
X106066666Y-92676060D02*
X106104761Y-92752251D01*
X106104761Y-92752251D02*
X106142857Y-92904632D01*
X106142857Y-92904632D02*
X106142857Y-93018918D01*
X106142857Y-93018918D02*
X106104761Y-93171299D01*
X106104761Y-93171299D02*
X106066666Y-93247489D01*
X106066666Y-93247489D02*
X105990476Y-93323680D01*
X105990476Y-93323680D02*
X105876190Y-93361775D01*
X105876190Y-93361775D02*
X105799999Y-93361775D01*
X105799999Y-93361775D02*
X105685714Y-93323680D01*
X105685714Y-93323680D02*
X105647618Y-93285584D01*
X105647618Y-93285584D02*
X105647618Y-93018918D01*
X105647618Y-93018918D02*
X105799999Y-93018918D01*
X105152380Y-92561775D02*
X104999999Y-92561775D01*
X104999999Y-92561775D02*
X104923809Y-92599870D01*
X104923809Y-92599870D02*
X104847618Y-92676060D01*
X104847618Y-92676060D02*
X104809523Y-92828441D01*
X104809523Y-92828441D02*
X104809523Y-93095108D01*
X104809523Y-93095108D02*
X104847618Y-93247489D01*
X104847618Y-93247489D02*
X104923809Y-93323680D01*
X104923809Y-93323680D02*
X104999999Y-93361775D01*
X104999999Y-93361775D02*
X105152380Y-93361775D01*
X105152380Y-93361775D02*
X105228571Y-93323680D01*
X105228571Y-93323680D02*
X105304761Y-93247489D01*
X105304761Y-93247489D02*
X105342857Y-93095108D01*
X105342857Y-93095108D02*
X105342857Y-92828441D01*
X105342857Y-92828441D02*
X105304761Y-92676060D01*
X105304761Y-92676060D02*
X105228571Y-92599870D01*
X105228571Y-92599870D02*
X105152380Y-92561775D01*
X104466666Y-93361775D02*
X104466666Y-92561775D01*
X104466666Y-92561775D02*
X104009523Y-93361775D01*
X104009523Y-93361775D02*
X104009523Y-92561775D01*
D12*
X110845238Y-107343911D02*
X110926190Y-107384387D01*
X110926190Y-107384387D02*
X111088095Y-107384387D01*
X111088095Y-107384387D02*
X111169047Y-107343911D01*
X111169047Y-107343911D02*
X111209524Y-107303434D01*
X111209524Y-107303434D02*
X111250000Y-107222482D01*
X111250000Y-107222482D02*
X111250000Y-106979625D01*
X111250000Y-106979625D02*
X111209524Y-106898672D01*
X111209524Y-106898672D02*
X111169047Y-106858196D01*
X111169047Y-106858196D02*
X111088095Y-106817720D01*
X111088095Y-106817720D02*
X110926190Y-106817720D01*
X110926190Y-106817720D02*
X110845238Y-106858196D01*
X110359524Y-107384387D02*
X110440476Y-107343911D01*
X110440476Y-107343911D02*
X110480953Y-107303434D01*
X110480953Y-107303434D02*
X110521429Y-107222482D01*
X110521429Y-107222482D02*
X110521429Y-106979625D01*
X110521429Y-106979625D02*
X110480953Y-106898672D01*
X110480953Y-106898672D02*
X110440476Y-106858196D01*
X110440476Y-106858196D02*
X110359524Y-106817720D01*
X110359524Y-106817720D02*
X110238095Y-106817720D01*
X110238095Y-106817720D02*
X110157143Y-106858196D01*
X110157143Y-106858196D02*
X110116667Y-106898672D01*
X110116667Y-106898672D02*
X110076191Y-106979625D01*
X110076191Y-106979625D02*
X110076191Y-107222482D01*
X110076191Y-107222482D02*
X110116667Y-107303434D01*
X110116667Y-107303434D02*
X110157143Y-107343911D01*
X110157143Y-107343911D02*
X110238095Y-107384387D01*
X110238095Y-107384387D02*
X110359524Y-107384387D01*
X109347619Y-107384387D02*
X109347619Y-106534387D01*
X109347619Y-107343911D02*
X109428571Y-107384387D01*
X109428571Y-107384387D02*
X109590476Y-107384387D01*
X109590476Y-107384387D02*
X109671428Y-107343911D01*
X109671428Y-107343911D02*
X109711905Y-107303434D01*
X109711905Y-107303434D02*
X109752381Y-107222482D01*
X109752381Y-107222482D02*
X109752381Y-106979625D01*
X109752381Y-106979625D02*
X109711905Y-106898672D01*
X109711905Y-106898672D02*
X109671428Y-106858196D01*
X109671428Y-106858196D02*
X109590476Y-106817720D01*
X109590476Y-106817720D02*
X109428571Y-106817720D01*
X109428571Y-106817720D02*
X109347619Y-106858196D01*
X108619047Y-107343911D02*
X108699999Y-107384387D01*
X108699999Y-107384387D02*
X108861904Y-107384387D01*
X108861904Y-107384387D02*
X108942857Y-107343911D01*
X108942857Y-107343911D02*
X108983333Y-107262958D01*
X108983333Y-107262958D02*
X108983333Y-106939149D01*
X108983333Y-106939149D02*
X108942857Y-106858196D01*
X108942857Y-106858196D02*
X108861904Y-106817720D01*
X108861904Y-106817720D02*
X108699999Y-106817720D01*
X108699999Y-106817720D02*
X108619047Y-106858196D01*
X108619047Y-106858196D02*
X108578571Y-106939149D01*
X108578571Y-106939149D02*
X108578571Y-107020101D01*
X108578571Y-107020101D02*
X108983333Y-107101053D01*
X108214286Y-107384387D02*
X108214286Y-106817720D01*
X108214286Y-106898672D02*
X108173809Y-106858196D01*
X108173809Y-106858196D02*
X108092857Y-106817720D01*
X108092857Y-106817720D02*
X107971428Y-106817720D01*
X107971428Y-106817720D02*
X107890476Y-106858196D01*
X107890476Y-106858196D02*
X107850000Y-106939149D01*
X107850000Y-106939149D02*
X107850000Y-107384387D01*
X107850000Y-106939149D02*
X107809524Y-106858196D01*
X107809524Y-106858196D02*
X107728571Y-106817720D01*
X107728571Y-106817720D02*
X107607143Y-106817720D01*
X107607143Y-106817720D02*
X107526190Y-106858196D01*
X107526190Y-106858196D02*
X107485714Y-106939149D01*
X107485714Y-106939149D02*
X107485714Y-107384387D01*
X107161905Y-106817720D02*
X106959524Y-107384387D01*
X106757143Y-106817720D02*
X106959524Y-107384387D01*
X106959524Y-107384387D02*
X107040476Y-107586768D01*
X107040476Y-107586768D02*
X107080953Y-107627244D01*
X107080953Y-107627244D02*
X107161905Y-107667720D01*
X106433334Y-107384387D02*
X106433334Y-106817720D01*
X106433334Y-106979625D02*
X106392857Y-106898672D01*
X106392857Y-106898672D02*
X106352381Y-106858196D01*
X106352381Y-106858196D02*
X106271429Y-106817720D01*
X106271429Y-106817720D02*
X106190476Y-106817720D01*
X105907144Y-107384387D02*
X105907144Y-106817720D01*
X105907144Y-106534387D02*
X105947620Y-106574863D01*
X105947620Y-106574863D02*
X105907144Y-106615339D01*
X105907144Y-106615339D02*
X105866667Y-106574863D01*
X105866667Y-106574863D02*
X105907144Y-106534387D01*
X105907144Y-106534387D02*
X105907144Y-106615339D01*
X105138096Y-107384387D02*
X105138096Y-106939149D01*
X105138096Y-106939149D02*
X105178572Y-106858196D01*
X105178572Y-106858196D02*
X105259524Y-106817720D01*
X105259524Y-106817720D02*
X105421429Y-106817720D01*
X105421429Y-106817720D02*
X105502382Y-106858196D01*
X105138096Y-107343911D02*
X105219048Y-107384387D01*
X105219048Y-107384387D02*
X105421429Y-107384387D01*
X105421429Y-107384387D02*
X105502382Y-107343911D01*
X105502382Y-107343911D02*
X105542858Y-107262958D01*
X105542858Y-107262958D02*
X105542858Y-107182006D01*
X105542858Y-107182006D02*
X105502382Y-107101053D01*
X105502382Y-107101053D02*
X105421429Y-107060577D01*
X105421429Y-107060577D02*
X105219048Y-107060577D01*
X105219048Y-107060577D02*
X105138096Y-107020101D01*
X104369048Y-107384387D02*
X104369048Y-106534387D01*
X104369048Y-107343911D02*
X104450000Y-107384387D01*
X104450000Y-107384387D02*
X104611905Y-107384387D01*
X104611905Y-107384387D02*
X104692857Y-107343911D01*
X104692857Y-107343911D02*
X104733334Y-107303434D01*
X104733334Y-107303434D02*
X104773810Y-107222482D01*
X104773810Y-107222482D02*
X104773810Y-106979625D01*
X104773810Y-106979625D02*
X104733334Y-106898672D01*
X104733334Y-106898672D02*
X104692857Y-106858196D01*
X104692857Y-106858196D02*
X104611905Y-106817720D01*
X104611905Y-106817720D02*
X104450000Y-106817720D01*
X104450000Y-106817720D02*
X104369048Y-106858196D01*
X103964286Y-107303434D02*
X103923809Y-107343911D01*
X103923809Y-107343911D02*
X103964286Y-107384387D01*
X103964286Y-107384387D02*
X104004762Y-107343911D01*
X104004762Y-107343911D02*
X103964286Y-107303434D01*
X103964286Y-107303434D02*
X103964286Y-107384387D01*
X103559524Y-107384387D02*
X103559524Y-106817720D01*
X103559524Y-106534387D02*
X103600000Y-106574863D01*
X103600000Y-106574863D02*
X103559524Y-106615339D01*
X103559524Y-106615339D02*
X103519047Y-106574863D01*
X103519047Y-106574863D02*
X103559524Y-106534387D01*
X103559524Y-106534387D02*
X103559524Y-106615339D01*
X103033333Y-107384387D02*
X103114285Y-107343911D01*
X103114285Y-107343911D02*
X103154762Y-107303434D01*
X103154762Y-107303434D02*
X103195238Y-107222482D01*
X103195238Y-107222482D02*
X103195238Y-106979625D01*
X103195238Y-106979625D02*
X103154762Y-106898672D01*
X103154762Y-106898672D02*
X103114285Y-106858196D01*
X103114285Y-106858196D02*
X103033333Y-106817720D01*
X103033333Y-106817720D02*
X102911904Y-106817720D01*
X102911904Y-106817720D02*
X102830952Y-106858196D01*
X102830952Y-106858196D02*
X102790476Y-106898672D01*
X102790476Y-106898672D02*
X102750000Y-106979625D01*
X102750000Y-106979625D02*
X102750000Y-107222482D01*
X102750000Y-107222482D02*
X102790476Y-107303434D01*
X102790476Y-107303434D02*
X102830952Y-107343911D01*
X102830952Y-107343911D02*
X102911904Y-107384387D01*
X102911904Y-107384387D02*
X103033333Y-107384387D01*
M02*
